<svg height="720pt" preserveAspectRatio="xMidYMid meet" viewBox="0 0 720 720" width="720pt" xmlns="http://www.w3.org/2000/svg"><path d="m1528 7135c-2-1-30-5-63-8-98-10-203-33-317-71-580-190-1013-727-1075-1331-10-99-9-4189 1-4265 60-447 282-822 651-1098 37-28 161-100 227-134 79-39 268-111 268-102 0 3 8 0 18-5s38-12 62-16c25-4 47-8 50-10s29-6 59-10 63-9 75-11c25-6 4186-5 4236 1 400 43 782 247 1042 556 212 252 336 551 365 874 9 108 9 4120-1 4215-41 411-259 809-588 1072-199 160-485 288-722 324-21 3-48 8-60 12-20 5-4222 12-4228 7z" transform="matrix(.1 0 0 -.1 0 720)"/></svg>