<svg height="717pt" preserveAspectRatio="xMidYMid meet" viewBox="0 0 717 717" width="717pt" xmlns="http://www.w3.org/2000/svg"><g transform="matrix(.1 0 0 -.1 0 717)"><path d="m181 6916c-17-20 60-254 95-289 19-19 51-31 120-47 53-12 98-20 100-17 3 3 6 13 6 23 2 24-68 233-85 255-21 27-60 47-127 63-36 9-72 19-81 22-9 2-21-2-28-10z"/><path d="m493 6823c-10-26 65-241 95-273 20-21 52-35 120-55 96-26 112-26 112 3 0 36-72 232-94 255-22 24-60 39-179 72-43 12-49 12-54-2z"/><path d="m5 6571c-8-14 72-259 96-292 11-16 32-32 47-35s33-8 40-10c8-2 42-7 78-10 64-6 64-6 64 19 0 42-76 256-99 281-16 17-45 28-104 40-94 18-114 20-122 7z"/><path d="m313 6504c-6-16 48-195 79-256 10-21 26-41 36-47 28-14 190-44 202-36 14 9 7 42-33 160-46 136-64 156-154 170-22 3-55 10-74 15-45 13-49 13-56-6z"/><path d="m1467 6466c-8-20 67-224 92-250 45-48 272-128 247-88-3 5-7 19-10 33-15 67-61 181-85 208-15 17-65 46-120 70-103 45-116 48-124 27z"/><path d="m624 6427c-4-13 36-148 71-233 17-44 46-64 120-82 22-6 56-14 75-19 42-12 60-7 60 15 0 34-73 234-94 257-14 16-51 33-111 50-102 29-114 30-121 12z"/><path d="m940 6327c0-34 63-213 85-243 14-18 48-35 118-59 96-33 127-35 127-11 0 6-16 60-37 121-44 133-60 150-175 188-104 33-118 34-118 4z"/><path d="m1825 6288c38-129 76-222 99-241 14-12 73-46 132-76 79-41 108-51 114-42 7 12-45 173-72 224-20 38-43 56-140 107-109 56-143 63-133 28z"/><path d="m1260 6223c0-38 72-231 93-251 32-30 217-95 232-82 10 8 6 32-19 108-35 107-58 152-88 171-29 18-177 71-199 71-11 0-19-7-19-17z"/><path d="m1590 6098c0-36 62-211 85-240 11-14 36-32 55-40 127-57 155-68 176-68 13 0 24 4 24 8 0 23-72 216-89 241-14 19-51 42-113 69-133 57-138 58-138 30z"/><path d="m2175 6098c15-74 72-212 100-239 25-24 167-118 228-150 35-19 35 3 0 109-31 93-42 113-82 152-50 48-208 150-234 150-11 0-15-7-12-22z"/><path d="m1068 5953c-2-10 13-67 34-128 21-60 38-110 38-111s8-10 18-21c9-11 56-32 103-46 87-28 124-33 133-19 7 12-67 229-89 257-13 18-44 34-94 51-113 36-138 40-143 17z"/><path d="m1952 5947c-15-18 53-214 87-250 34-38 235-139 248-126s-51 204-83 246-237 148-252 130z"/><path d="m2540 5865c0-27 68-204 89-231 32-41 285-238 289-225 6 17-58 202-82 236s-52 60-178 163c-89 71-118 86-118 57z"/><path d="m1385 5860c-8-13 64-226 86-255 13-15 52-34 117-56 53-17 102-34 108-36 25-9 21 31-13 133-22 65-46 117-62 134-16 18-59 40-114 59-95 33-112 36-122 21z"/><path d="m890 5628c0-40 72-241 95-263 14-15 45-26 91-34 38-7 81-15 97-17 44-9 45 18 2 144-40 120-66 158-113 167-15 4-46 10-69 16-23 5-56 9-72 9-25 0-31-4-31-22z"/><path d="m1199 5580c-1-5-2-16-3-22-3-24 75-233 93-251 20-20 196-71 218-63 20 8 16 31-25 151-43 127-58 141-169 170-98 25-113 27-114 15z"/><path d="m2066 5582c-8-13 68-220 91-246s212-126 239-126c7 0 14 9 14 20 0 35-69 212-92 237-24 26-207 123-232 123-8 0-17-3-20-8z"/><path d="m2940 5532c0-14 57-177 70-203 16-31 49-70 114-139 119-126 236-276 236-303 0-13 1-15-92 98-108 131-198 221-207 206-10-15 53-195 80-229 11-15 61-71 111-124 49-54 99-110 111-125s28-35 37-43c27-27 39-46 55-86 14-35 14-37 0-19-90 115-271 303-281 292-11-11 52-197 79-233 12-17 80-91 151-166 112-118 166-188 189-250 11-29 2-21-31 30-43 67-261 287-273 275s47-189 76-228c12-16 74-82 136-145 63-63 134-137 157-163 24-27 45-47 46-45 2 2-4 19-12 38-9 19-16 40-18 47-1 7-9 26-17 43-9 17-11 28-6 25s6 1 3 9c-3 9-11 13-17 9-6-3-7-1-3 6 6 10-6 50-51 171-3 8-8 24-10 34-2 11-11 29-21 40-9 11-12 16-5 13 7-5 9 0 6 13-3 11-9 17-14 15-4-3-6 4-4 15s-3 24-13 30c-11 6-12 10-4 10 7 0 10 5 7 10-4 6-9 8-13 6s-8 8-9 22c-3 41-15 86-25 93-5 3-10 16-11 27-1 12-5 22-9 22s-4 7-1 17c4 9 2 14-3 11-5-4-10 5-10 19-1 13-9 32-18 42s-13 20-10 24c9 9-6 48-17 42-5-3-6 0-3 8 5 14-86 274-129 367-17 36-138 198-191 257-95 102-136 137-136 115z"/><path d="m2660 5516c0-26 62-200 81-227 10-15 77-72 148-128 115-89 151-112 151-97 0 17-66 197-81 222-25 41-89 99-216 197-64 49-83 57-83 33z"/><path d="m1514 5486c-6-15 47-189 71-236 16-31 36-42 145-78 87-29 110-31 110-7 0 33-70 220-91 244-16 19-53 37-109 56-107 36-119 38-126 21z"/><path d="m2410 5401c0-9 17-65 30-96 4-11 13-39 20-62 23-75 44-97 164-171 113-70 146-83 146-62 0 26-63 198-83 227-12 18-46 47-75 65-30 18-59 38-65 43-19 16-114 65-126 65-6 0-11-4-11-9z"/><path d="m1836 5373c-9-22 54-203 83-241 20-26 50-43 126-73 109-43 125-46 125-25 0 22-68 216-82 234-23 29-41 41-118 73-107 45-127 50-134 32z"/><path d="m2192 5228c-9-9 2-63 28-123 5-11 14-38 21-60 17-60 54-92 168-146 57-27 108-49 112-49 16 0 10 33-22 128-38 113-65 147-156 192-37 18-84 41-104 51-25 13-39 15-47 7z"/><path d="m2778 5175c-6-7 46-175 67-214 18-35 60-73 190-171 86-65 111-80 113-66 2 9-11 60-30 114-29 85-40 104-88 152-53 53-73 70-183 153-51 38-59 41-69 32z"/><path d="m2535 5050c-4-6 10-60 30-120 33-98 41-114 82-150 25-22 49-40 54-40 4 0 44-23 89-51 54-33 86-47 92-41 13 13-47 196-78 238-39 53-256 185-269 164z"/><path d="m3456 4803c97-228 234-650 344-1068 18-65 34-126 37-135 4-13 4-13-6 0-16 23-13-1 10-66 11-32 38-120 59-194 24-79 48-143 60-154 11-12 20-15 20-8 0 19-80 252-106 311-14 29-23 55-21 58 7 6 57-60 122-160 96-147 184-352 233-537 17-65 34-148 33-165 0-2 4-19 9-37 5-17 13-61 16-97 4-36 8-79 10-96 2-16 6-109 9-205 2-96 4-178 5-181 0-4 77 69 172 162 94 93 172 168 174 167 1-2 241-239 533-527l531-523h725c399 0 728 2 730 4 4 3-621 625-1557 1550l-230 227 484 480c266 263 654 648 863 855l380 376h-735-735l-405-401c-223-220-446-441-496-491l-92-90-472 468c-260 258-483 479-496 492-21 20-33 22-124 22h-100z"/><path d="m2896 4821c-6-10 55-196 75-230 16-26 270-221 287-221 7 0 12 4 12 9 0 12-65 193-78 218-14 26-68 74-167 149-93 71-122 87-129 75z"/><path d="m3710 3818c0-9 6-19 13-21 10-4 10-6 0-6-7-1-13-6-13-12 0-5 5-7 10-4 6 3 10 1 10-4 0-6-3-11-7-11-5 0-8-35-9-78 0-42-3-109-6-147-5-59-3-74 13-94 36-44 40-16 24 171-5 64-3 84 10 104 8 13 11 24 6 24-8 0-23 28-26 50 0 3-6 14-12 25-10 17-12 17-13 3zm33-93c-7-21-12-19-10 4 0 11 5 18 9 15s5-11 1-19z"/><path d="m3754 3695c-3-14-3-41 0-60 10-49 14-88 21-180 4-60 11-85 25-99 11-11 22-17 25-14 7 7-20 167-44 265-15 57-16 70-5 66 8-3 12-8 9-12-2-4 5-43 16-87 10-43 22-94 25-113 15-89 33-159 45-179 15-24 40-38 34-19-2 7-15 57-29 112s-36 133-50 173-21 70-15 67c5-4 9-1 9 4 0 6-5 11-12 11-6 0-9 3-5 6 5 6-31 84-39 84-2 0-6-11-10-25z"/><path d="m3675 3349c-30-82-85-257-85-269 1-17 65-90 80-90 16 0 70 220 70 283 0 28-58 95-65 76z"/><path d="m3765 3214c-4-27-16-89-26-139-28-129-26-144 20-189 21-21 41-34 44-29 13 22 32 204 30 297 0 40-6 53-31 79l-30 30z"/><path d="m3856 3013c-4-76-9-151-10-168-4-41 3-57 43-101 31-34 35-36 42-18 10 24 10 240 0 316-5 40-14 65-31 83-13 14-27 25-30 25-4 0-10-62-14-137z"/><path d="m3964 2964c3-54 5-145 6-202v-103l46-47 45-47-6 120c-8 158-31 304-53 329-45 53-44 55-38-50z"/><path d="m3486 2873c-31-58-56-116-56-128 0-28 87-125 105-119 18 7 98 209 98 246 0 20-11 41-38 68-22 22-42 40-46 40s-33-48-63-107z"/><path d="m3676 2822c-15-25-86-229-86-249 0-26 86-126 103-120 15 5 86 236 81 265-1 6-2 16-3 22-1 13-71 90-82 90-4 0-10-3-13-8z"/><path d="m3810 2654c-6-14-10-31-10-37 0-7-12-50-25-96-36-123-34-137 25-196 39-39 53-47 59-36 18 28 55 234 52 286-1 21-67 105-82 105-5 0-14-12-19-26z"/><path d="m3364 2642c-17-11-134-192-134-208 0-18 109-134 126-134s124 190 124 221c0 15-19 44-48 77-52 56-51 55-68 44z"/><path d="m3956 2519c-26-123-51-278-46-295 3-11 26-45 52-74 47-54 47-54 57-29 19 50 40 274 30 314-4 14-26 44-48 67-39 41-40 41-45 17z"/><path d="m3477 2368c-74-141-72-132-29-180 72-81 79-88 90-88 14 0 102 183 109 227 5 31 1 39-48 89-29 30-56 54-60 54s-32-46-62-102z"/><path d="m3162 2343c-20-8-142-174-142-195 0-10 28-48 63-85 51-53 67-64 81-56 20 11 136 181 136 200 0 13-96 127-115 135-5 3-16 3-23 1z"/><path d="m3684 2253c-9-21-31-72-50-114s-34-85-34-96 25-48 56-82c55-60 58-62 75-44 19 20 89 209 89 241 0 21-94 132-112 132-5 0-16-17-24-37z"/><path d="m3283 2045c-35-52-63-103-63-113 0-24 124-154 142-147 16 7 128 195 128 216s-109 139-128 139c-10 0-42-39-79-95z"/><path d="m3861 2088c-53-141-82-242-75-258 14-29 104-120 119-120 13 0 37 68 71 200 11 45 13 69 6 84-13 27-92 116-104 116-5 0-12-10-17-22z"/><path d="m2889 2018c-28-29-64-70-80-92-24-32-27-42-17-60 20-38 121-136 139-136 10 0 43 30 74 66 79 93 89 111 79 134-13 26-121 140-134 140-6 0-34-24-61-52z"/><path d="m3480 1838c-33-56-60-111-60-121 0-27 123-152 142-144 15 5 118 201 118 224 0 16-112 143-127 143-7 0-40-46-73-102z"/><path d="m3132 1832c-48-48-132-161-132-178 1-27 121-154 145-154 26 0 145 157 145 191 0 23-112 159-131 159-5 0-17-8-27-18z"/><path d="m2618 1735c-42-42-79-82-82-90-8-23 126-175 155-175 21 0 169 156 169 178-1 21-132 162-151 162-8 0-48-34-91-75z"/><path d="m3728 1723c-21-23-108-204-108-223 1-23 125-154 141-148 8 3 36 56 62 118 57 132 56 137-27 219-49 49-53 51-68 34z"/><path d="m3347 1617c-22-17-137-180-137-194 0-11 99-125 130-149 8-7 20-10 26-7 20 7 134 182 134 204 0 18-101 140-127 152-6 3-18 0-26-6z"/><path d="m2915 1568c-33-18-155-156-155-175 1-23 134-163 155-163 9 0 28 12 42 28 57 60 123 144 123 155 0 7-33 47-72 89-64 68-75 76-93 66z"/><path d="m2355 1498c-58-48-85-77-85-92 1-30 134-166 163-166 27 1 177 135 177 159 0 21-131 163-153 167-9 1-55-29-102-68z"/><path d="m3079 1278c-81-93-98-118-92-136 11-29 136-152 154-152 16 0 139 138 151 170 3 8 2 23-1 32-9 24-131 148-146 148-6 0-36-28-66-62z"/><path d="m3278 1014c-38-47-68-93-68-103 0-26 142-174 160-166 25 10 140 170 140 194 0 31-117 161-145 161-13-1-43-30-87-86z"/><path d="m2307 1025c-51-39-87-73-87-83 1-28 142-172 169-172 28 0 191 124 191 146 0 14-53 76-122 147-15 15-36 27-46 27-9 0-57-29-105-65z"/><path d="m2813 997c-46-46-83-88-83-93 0-6 35-48 79-93 73-77 80-82 101-71 31 17 148 138 155 161 8 23-130 178-159 179-6 0-47-37-93-83z"/><path d="m3047 752c-44-44-77-86-77-97s33-55 73-98c58-61 77-76 93-71 35 13 153 147 153 174 0 29-124 171-149 170-9 0-50-35-93-78z"/><path d="m2786 509c-47-38-86-77-86-85 0-13 32-51 131-154 36-38 52-33 141 49 21 18 47 40 58 48s20 24 20 36c0 28-135 177-160 177-10 0-57-32-104-71z"/></g></svg>