<svg height="6.861939mm" viewBox="0 0 7.1560364 6.8619385" width="7.156036mm" xmlns="http://www.w3.org/2000/svg"><g stroke-width=".264583" transform="matrix(1.1967478 0 0 1.1475608 -166.608634 -178.535216)"><path d="m142.20762 161.55758c1.66688 0 2.98979-1.34937 2.98979-2.98979 0-1.66687-1.34937-2.98979-2.98979-2.98979-1.66687 0-2.98979 1.34938-2.98979 2.98979 0 1.64042 1.34938 2.98979 2.98979 2.98979z" fill="#2c374b"/><path clip-rule="evenodd" d="m143.84804 157.483c-.0265-.0265-1.32292-.79375-1.48167-.84667-.0529-.0264-.18521-.0529-.26458-.0264-.0794.0264-1.45521.8202-1.50813.87312-.0265.0265-.0529.0794-.0794.10583-.0265.0529-.0265.0794-.0265 1.00542v.9525l.18521.10583c.10583.0529.18521.10584.18521.10584.0265 0 1.27-1.98438 1.27-2.01084 0-.0265-.29104-.0265-.37042 0-.10583.0265-.18521.0794-.23812.1323-.0265.0264-.18521.29104-.39688.58208-.18521.29104-.34396.55562-.34396.55562s0-.26458 0-.635v-.66145l.0265-.0265c.0529-.0529 1.40229-.82021 1.45521-.82021.0265 0 .0529 0 .37042.18521.10583.0529.39687.21166.635.37041.23812.1323.44979.26459.47625.29105l.0265.0265v1.37584l-.66145-1.03188c-.0265-.0529-.0529-.10583-.0794-.13229s-.0265.0529-.18521.3175c-.0265.0265-.0529.0794-.0529.10583l-.0265.0529.0265.0265.0264.0265s0 .0265.0265.0265l.0529.0794s0 .0265.0265.0265c.0265.0265.0529.0794.0529.10583v.0265l.55563.89958-.0529.0265c-.0265.0265-.0529.0265-.0794.0265l-.68792-1.05833-.0265-.0265-.0529.10583-.26459.42334.52917.84666c-.0794.0529-.52917.37042-.55563.37042-.0265 0-.635-.39688-.60854-.42333 0 0 .18521-.3175.39688-.68792.18521-.3175.42333-.71438.58208-.97896.18521-.3175.26458-.47625.26458-.47625s-.13229 0-.29104 0h-.26458l-.60854 1.00542c-.21167.37041-.42334.71437-.52917.89958-.18521.0265-.23812.0794-.23812.0794l-.0265.0529.47625.26459c.26458.15875.50271.29104.55562.3175.0794.0529.21167.0529.26459.0529.0529-.0265 1.42875-.82021 1.50812-.87312.0265-.0265.0529-.0529.0794-.10584l.0265-.0794v-.87313-.87312l-.0265-.0529c0-.0529-.0529-.10583-.0529-.13229z" fill="#fff" fill-rule="evenodd"/><path d="m143.71575 159.09696-.79375-1.21708-.29104.47625.76729 1.24354.34396-.15875z" fill="#24a2ee"/><path d="m143.34533 159.75842-.79375-1.21709-.34396.52917.635 1.00542.39688-.15875z" fill="#24a2ee"/><path clip-rule="evenodd" d="m140.75241 157.72113 1.45521-.84667 1.45521.84667v1.69333l-1.45521.84667-1.08479-.60855-.13229.23813 1.19062.68792c.0265.0264.0529.0264.0794 0l1.66687-.9525c.0265-.0265.0529-.0529.0529-.0794v-1.905c0-.0265-.0265-.0529-.0529-.0794l-1.66687-.9525c-.0265-.0265-.0529-.0265-.0794 0l-1.66687.92604c-.0265.0265-.0529.0529-.0529.0794v1.905c0 .0265.0265.0529.0529.0794l.34396.18521.15875-.23813-.23813-.13229v-1.69333z" fill="#98bcdc" fill-rule="evenodd"/><g fill="#fff"><path d="m142.84262 157.72113h-.55562l-1.29646 2.11666.44979.26459z"/><path d="m141.44033 157.93279c.13229-.21166.50271-.21166.66146-.18521l-1.27 2.0373c-.0529-.0265-.15875-.0794-.23813-.1323-.10583-.0529-.13229-.0529-.13229-.13229v-.10583c.29104-.42333.84667-1.27.97896-1.48167z"/></g></g></svg>