<svg width="30" height="30" viewBox="0 0 30 30" fill="none" xmlns="http://www.w3.org/2000/svg">
  <path d="M24.2453 5.14648H5.73462V21.9816H24.2453V5.14648Z" fill="white" />
  <path fill-rule="evenodd" clip-rule="evenodd" d="M29.9801 15.0001C29.9801 23.2734 23.2734 29.9801 15.0001 29.9801C6.72681 29.9801 0.0200195 23.2734 0.0200195 15.0001C0.0200195 6.72681 6.72681 0.0200195 15.0001 0.0200195C23.2734 0.0200195 29.9801 6.72681 29.9801 15.0001ZM10.7552 20.9614H7.84794C7.23705 20.9614 6.9353 20.9614 6.75131 20.8437C6.55258 20.7148 6.43114 20.5014 6.41642 20.2658C6.40537 20.0488 6.55627 19.7838 6.85803 19.2538L14.0363 6.60117C14.3417 6.06388 14.4963 5.79524 14.6913 5.69588C14.9011 5.58917 15.1513 5.58917 15.3611 5.69588C15.5561 5.79524 15.7107 6.06388 16.0161 6.60117L17.4918 9.17718L17.4993 9.19033C17.8292 9.76673 17.9965 10.059 18.0696 10.3658C18.1505 10.7007 18.1505 11.054 18.0696 11.3889C17.996 11.698 17.8304 11.9924 17.4955 12.5775L13.7249 19.2428L13.7152 19.2599C13.3831 19.841 13.2148 20.1356 12.9816 20.3578C12.7277 20.6007 12.4222 20.7773 12.0873 20.8768C11.7819 20.9614 11.4396 20.9614 10.7552 20.9614ZM18.0968 20.9614H22.2625C22.8771 20.9614 23.1862 20.9614 23.3704 20.8401C23.569 20.7112 23.6941 20.494 23.7053 20.2586C23.7158 20.0486 23.5682 19.7939 23.279 19.2948C23.269 19.2778 23.259 19.2605 23.2489 19.2429L21.1622 15.6733L21.1385 15.6331C20.8453 15.1372 20.6973 14.8869 20.5072 14.7901C20.2975 14.6833 20.0508 14.6833 19.8411 14.7901C19.6498 14.8894 19.4952 15.1507 19.1898 15.6769L17.1106 19.2466L17.1034 19.2589C16.7991 19.7843 16.647 20.0468 16.6579 20.2622C16.6727 20.4978 16.7941 20.7148 16.9928 20.8437C17.1731 20.9614 17.4823 20.9614 18.0968 20.9614Z" fill="#E84142" />
</svg>
  