<svg id="Layer_1" data-name="Layer 1" xmlns="http://www.w3.org/2000/svg" viewBox="0 0 511.97 511.97"><defs><style>.cls-1{fill:#f3ba2f;}</style></defs><title>binance-coin-bnb</title><g id="Layer_2" data-name="Layer 2"><g id="Layer_1-2" data-name="Layer 1-2"><path class="cls-1" d="M156.56,215.14,256,115.71l99.47,99.47,57.86-57.85L256,0,98.71,157.28l57.85,57.85M0,256l57.86-57.87L115.71,256,57.85,313.83Zm156.56,40.85L256,396.27l99.47-99.47,57.89,57.82,0,0L256,512,98.71,354.7l-.08-.09,57.93-57.77M396.27,256l57.85-57.85L512,256l-57.85,57.85Z"/><path class="cls-1" d="M314.66,256h0L256,197.25,212.6,240.63h0l-5,5L197.33,255.9l-.08.08.08.08L256,314.72l58.7-58.7,0,0-.05,0"/></g></g></svg>