<?xml version="1.0" standalone="no"?>
<!DOCTYPE svg PUBLIC "-//W3C//DTD SVG 20010904//EN"
 "http://www.w3.org/TR/2001/REC-SVG-20010904/DTD/svg10.dtd">
<svg version="1.0" xmlns="http://www.w3.org/2000/svg"
 width="230.000000pt" height="219.000000pt" viewBox="0 0 230.000000 219.000000"
 preserveAspectRatio="xMidYMid meet">

<g transform="translate(0.000000,219.000000) scale(0.100000,-0.100000)"
fill="#ff0000" stroke="none">
<path d="M593 2179 c-17 -5 -41 -21 -52 -35 -19 -24 -21 -40 -21 -180 l0 -154
105 0 104 0 3 83 3 82 578 3 c354 1 577 -1 577 -7 0 -5 -57 -59 -126 -120
l-127 -111 -771 0 c-871 0 -828 4 -854 -74 -19 -60 -13 -1582 7 -1612 34 -51
1 -49 849 -52 510 -2 806 1 830 7 48 13 571 466 589 510 17 41 6 87 -29 116
l-30 25 -749 0 -749 0 0 395 0 395 -105 0 -105 0 0 -465 0 -465 29 -32 29 -33
660 -5 659 -5 -134 -118 -133 -117 -705 0 -705 0 0 660 0 660 750 0 749 0 38
33 c151 129 510 446 519 458 33 42 21 115 -24 146 -25 17 -72 18 -827 20 -472
1 -813 -2 -832 -8z"/>
</g>
</svg>
