<svg width="30" height="30" viewBox="0 0 30 30" fill="none" xmlns="http://www.w3.org/2000/svg">
  <path d="M15 30C23.2843 30 30 23.2843 30 15C30 6.71573 23.2843 0 15 0C6.71573 0 0 6.71573 0 15C0 23.2843 6.71573 30 15 30Z" fill="#2E3148" />
  <path d="M15.0001 23.7038C19.807 23.7038 23.7038 19.807 23.7038 15.0001C23.7038 10.1932 19.807 6.29639 15.0001 6.29639C10.1932 6.29639 6.29639 10.1932 6.29639 15.0001C6.29639 19.807 10.1932 23.7038 15.0001 23.7038Z" fill="#1B1E36" />
  <path d="M15.031 1.91357C13.4118 1.91357 12.0989 7.78637 12.0989 15.0309C12.0989 22.2754 13.4118 28.1482 15.031 28.1482C16.6501 28.1482 17.963 22.2754 17.963 15.0309C17.963 7.78637 16.6501 1.91357 15.031 1.91357ZM15.2334 27.4079C15.0482 27.6549 14.8631 27.4696 14.8631 27.4696C14.1174 26.6056 13.7446 25.0005 13.7446 25.0005C12.4403 20.803 12.7507 11.7907 12.7507 11.7907C13.3637 4.63577 14.4787 2.94557 14.8582 2.57033C14.8969 2.53204 14.9479 2.50863 15.0022 2.50424C15.0565 2.49985 15.1106 2.51476 15.155 2.54633C15.7056 2.93645 16.1674 4.56797 16.1674 4.56797C17.5309 9.62969 17.4074 14.3828 17.4074 14.3828C17.5309 18.5186 16.7242 23.1482 16.7242 23.1482C16.1032 26.6666 15.2334 27.4079 15.2334 27.4079Z" fill="#6F7390" />
  <path d="M26.4087 8.50297C25.6025 7.09801 19.8556 8.88193 13.5687 12.487C7.28174 16.092 2.84702 20.1536 3.65258 21.558C4.45814 22.9624 10.2057 21.179 16.4926 17.574C22.7795 13.969 27.2142 9.90733 26.4087 8.50297ZM4.39634 21.3653C4.0877 21.3264 4.15742 21.0727 4.15742 21.0727C4.53602 19.9962 5.74082 18.874 5.74082 18.874C8.73398 15.6536 16.7063 11.4382 16.7063 11.4382C23.2168 8.40913 25.239 8.53693 25.752 8.67817C25.8047 8.69286 25.8504 8.72572 25.8812 8.77092C25.9119 8.81613 25.9257 8.87075 25.92 8.92513C25.8583 9.59713 24.67 10.8091 24.67 10.8091C20.9605 14.5122 16.776 16.7708 16.776 16.7708C13.2501 18.9368 8.83286 20.5399 8.83286 20.5399C5.47178 21.7511 4.39646 21.3653 4.39646 21.3653H4.39634Z" fill="#6F7390" />
  <path d="M26.3802 21.6051C27.1926 20.2039 22.769 16.1236 16.5042 12.4915C10.2394 8.85929 4.49317 7.05329 3.68149 8.45693C2.86981 9.86057 7.29265 13.9384 13.5611 17.5706C19.8295 21.2027 25.5685 23.0089 26.3802 21.6051ZM4.21981 8.99837C4.09981 8.71385 4.35313 8.64533 4.35313 8.64533C5.47465 8.43353 7.05001 8.91617 7.05001 8.91617C11.3358 9.89213 18.978 14.6792 18.978 14.6792C24.862 18.7965 25.7644 20.6101 25.8996 21.1249C25.9134 21.1777 25.908 21.2336 25.8845 21.2829C25.861 21.3321 25.8209 21.3715 25.7712 21.394C25.1576 21.6749 23.5144 21.2564 23.5144 21.2564C18.4495 19.8983 14.3989 17.4101 14.3989 17.4101C10.7594 15.4472 7.16065 12.4268 7.16065 12.4268C4.42609 10.1243 4.22065 9.00149 4.22065 9.00149L4.21981 8.99837Z" fill="#6F7390" />
  <path d="M15 16.5434C15.8523 16.5434 16.5432 15.8525 16.5432 15.0002C16.5432 14.1479 15.8523 13.457 15 13.457C14.1477 13.457 13.4568 14.1479 13.4568 15.0002C13.4568 15.8525 14.1477 16.5434 15 16.5434Z" fill="#B7B9C8" />
  <path d="M21.3272 9.99979C21.8215 9.99979 22.2223 9.58524 22.2223 9.07387C22.2223 8.5625 21.8215 8.14795 21.3272 8.14795C20.8329 8.14795 20.4321 8.5625 20.4321 9.07387C20.4321 9.58524 20.8329 9.99979 21.3272 9.99979Z" fill="#B7B9C8" />
  <path d="M6.6358 13.1482C7.13014 13.1482 7.53088 12.7337 7.53088 12.2223C7.53088 11.7109 7.13014 11.2964 6.6358 11.2964C6.14146 11.2964 5.74072 11.7109 5.74072 12.2223C5.74072 12.7337 6.14146 13.1482 6.6358 13.1482Z" fill="#B7B9C8" />
  <path d="M13.179 24.5061C13.6734 24.5061 14.0741 24.0916 14.0741 23.5802C14.0741 23.0688 13.6734 22.6543 13.179 22.6543C12.6847 22.6543 12.2839 23.0688 12.2839 23.5802C12.2839 24.0916 12.6847 24.5061 13.179 24.5061Z" fill="#B7B9C8" />
</svg>
  