<svg width="224" height="241" viewBox="0 0 224 241" fill="none" xmlns="http://www.w3.org/2000/svg">
<path fill-rule="evenodd" clip-rule="evenodd" d="M120.987 0.884801C141.668 0.869041 162.004 6.15266 180.04 16.2272C198.076 26.3017 213.203 40.8281 223.966 58.4082V58.4082C207.325 58.4082 191.366 64.9893 179.599 76.7038C167.831 88.4182 161.221 104.306 161.221 120.873C161.221 137.44 167.831 153.328 179.599 165.043C191.366 176.757 207.325 183.338 223.966 183.338C213.018 201.22 197.56 215.939 179.128 226.031C160.696 236.123 139.932 241.237 118.9 240.866C97.8672 240.494 77.2986 234.65 59.238 223.913C41.1774 213.176 26.2537 197.92 15.95 179.663C5.6463 161.405 0.321429 140.781 0.504569 119.84C0.68771 98.899 6.37248 78.3703 16.9939 60.2941C27.6154 42.2179 42.8037 27.2236 61.0493 16.8013C79.295 6.37908 99.9627 0.89179 120.999 0.884801H120.987Z" fill="#FFC780"/>
<path fill-rule="evenodd" clip-rule="evenodd" d="M223.966 58.4075C207.325 58.4075 191.365 64.9886 179.598 76.7031C167.831 88.4175 161.221 104.306 161.221 120.872C161.221 137.439 167.831 153.327 179.598 165.042C191.365 176.756 207.325 183.337 223.966 183.337L223.57 183.929C211.313 194.988 196.091 202.262 179.757 204.866C163.422 207.469 146.68 205.289 131.568 198.592C116.455 191.895 103.624 180.969 94.6357 167.143C85.6475 153.318 80.8899 137.19 80.9418 120.721C80.9938 104.253 85.8531 88.1551 94.9284 74.3863C104.004 60.6176 116.904 49.7718 132.058 43.1692C147.213 36.5665 163.968 34.4917 180.286 37.1971C196.603 39.9026 211.779 47.2717 223.966 58.4075Z" fill="url(#paint0_linear_2360_219888)"/>
<defs>
<linearGradient id="paint0_linear_2360_219888" x1="152.447" y1="205.957" x2="152.447" y2="36.0547" gradientUnits="userSpaceOnUse">
<stop stop-color="#FFC780"/>
<stop offset="1" stop-color="#964B48"/>
</linearGradient>
</defs>
</svg>
