<svg width="30" height="30" viewBox="0 0 30 30" fill="none" xmlns="http://www.w3.org/2000/svg">
  <rect width="30" height="30" rx="15" fill="#003034" />
  <path d="M15.0139 6.89164C15.0139 7.67182 15.0975 7.75541 15.9334 7.75541C17.1594 7.75541 19.5557 8.98142 20.4752 10.0681C21.4783 11.2663 22.2585 12.9938 22.2585 14.0805C22.2585 14.9164 22.3421 15 23.1223 15H23.9861L23.791 13.6904C23.2337 9.87306 20.0573 6.69659 16.2678 6.16718L15.0139 6V6.89164Z" fill="#CDF6ED" />
  <path d="M13.2585 12.158C12.8405 12.4087 12.3389 12.966 12.1439 13.384C11.921 13.9134 11.6145 14.1641 11.1965 14.1641C10.7507 14.1641 10.5557 14.3313 10.5557 14.7214C10.5557 15.0837 10.7507 15.2787 11.0851 15.2787C11.4194 15.2787 11.8095 15.6688 12.1439 16.3097C13.0913 18.288 15.6826 18.8731 17.2987 17.5078C17.9117 16.9784 17.9117 16.9505 17.4102 16.5326C16.9643 16.1982 16.825 16.1982 16.2956 16.5326C15.9891 16.7555 15.4597 16.9505 15.1532 16.9505C14.4009 16.9505 13.342 16.1982 13.342 15.6688C13.342 15.3623 13.8993 15.2787 16.2677 15.2787C17.8838 15.2787 19.1934 15.223 19.1934 15.1672C19.1934 15.1115 19.277 14.8607 19.3606 14.61C19.4999 14.2756 19.3606 14.1641 18.8869 14.1641C18.4133 14.1641 18.1068 13.9134 17.856 13.3282C17.1594 11.7679 14.8467 11.1827 13.2585 12.158ZM16.212 13.384L16.825 14.0248L15.1811 14.1084C13.2585 14.2199 12.9798 14.0248 13.8715 13.3004C14.7352 12.6038 15.4318 12.6316 16.212 13.384Z" fill="#CDF6ED" />
  <path d="M6.1811 16.2539C6.71051 20.0155 9.99844 23.3034 13.76 23.8328L15.0139 24V23.1084C15.0139 22.3282 14.9303 22.2446 14.1223 22.2446C13.0077 22.2446 11.2802 21.4644 10.082 20.4613C8.99534 19.5418 7.76933 17.1455 7.76933 15.9195C7.76933 15.0836 7.68574 15 6.90556 15H6.01392L6.1811 16.2539Z" fill="#CDF6ED" />
</svg>
  