<svg width="30" height="30" viewBox="0 0 30 30" fill="none" xmlns="http://www.w3.org/2000/svg">
  <path d="M14.9999 28.5701C22.4944 28.5701 28.5699 22.4947 28.5699 15.0002C28.5699 7.50566 22.4944 1.43018 14.9999 1.43018C7.50542 1.43018 1.42993 7.50566 1.42993 15.0002C1.42993 22.4947 7.50542 28.5701 14.9999 28.5701Z" fill="#13B5EC" />
  <path d="M14.2698 6.76081C14.6775 6.54783 15.2982 6.54783 15.7059 6.76081L19.8743 8.95148C20.1177 9.07927 20.2577 9.274 20.282 9.47481H20.2881V20.4829C20.282 20.702 20.1481 20.915 19.8804 21.0549L15.712 23.2456C15.3043 23.4586 14.6836 23.4586 14.2759 23.2456L10.1076 21.0549C9.8398 20.915 9.71202 20.6959 9.70593 20.4829C9.70593 20.4647 9.70593 20.4464 9.70593 20.4282V9.54174C9.70593 9.52957 9.70593 9.5174 9.70593 9.50523V9.46872C9.72419 9.26791 9.85197 9.07927 10.1076 8.94539L14.2698 6.76081ZM19.6309 15.6148L15.712 17.6776C15.3043 17.8906 14.6836 17.8906 14.2759 17.6776L10.3631 15.6209V20.4586L14.2759 22.5032C14.495 22.6188 14.7262 22.7344 14.9514 22.7527H14.994C15.2252 22.7527 15.4564 22.6371 15.6816 22.5215L19.6309 20.4403V15.6148ZM9.02439 20.2395C9.02439 20.6594 9.07307 20.9393 9.17043 21.134C9.24954 21.2983 9.37124 21.42 9.5964 21.5722L9.60857 21.5783C9.65725 21.6087 9.71202 21.6452 9.77895 21.6878L9.85806 21.7365L10.0954 21.8764L9.75461 22.4363L9.48686 22.2781L9.44427 22.2537C9.36516 22.205 9.30431 22.1685 9.24345 22.1259C8.61059 21.7 8.37327 21.2375 8.36719 20.276V20.2456H9.02439V20.2395ZM14.6654 12.6634C14.6349 12.6756 14.6045 12.6878 14.5802 12.7L10.4118 14.8906C10.4057 14.8906 10.4057 14.8967 10.3996 14.8967H10.3936L10.3996 14.9028L10.4118 14.9089L14.5802 17.0996C14.6045 17.1117 14.6349 17.1239 14.6654 17.1361V12.6634ZM15.3165 12.6634V17.1361C15.3469 17.1239 15.3773 17.1117 15.4017 17.0996L19.57 14.9089C19.5761 14.9089 19.5761 14.9028 19.5822 14.9028H19.5883L19.5822 14.8967L19.57 14.8906L15.4017 12.7C15.3773 12.6817 15.3469 12.6695 15.3165 12.6634ZM19.6309 10.2537L15.8946 12.2192L19.6309 14.1847V10.2537ZM10.3631 10.2537V14.1726L14.0934 12.2131L10.3631 10.2537ZM15.4017 7.3389C15.1826 7.22329 14.7932 7.22329 14.5741 7.3389L10.4057 9.52957C10.3996 9.52957 10.3996 9.53566 10.3936 9.53566H10.3875L10.3936 9.54174L10.4057 9.54783L14.5741 11.7385C14.7932 11.8541 15.1826 11.8541 15.4017 11.7385L19.57 9.54783C19.5761 9.54783 19.5761 9.54174 19.5822 9.54174H19.5883L19.5822 9.53566L19.57 9.52957L15.4017 7.3389ZM20.2455 7.57623L20.5132 7.73444L20.5558 7.75878C20.6349 7.80746 20.6958 7.84397 20.7566 7.88657C21.3895 8.31253 21.6268 8.77501 21.6329 9.73647V9.7669H20.9757C20.9757 9.34702 20.927 9.0671 20.8297 8.87237C20.7506 8.70807 20.6289 8.58637 20.4037 8.43424L20.3915 8.42815C20.3428 8.39773 20.2881 8.36122 20.2211 8.31862L20.142 8.26994L19.9047 8.12998L20.2455 7.57623Z" fill="white" />
</svg>
  