<svg xmlns="http://www.w3.org/2000/svg" viewBox="0 0 1080 1080"><defs><style>.cls-1{fill:none;}.cls-2{fill:#fff;}</style></defs><g id="Layer_2" data-name="Layer 2"><g id="Layer_1-2" data-name="Layer 1"><rect class="cls-1" width="1080" height="1080"/><rect class="cls-2" x="270.73" y="270.73" width="65.28" height="65.28"/><path class="cls-2" d="M342.28,342.28H264.45V264.45h77.83ZM277,329.73h52.72V277H277Z"/><rect class="cls-2" x="433.92" y="270.73" width="65.28" height="65.28"/><path class="cls-2" d="M505.48,342.28H427.65V264.45h77.83ZM440.2,329.73h52.72V277H440.2Z"/><rect class="cls-2" x="597.12" y="270.73" width="65.28" height="65.28"/><path class="cls-2" d="M668.67,342.28H590.84V264.45h77.83Zm-65.28-12.55h52.73V277H603.39Z"/><rect class="cls-2" x="270.73" y="433.92" width="65.28" height="65.28"/><path class="cls-2" d="M342.28,505.48H264.45V427.65h77.83ZM277,492.92h52.72V440.2H277Z"/><rect class="cls-2" x="433.92" y="433.92" width="65.28" height="65.28"/><path class="cls-2" d="M505.48,505.48H427.65V427.65h77.83ZM440.2,492.92h52.72V440.2H440.2Z"/><rect class="cls-2" x="270.73" y="597.12" width="65.28" height="65.28"/><path class="cls-2" d="M342.28,668.67H264.45V590.84h77.83ZM277,656.12h52.72V603.39H277Z"/><circle class="cls-2" cx="792.95" cy="303.37" r="16.32"/><path class="cls-2" d="M793,326a22.6,22.6,0,1,1,22.6-22.59A22.66,22.66,0,0,1,793,326Zm0-32.63a10,10,0,1,0,10,10A10.07,10.07,0,0,0,793,293.33Z"/><circle class="cls-2" cx="792.95" cy="466.56" r="16.32"/><path class="cls-2" d="M793,489.16a22.6,22.6,0,1,1,22.6-22.6A22.67,22.67,0,0,1,793,489.16Zm0-32.64a10,10,0,1,0,10,10A10.07,10.07,0,0,0,793,456.52Z"/><circle class="cls-2" cx="792.95" cy="629.76" r="16.32"/><path class="cls-2" d="M793,652.35a22.6,22.6,0,1,1,22.6-22.59A22.66,22.66,0,0,1,793,652.35Zm0-32.64a10,10,0,1,0,10,10A10.07,10.07,0,0,0,793,619.71Z"/><circle class="cls-2" cx="792.95" cy="792.95" r="16.32"/><path class="cls-2" d="M793,815.55a22.6,22.6,0,1,1,22.6-22.6A22.67,22.67,0,0,1,793,815.55Zm0-32.64a10,10,0,1,0,10,10A10.07,10.07,0,0,0,793,782.91Z"/><circle class="cls-2" cx="629.76" cy="466.56" r="16.32"/><path class="cls-2" d="M629.76,489.16a22.6,22.6,0,1,1,22.59-22.6A22.67,22.67,0,0,1,629.76,489.16Zm0-32.64a10,10,0,1,0,10,10A10.07,10.07,0,0,0,629.76,456.52Z"/><circle class="cls-2" cx="629.76" cy="629.76" r="16.32"/><path class="cls-2" d="M629.76,652.35a22.6,22.6,0,1,1,22.59-22.59A22.66,22.66,0,0,1,629.76,652.35Zm0-32.64a10,10,0,1,0,10,10A10.08,10.08,0,0,0,629.76,619.71Z"/><circle class="cls-2" cx="629.76" cy="792.95" r="16.32"/><path class="cls-2" d="M629.76,815.55A22.6,22.6,0,1,1,652.35,793,22.67,22.67,0,0,1,629.76,815.55Zm0-32.64a10,10,0,1,0,10,10A10.07,10.07,0,0,0,629.76,782.91Z"/><circle class="cls-2" cx="466.56" cy="629.76" r="16.32"/><path class="cls-2" d="M466.56,652.35a22.6,22.6,0,1,1,22.6-22.59A22.66,22.66,0,0,1,466.56,652.35Zm0-32.64a10,10,0,1,0,10.05,10A10.07,10.07,0,0,0,466.56,619.71Z"/><circle class="cls-2" cx="466.56" cy="792.95" r="16.32"/><path class="cls-2" d="M466.56,815.55a22.6,22.6,0,1,1,22.6-22.6A22.66,22.66,0,0,1,466.56,815.55Zm0-32.64a10,10,0,1,0,10.05,10A10.07,10.07,0,0,0,466.56,782.91Z"/><circle class="cls-2" cx="303.37" cy="792.95" r="16.32"/><path class="cls-2" d="M303.37,815.55A22.6,22.6,0,1,1,326,793,22.67,22.67,0,0,1,303.37,815.55Zm0-32.64a10,10,0,1,0,10,10A10.07,10.07,0,0,0,303.37,782.91Z"/></g></g></svg>