<svg width="30" height="30" viewBox="0 0 30 30" fill="none" xmlns="http://www.w3.org/2000/svg">
  <path fill-rule="evenodd" clip-rule="evenodd" d="M4.56293 13.7646C4.46573 13.8568 4.40378 13.9437 4.39148 14.0052C4.3809 14.058 4.3605 14.1087 4.3461 14.1175C4.3098 14.1399 4.31318 14.4524 4.35 14.4751C4.3665 14.4853 4.38 14.5178 4.38 14.5473C4.38 14.5767 4.407 14.6253 4.44 14.6551C4.473 14.685 4.5 14.7253 4.5 14.7447C4.5 14.7641 4.53713 14.7991 4.5825 14.8225C4.62787 14.846 4.69117 14.8887 4.72312 14.9176C4.78815 14.9763 5.14178 14.9939 5.175 14.9401C5.1852 14.9236 5.21865 14.9101 5.2494 14.9101C5.33243 14.9101 5.56853 14.6598 5.59088 14.5481C5.70608 13.9722 5.46218 13.6201 4.94798 13.6201H4.71518L4.56293 13.7646ZM6.78 13.6501C6.78 13.6666 6.75938 13.6801 6.73418 13.6801C6.6747 13.6801 6.42 13.9348 6.42 13.9943C6.42 14.0195 6.4065 14.0401 6.39 14.0401C6.37253 14.0401 6.36 14.1395 6.36 14.2783C6.36 14.4093 6.3735 14.5249 6.39 14.5351C6.4065 14.5453 6.42 14.5744 6.42 14.5998C6.42 14.6702 6.6891 14.9101 6.768 14.9101C6.80565 14.9101 6.8448 14.9236 6.855 14.9401C6.88073 14.9817 28.8493 14.9817 28.875 14.9401C28.8852 14.9236 28.9173 14.9101 28.9464 14.9101C29.1272 14.9101 29.3162 14.5893 29.3174 14.2801C29.3184 14.0164 29.136 13.6801 28.992 13.6801C28.9689 13.6801 28.95 13.6666 28.95 13.6501C28.95 13.6302 25.235 13.6201 17.865 13.6201C10.495 13.6201 6.78 13.6302 6.78 13.6501ZM0.405 16.2301C0.3948 16.2466 0.355125 16.2601 0.316875 16.2601C0.276225 16.2601 0.19575 16.3101 0.1236 16.3801L0 16.5V16.8915C0 17.308 0.047325 17.426 0.2157 17.4291C0.2436 17.4297 0.2748 17.4436 0.285 17.4601C0.30675 17.4954 0.84 17.5013 0.84 17.4663C0.84 17.4532 0.8835 17.4296 0.9366 17.4138C1.1499 17.3505 1.2822 17.0046 1.21417 16.6882C1.15357 16.4061 0.5184 16.0466 0.405 16.2301ZM2.445 16.2301C2.4348 16.2466 2.40023 16.2601 2.3682 16.2601C2.33618 16.2601 2.31 16.2736 2.31 16.2901C2.31 16.3066 2.29035 16.3201 2.26635 16.3201C2.13578 16.3201 1.95623 16.6329 1.95728 16.8585C1.9584 17.1141 2.14418 17.4301 2.29328 17.4301C2.31705 17.4301 2.3448 17.4436 2.355 17.4601C2.3673 17.48 5.1303 17.4901 10.5468 17.4901C15.9756 17.4901 18.72 17.4801 18.72 17.4601C18.72 17.4436 18.7608 17.4301 18.8108 17.4301C18.8789 17.4301 18.9083 17.4122 18.9289 17.358C18.944 17.3184 18.9707 17.2771 18.9881 17.2662C19.0057 17.2554 19.02 17.2203 19.02 17.1883C19.02 17.1563 19.0335 17.1301 19.05 17.1301C19.1088 17.1301 19.0854 16.6584 19.0203 16.5306C18.9565 16.4056 18.7903 16.2601 18.7115 16.2601C18.6851 16.2601 18.6552 16.2466 18.645 16.2301C18.6327 16.2102 15.9003 16.2001 10.545 16.2001C5.1897 16.2001 2.4573 16.2102 2.445 16.2301ZM4.935 18.8101C4.9248 18.8266 4.8708 18.8401 4.815 18.8401C4.7592 18.8401 4.7052 18.8536 4.695 18.8701C4.6848 18.8866 4.65637 18.9001 4.63185 18.9001C4.581 18.9001 4.44 19.0314 4.44 19.0788C4.44 19.096 4.4265 19.1101 4.41 19.1101C4.3935 19.1101 4.38 19.1439 4.38 19.1851C4.38 19.2264 4.3665 19.2601 4.35 19.2601C4.33305 19.2601 4.32 19.3451 4.32 19.4551C4.32 19.5651 4.33305 19.6501 4.35 19.6501C4.3665 19.6501 4.38 19.674 4.38 19.7034C4.38 19.7753 4.6695 20.0701 4.74015 20.0701C4.77113 20.0701 4.8048 20.0836 4.815 20.1001C4.8252 20.1166 4.8927 20.1301 4.965 20.1301C5.0373 20.1301 5.1048 20.1166 5.115 20.1001C5.1252 20.0836 5.15992 20.0701 5.19217 20.0701C5.32695 20.0701 5.56148 19.8552 5.5917 19.7041C5.6526 19.3995 5.5677 18.9929 5.43 18.93C5.40525 18.9187 5.35477 18.8938 5.31787 18.8748C5.28098 18.8557 5.20417 18.8401 5.14717 18.8401C5.09018 18.8401 5.0352 18.8266 5.025 18.8101C5.0148 18.7936 4.99455 18.7801 4.98 18.7801C4.96545 18.7801 4.9452 18.7936 4.935 18.8101ZM6.72 18.8701C6.72 18.8866 6.68835 18.9001 6.64965 18.9001C6.58478 18.9001 6.48 18.9811 6.48 19.0312C6.48 19.043 6.45495 19.0795 6.42435 19.1124C6.32422 19.2198 6.34973 19.7701 6.4548 19.7701C6.46868 19.7701 6.48 19.791 6.48 19.8165C6.48 19.8765 6.61365 20.0101 6.67365 20.0101C6.69915 20.0101 6.72 20.0236 6.72 20.0401C6.72 20.0566 6.7605 20.0701 6.81 20.0701C6.8595 20.0701 6.9 20.0836 6.9 20.1001C6.9 20.1201 10.15 20.1301 16.59 20.1301C23.03 20.1301 26.28 20.1201 26.28 20.1001C26.28 20.0836 26.3205 20.0701 26.37 20.0701C26.4195 20.0701 26.46 20.0589 26.46 20.0452C26.46 20.0315 26.4926 20.0028 26.5323 19.9815C26.7497 19.8653 26.8807 19.3963 26.7595 19.1688C26.6874 19.0336 26.5656 18.9001 26.5143 18.9001C26.4864 18.9001 26.4552 18.8866 26.445 18.8701C26.4327 18.8502 23.1097 18.8401 16.5732 18.8401C10.0244 18.8401 6.72 18.8502 6.72 18.8701ZM1.5 21.3901C1.5 21.4066 1.473 21.4201 1.44 21.4201C1.407 21.4201 1.38 21.4336 1.38 21.4501C1.38 21.4666 1.35795 21.4801 1.33103 21.4801C1.27583 21.4801 1.18095 21.5784 1.15388 21.6637C1.14405 21.6947 1.12335 21.7201 1.10798 21.7201C1.0926 21.7201 1.08 21.7463 1.08 21.7783C1.08 21.8103 1.0665 21.8449 1.05 21.8551C0.986625 21.8943 1.04858 22.3501 1.11728 22.3501C1.1298 22.3501 1.14 22.371 1.14 22.3965C1.14 22.5843 1.8399 22.834 1.935 22.6801C1.9452 22.6636 1.97347 22.6501 1.99777 22.6501C2.21325 22.6501 2.5128 21.9019 2.34 21.7951C2.3235 21.7849 2.31 21.7568 2.31 21.7326C2.31 21.6753 2.05478 21.4201 1.99755 21.4201C1.97333 21.4201 1.9452 21.4066 1.935 21.3901C1.9248 21.3736 1.82273 21.3601 1.7082 21.3601C1.5894 21.3601 1.5 21.373 1.5 21.3901ZM3.54 21.3901C3.54 21.4066 3.5112 21.4201 3.47603 21.4201C3.39285 21.4201 3.15 21.663 3.15 21.7461C3.15 21.7813 3.1365 21.8101 3.12 21.8101C3.10267 21.8101 3.09 21.9045 3.09 22.0333C3.09 22.1561 3.1035 22.2649 3.12 22.2751C3.1365 22.2853 3.15 22.3158 3.15 22.3429C3.15 22.4092 3.40852 22.6501 3.47978 22.6501C3.51098 22.6501 3.5448 22.6636 3.555 22.6801C3.56723 22.6998 4.9194 22.7101 7.51395 22.7101H11.4543L11.5847 22.6426C11.6564 22.6055 11.7589 22.5286 11.8125 22.4718L11.91 22.3684V22.034V21.6996L11.778 21.5599C11.7053 21.483 11.6251 21.4201 11.5997 21.4201C11.5743 21.4201 11.5452 21.4066 11.535 21.3901C11.5228 21.3704 10.1547 21.3601 7.5282 21.3601C4.8894 21.3601 3.54 21.3702 3.54 21.3901ZM13.2966 21.4221C13.1644 21.4997 12.99 21.6772 12.99 21.7341C12.99 21.7594 12.9765 21.7801 12.96 21.7801C12.9424 21.7801 12.93 21.8851 12.93 22.0351C12.93 22.1851 12.9424 22.2901 12.96 22.2901C12.9765 22.2901 12.99 22.3077 12.99 22.3293C12.99 22.3882 13.1729 22.5759 13.2998 22.6472L13.4118 22.7101H21.4931H29.5743L29.7047 22.6426C29.9705 22.5049 29.999 22.4459 29.9995 22.0308C30.0001 21.6223 29.9739 21.5655 29.7194 21.4225L29.6082 21.3601L21.5016 21.3622C13.556 21.3643 13.3931 21.3655 13.2966 21.4221ZM14.58 23.9701C14.58 23.9866 14.5354 24.0001 14.4809 24.0001C14.3708 24.0001 14.16 24.1653 14.16 24.2517C14.16 24.2783 14.1465 24.3001 14.13 24.3001C14.1135 24.3001 14.1 24.3263 14.1 24.3583C14.1 24.3903 14.0865 24.4249 14.07 24.4351C14.0535 24.4453 14.04 24.5339 14.04 24.6319C14.04 24.7307 14.0534 24.8101 14.07 24.8101C14.0865 24.8101 14.1 24.8373 14.1 24.8705C14.1 25.0517 14.3278 25.257 14.5814 25.3045C14.7973 25.3449 15.21 25.1663 15.21 25.0326C15.21 25.0092 15.2213 24.9901 15.2352 24.9901C15.249 24.9901 15.276 24.9558 15.2952 24.9137C15.3381 24.8196 15.3421 24.3601 15.3 24.3601C15.2835 24.3601 15.27 24.3425 15.27 24.321C15.27 24.2715 15.0783 24.0601 15.0335 24.0601C15.0151 24.0601 15 24.0466 15 24.0301C15 24.0136 14.9671 24.0001 14.9268 24.0001C14.8865 24.0001 14.8452 23.9866 14.835 23.9701C14.8248 23.9536 14.7632 23.9401 14.6982 23.9401C14.6332 23.9401 14.58 23.9536 14.58 23.9701ZM16.575 23.9701C16.5648 23.9866 16.5302 24.0001 16.4982 24.0001C16.4662 24.0001 16.44 24.0136 16.44 24.0301C16.44 24.0466 16.4193 24.0601 16.394 24.0601C16.3687 24.0601 16.3012 24.1069 16.244 24.1641C16.1868 24.2213 16.14 24.2888 16.14 24.3141C16.14 24.3394 16.1265 24.3601 16.11 24.3601C16.0661 24.3601 16.0724 24.8276 16.1175 24.9069C16.1812 25.019 16.3296 25.1628 16.4492 25.2284L16.5634 25.291H21.5872C24.3503 25.291 26.6467 25.282 26.6905 25.2711C26.8079 25.2416 27.03 25.0443 27.03 24.9695C27.03 24.9478 27.0435 24.9301 27.06 24.9301C27.0765 24.9301 27.09 24.8904 27.09 24.8419C27.09 24.7934 27.1035 24.7453 27.12 24.7351C27.1365 24.7249 27.15 24.6709 27.15 24.6151C27.15 24.5593 27.1365 24.5053 27.12 24.4951C27.1035 24.4849 27.09 24.4503 27.09 24.4183C27.09 24.3863 27.0765 24.3601 27.06 24.3601C27.0435 24.3601 27.03 24.3361 27.03 24.3067C27.03 24.2774 27.003 24.2339 26.97 24.2101C26.937 24.1863 26.91 24.1517 26.91 24.1332C26.91 24.0708 26.8011 24.0001 26.7052 24.0001C26.6528 24.0001 26.61 23.9866 26.61 23.9701C26.61 23.9502 24.9206 23.9401 21.6018 23.9401C18.2953 23.9401 16.5872 23.9503 16.575 23.9701ZM8.46 26.6101C8.46 26.6266 8.44245 26.6401 8.42107 26.6401C8.36618 26.6401 8.15242 26.8517 8.1075 26.9505C8.06265 27.049 8.05658 27.4801 8.1 27.4801C8.1165 27.4801 8.13 27.5064 8.13 27.5386C8.13 27.5904 8.29725 27.7501 8.35155 27.7501C8.3631 27.7501 8.4015 27.7771 8.4369 27.8101C8.5254 27.8925 8.92807 27.8978 9.01688 27.8176C9.04883 27.7887 9.11183 27.7461 9.15683 27.7229C9.34493 27.6258 9.45675 27.1855 9.35332 26.949C9.3069 26.8429 9.1044 26.6401 9.045 26.6401C9.02025 26.6401 9 26.6266 9 26.6101C9 26.5923 8.88998 26.5801 8.73 26.5801C8.57003 26.5801 8.46 26.5923 8.46 26.6101ZM10.47 26.6101C10.47 26.6266 10.4504 26.6401 10.4264 26.6401C10.3698 26.6401 10.23 26.7799 10.23 26.8365C10.23 26.8605 10.2165 26.8801 10.2 26.8801C10.1835 26.8801 10.17 26.9206 10.17 26.9701C10.17 27.0196 10.1565 27.0601 10.14 27.0601C10.1235 27.0601 10.11 27.12 10.11 27.1933C10.11 27.2666 10.1235 27.3349 10.14 27.3451C10.1565 27.3553 10.17 27.3883 10.17 27.4185C10.17 27.5306 10.3289 27.7501 10.41 27.7501C10.4279 27.7501 10.4715 27.7771 10.5069 27.8101C10.5802 27.8784 20.7 27.9081 20.7 27.8401C20.7 27.8236 20.727 27.8101 20.76 27.8101C20.793 27.8101 20.82 27.7999 20.82 27.7875C20.82 27.7749 20.8607 27.7467 20.9104 27.7248C21.0762 27.6513 21.18 27.4558 21.18 27.2168C21.18 27.011 21.1198 26.8201 21.0548 26.8201C21.038 26.8201 20.9863 26.7796 20.94 26.7301C20.8937 26.6806 20.8343 26.6401 20.808 26.6401C20.7816 26.6401 20.76 26.6266 20.76 26.6101C20.76 26.5902 19.025 26.5801 15.615 26.5801C12.205 26.5801 10.47 26.5902 10.47 26.6101Z" fill="#E4147C" />
  <path fill-rule="evenodd" clip-rule="evenodd" d="M16.9309 2.16051C16.9167 2.17431 16.8173 2.18886 16.7101 2.19276C16.6028 2.19666 16.5083 2.20979 16.5001 2.22201C16.4918 2.23424 16.4243 2.24789 16.3501 2.25239C16.2758 2.25681 16.1982 2.27324 16.1776 2.28884C16.1524 2.30789 16.1401 2.30496 16.1401 2.27991C16.1401 2.25201 16.1299 2.25104 16.0997 2.27609C16.0775 2.29446 15.9796 2.31486 15.8822 2.32131C15.6537 2.33646 15.5101 2.36961 15.5101 2.40734C15.5101 2.42376 15.4872 2.41874 15.4593 2.39609C15.4248 2.36811 15.4158 2.36691 15.4311 2.39241C15.454 2.43059 15.4453 2.43374 15.2941 2.44229C15.2495 2.44484 15.2034 2.45661 15.1915 2.46839C15.1798 2.48024 15.1468 2.48991 15.1185 2.48991C15.0901 2.48991 15.0292 2.50949 14.9831 2.53341C14.9371 2.55726 14.8882 2.57001 14.8747 2.56161C14.8612 2.55321 14.8501 2.56064 14.8501 2.57811C14.8501 2.59559 14.8256 2.60991 14.7957 2.60991C14.7658 2.60991 14.6854 2.63691 14.6171 2.66991C14.5489 2.70291 14.4721 2.72991 14.4465 2.72991C14.421 2.72991 14.4001 2.74341 14.4001 2.75991C14.4001 2.77641 14.3797 2.78991 14.3547 2.78991C14.3067 2.78991 14.1865 2.84954 14.1584 2.88726C14.1492 2.89956 14.1063 2.91254 14.063 2.91614C14.0198 2.91974 13.9909 2.93331 13.999 2.94629C14.0071 2.95926 13.9791 2.96991 13.9369 2.96991C13.8946 2.96991 13.8601 2.98011 13.8601 2.99256C13.8601 3.02819 13.6723 3.10229 13.5976 3.09614C13.5604 3.09306 13.5301 3.10394 13.5301 3.12021C13.5301 3.13656 13.5092 3.14991 13.4838 3.14991C13.4369 3.14991 13.3927 3.17991 13.2909 3.28064C13.26 3.31124 13.2215 3.32819 13.2055 3.31829C13.1895 3.30839 13.168 3.32181 13.158 3.34821C13.1475 3.37551 13.1203 3.38879 13.0948 3.37896C13.0702 3.36951 13.0501 3.37484 13.0501 3.39089C13.0501 3.40686 13.0305 3.41991 13.0066 3.41991C12.9826 3.41991 12.9523 3.43746 12.9391 3.45891C12.9259 3.48036 12.8506 3.53511 12.7717 3.58064C12.6929 3.62616 12.612 3.68961 12.592 3.72164C12.572 3.75374 12.5349 3.77991 12.5095 3.77991C12.4841 3.77991 12.4438 3.80691 12.4201 3.83991C12.3963 3.87291 12.346 3.89991 12.3085 3.89991C12.2708 3.89991 12.2401 3.91011 12.2401 3.92256C12.2401 3.93509 12.1995 3.96321 12.1499 3.98519C12.1003 4.00716 12.0661 4.03536 12.0739 4.04796C12.0817 4.06056 12.0547 4.08869 12.014 4.11044C11.9734 4.13226 11.9401 4.16129 11.9401 4.17501C11.9401 4.18866 11.9194 4.19991 11.8941 4.19991C11.8689 4.19991 11.8392 4.22354 11.8282 4.25241C11.8028 4.31894 11.591 4.51761 11.4826 4.57656C11.4372 4.60124 11.4001 4.63544 11.4001 4.65246C11.4001 4.66949 11.389 4.67661 11.3754 4.66821C11.3516 4.65351 11.2696 4.73031 11.2576 4.77854C11.2544 4.79151 11.194 4.84701 11.1234 4.90191C11.0528 4.95674 10.9984 5.01704 11.0026 5.03579C11.0067 5.05454 10.9876 5.06991 10.96 5.06991C10.9326 5.06991 10.918 5.07779 10.9276 5.08739C10.9461 5.10591 10.9253 5.13426 10.7558 5.32199C10.6976 5.38641 10.6501 5.44731 10.6501 5.45744C10.6501 5.46749 10.6199 5.48901 10.5831 5.50529C10.5463 5.52156 10.5011 5.56536 10.4827 5.60264C10.4644 5.63984 10.4034 5.72084 10.3472 5.78256C10.291 5.84429 10.2434 5.90496 10.2413 5.91734C10.2393 5.92979 10.2359 5.96099 10.2338 5.98671C10.2317 6.01244 10.2166 6.02511 10.2001 6.01491C10.1836 6.00471 10.1694 6.02076 10.1686 6.05061C10.1678 6.08046 10.114 6.15891 10.0492 6.22491C9.98429 6.29091 9.91582 6.38204 9.89699 6.42741C9.87817 6.47279 9.85252 6.50991 9.83992 6.50991C9.82732 6.50991 9.80887 6.53354 9.79889 6.56241C9.78892 6.59129 9.75344 6.65541 9.72007 6.70491C9.68669 6.75441 9.65122 6.81854 9.64124 6.84741C9.63127 6.87629 9.61034 6.89991 9.59482 6.89991C9.57922 6.89991 9.57419 6.91229 9.58349 6.92736C9.59279 6.94244 9.58612 6.95954 9.56864 6.96539C9.54142 6.97446 9.52147 7.02831 9.51239 7.11741C9.51112 7.12979 9.48982 7.13991 9.46507 7.13991C9.42622 7.13991 9.40769 7.22714 9.42262 7.33904C9.42404 7.34961 9.41392 7.36649 9.40012 7.37654C9.36029 7.40571 9.30007 7.52481 9.30007 7.57454C9.30007 7.59951 9.28657 7.61991 9.27007 7.61991C9.25357 7.61991 9.24007 7.64751 9.24007 7.68119C9.24007 7.71486 9.21307 7.77141 9.18007 7.80681C9.14707 7.84221 9.12007 7.89569 9.12007 7.92554C9.12007 7.95546 9.10657 7.97991 9.09007 7.97991C9.07357 7.97991 9.06007 8.01366 9.06007 8.05491C9.06007 8.09616 9.04657 8.12991 9.03007 8.12991C9.01357 8.12991 9.00007 8.16449 9.00007 8.20671C9.00007 8.25959 8.98844 8.27676 8.96257 8.26184C8.94194 8.24999 8.93444 8.25074 8.94599 8.26349C8.96429 8.28381 8.93332 8.39084 8.84999 8.59491C8.80244 8.71139 8.78092 8.77559 8.76967 8.83424C8.76344 8.86694 8.74522 8.90676 8.72924 8.92274C8.69144 8.96054 8.69137 9.00884 8.72917 8.98551C8.74514 8.97561 8.73247 9.02504 8.70097 9.09539C8.65964 9.18764 8.65259 9.23384 8.67554 9.26159C8.69309 9.28266 8.69504 9.29991 8.67989 9.29991C8.66474 9.29991 8.64892 9.35054 8.64479 9.41234C8.64059 9.47421 8.62432 9.53766 8.60864 9.55334C8.59289 9.56909 8.58007 9.64671 8.58007 9.72591C8.58007 9.80511 8.56889 9.86991 8.55517 9.86991C8.54152 9.86991 8.52727 9.94754 8.52352 10.0424C8.51977 10.1373 8.50394 10.2194 8.48842 10.2249C8.47282 10.2304 8.46007 10.3275 8.46007 10.4407C8.46007 10.5538 8.44867 10.6534 8.43472 10.6621C8.36062 10.7078 8.40269 11.8499 8.47844 11.8499C8.50132 11.8499 8.52007 11.8747 8.52007 11.9048C8.52007 11.935 8.55382 11.9779 8.59507 11.9999C8.63632 12.022 8.67007 12.0513 8.67007 12.065C8.67007 12.0787 12.7876 12.0899 17.8201 12.0899C23.9001 12.0899 26.9701 12.0799 26.9701 12.0599C26.9701 12.0434 26.9941 12.0299 27.0235 12.0299C27.0528 12.0299 27.0963 12.0029 27.1201 11.9699C27.1438 11.9369 27.1806 11.9099 27.2017 11.9099C27.2228 11.9099 27.2401 11.893 27.2402 11.8724C27.2404 11.8518 27.2584 11.8004 27.2804 11.7583C27.3234 11.6759 27.3333 11.1232 27.2926 11.0824C27.2802 11.0701 27.2701 10.9212 27.2701 10.7517C27.2701 10.5786 27.2569 10.4353 27.2401 10.4249C27.2236 10.4147 27.2101 10.3261 27.2101 10.2281C27.2101 10.1293 27.1967 10.0499 27.1801 10.0499C27.1636 10.0499 27.1501 9.98324 27.1501 9.90171C27.1501 9.82019 27.1366 9.74511 27.1201 9.73491C27.1036 9.72471 27.0901 9.65721 27.0901 9.58491C27.0901 9.51261 27.0766 9.44511 27.0601 9.43491C27.0436 9.42471 27.0301 9.37664 27.0301 9.32811C27.0301 9.27959 27.0166 9.23991 27.0001 9.23991C26.9836 9.23991 26.9701 9.20024 26.9701 9.15171C26.9701 9.10319 26.9566 9.05511 26.9401 9.04491C26.9236 9.03471 26.9101 8.94726 26.9101 8.85066C26.9101 8.75399 26.8994 8.67044 26.8864 8.66489C26.8733 8.65941 26.8404 8.58741 26.8132 8.50491C26.7447 8.29656 26.6878 8.14769 26.6701 8.12991C26.6557 8.11551 26.6401 8.06399 26.6281 7.99041C26.625 7.97151 26.6062 7.93649 26.5865 7.91271C26.5667 7.88886 26.5594 7.86051 26.5703 7.84964C26.5812 7.83876 26.5743 7.82991 26.5551 7.82991C26.5358 7.82991 26.5196 7.80629 26.5191 7.77741C26.5186 7.74854 26.4988 7.69926 26.4751 7.66799C26.4514 7.63671 26.4391 7.59959 26.4478 7.58549C26.4565 7.57139 26.4514 7.55991 26.4367 7.55991C26.4218 7.55991 26.3919 7.50614 26.3702 7.44036C26.3485 7.37459 26.3059 7.29824 26.2754 7.27071C26.245 7.24319 26.2201 7.19999 26.2201 7.17471C26.2201 7.14944 26.1908 7.09761 26.155 7.05959C26.1193 7.02156 26.0881 6.96666 26.0857 6.93764C26.0794 6.86211 25.9782 6.65991 25.9466 6.65991C25.932 6.65991 25.9201 6.63291 25.9201 6.59991C25.9201 6.56691 25.9099 6.53991 25.8974 6.53991C25.8849 6.53991 25.8568 6.49934 25.8348 6.44976C25.8128 6.40011 25.7825 6.36719 25.7674 6.37649C25.7524 6.38586 25.7401 6.36659 25.7401 6.33374C25.7401 6.30029 25.7136 6.26556 25.6801 6.25491C25.6471 6.24441 25.6201 6.21839 25.6201 6.19694C25.6201 6.17556 25.5798 6.11234 25.5305 6.05646C25.4813 6.00059 25.4408 5.94479 25.4405 5.93241C25.4403 5.92004 25.4131 5.88291 25.3801 5.84991C25.3471 5.81691 25.3201 5.76929 25.3201 5.74409C25.3201 5.69571 25.0896 5.44994 25.0175 5.42144C24.994 5.41214 24.9906 5.40359 25.0099 5.40231C25.0291 5.40096 24.9245 5.28014 24.7774 5.13381C24.6304 4.98741 24.5101 4.85856 24.5101 4.84746C24.5101 4.81649 24.3666 4.67991 24.3341 4.67991C24.3183 4.67991 24.2713 4.63941 24.2296 4.58991C24.188 4.54041 24.1426 4.49991 24.1286 4.49991C24.1147 4.49991 24.0838 4.47291 24.0601 4.43991C24.0363 4.40691 24.0052 4.37991 23.9911 4.37991C23.9572 4.37991 23.7301 4.14291 23.7301 4.10744C23.7301 4.09229 23.7074 4.07991 23.6797 4.07991C23.6521 4.07991 23.5917 4.03604 23.5456 3.98241C23.4754 3.90066 23.4569 3.89219 23.4314 3.92991C23.4147 3.95466 23.4007 3.96029 23.4005 3.94251C23.4003 3.92466 23.3632 3.89091 23.3181 3.86751C23.273 3.84404 23.1996 3.79056 23.155 3.74849C23.1104 3.70649 23.0359 3.65256 22.9895 3.62871C22.9431 3.60486 22.8832 3.56159 22.8565 3.53264C22.8298 3.50361 22.7927 3.47991 22.774 3.47991C22.7554 3.47991 22.7401 3.46949 22.7401 3.45674C22.7401 3.42816 22.5275 3.31206 22.4942 3.32241C22.4809 3.32654 22.4701 3.31776 22.4701 3.30284C22.4701 3.28799 22.429 3.26144 22.3787 3.24396C22.3285 3.22641 22.2488 3.18464 22.2016 3.15104C22.1544 3.11744 22.0774 3.08961 22.0304 3.08924C21.9835 3.08886 21.9113 3.06216 21.8701 3.02991C21.8288 2.99766 21.7714 2.97096 21.7426 2.97059C21.7137 2.97021 21.6901 2.95859 21.6901 2.94471C21.6901 2.93084 21.6327 2.90136 21.5626 2.87909C21.4924 2.85689 21.3992 2.81421 21.3554 2.78429C21.3116 2.75436 21.2374 2.72886 21.1904 2.72751C21.1435 2.72624 21.1227 2.71814 21.1442 2.70951C21.1657 2.70089 21.0442 2.64771 20.8742 2.59139C20.7042 2.53506 20.5381 2.47559 20.5051 2.45916C20.4721 2.44274 20.4079 2.42646 20.3626 2.42309C20.3172 2.41964 20.2801 2.40516 20.2801 2.39084C20.2801 2.37659 20.2632 2.37081 20.2426 2.37809C20.2219 2.38536 20.1738 2.37974 20.1356 2.36556C20.0974 2.35146 19.9627 2.33234 19.8364 2.32311C19.7102 2.31389 19.5929 2.29491 19.576 2.28104C19.5589 2.26716 19.4708 2.24819 19.3801 2.23889C19.0157 2.20146 18.7922 2.16876 18.7376 2.14484C18.6925 2.12511 18.6857 2.12879 18.7059 2.16231C18.7264 2.19621 18.7228 2.19786 18.6883 2.17049C18.637 2.12961 16.9722 2.12016 16.9309 2.16051Z" fill="#54CCCB" />
  <path fill-rule="evenodd" clip-rule="evenodd" d="M11.1362 4.84581C11.0866 4.90214 11.1277 4.90086 11.2031 4.84371C11.2441 4.81274 11.2486 4.80006 11.2181 4.80081C11.1943 4.80149 11.1575 4.82174 11.1362 4.84581Z" fill="#54D0A4" />
</svg>
  