<svg width="30" height="30" viewBox="0 0 30 30" fill="none" xmlns="http://www.w3.org/2000/svg">
  <path d="M15 30C23.2843 30 30 23.2843 30 15C30 6.71573 23.2843 0 15 0C6.71573 0 0 6.71573 0 15C0 23.2843 6.71573 30 15 30Z" fill="#6F41D8" />
  <path d="M19.7738 11.8997C19.4279 11.6981 18.9788 11.6981 18.5982 11.8997L15.8991 13.4503L14.0663 14.4609L11.3672 16.0106C11.0213 16.2131 10.5722 16.2131 10.1916 16.0106L8.04662 14.7975C7.70068 14.5959 7.45881 14.2256 7.45881 13.8206V11.4281C7.45881 11.0241 7.66599 10.6537 8.04662 10.4512L10.156 9.27188C10.5029 9.06938 10.9529 9.06938 11.3335 9.27188L13.4429 10.4512C13.7897 10.6537 14.0316 11.0241 14.0316 11.4281V12.9787L15.8644 11.9334V10.3837C15.8665 10.1825 15.8126 9.98458 15.7088 9.81211C15.605 9.63964 15.4554 9.49935 15.2766 9.40688L11.3672 7.18313C11.0213 6.98062 10.5722 6.98062 10.1916 7.18313L6.21287 9.40688C6.03408 9.49935 5.88447 9.63964 5.78069 9.81211C5.67691 9.98458 5.62303 10.1825 5.62506 10.3837V14.865C5.62506 15.27 5.83224 15.6403 6.21287 15.8428L10.1916 18.0666C10.5376 18.2681 10.9876 18.2681 11.3672 18.0666L14.0663 16.5497L15.8991 15.5053L18.5982 13.9894C18.9441 13.7869 19.3932 13.7869 19.7738 13.9894L21.8841 15.1688C22.231 15.3703 22.4719 15.7406 22.4719 16.1456V18.5381C22.4719 18.9422 22.2657 19.3125 21.8841 19.515L19.7747 20.7281C19.4279 20.9306 18.9779 20.9306 18.5982 20.7281L16.4879 19.5487C16.141 19.3462 15.8991 18.9759 15.8991 18.5719V17.0212L14.0663 18.0666V19.6163C14.0663 20.0203 14.2735 20.3916 14.6541 20.5931L18.6329 22.8169C18.9788 23.0194 19.4279 23.0194 19.8085 22.8169L23.7872 20.5931C24.1332 20.3916 24.3751 20.0212 24.3751 19.6163V15.135C24.3771 14.9337 24.3232 14.7358 24.2194 14.5634C24.1156 14.3909 23.966 14.2506 23.7872 14.1581L19.7747 11.8997H19.7738Z" fill="white" />
</svg>
  