<svg width="195" height="195" viewBox="0 0 195 195" fill="none" xmlns="http://www.w3.org/2000/svg">
<g clip-path="url(#clip0_2_910)">
<rect width="195" height="195" rx="97.5" fill="#F3E4CD"/>
<path fill-rule="evenodd" clip-rule="evenodd" d="M99.1032 196C127.145 196 152.432 184.258 170.28 165.442L168.513 163.5C161.533 155.828 149.691 155.171 141.905 162.024L138.399 165.111C122.007 179.54 97.1759 178.483 81.9577 162.962C74.6985 155.559 62.8385 155.295 55.34 162.303L40.2403 176.414C56.6233 188.71 77.0084 196 99.1032 196ZM127.37 145.51C143.779 131.066 168.542 132.082 183.719 147.565C192.163 133.153 197 116.389 197 98.5C197 77.4405 190.296 57.9404 178.898 42.0012C174.87 42.2735 170.898 43.8264 167.638 46.6959L164.132 49.7826C147.739 64.2116 122.909 63.1549 107.691 47.6341C100.431 40.2306 88.5714 39.9671 81.0729 46.9747L58.2038 68.3463L43.1826 52.2726L66.0517 30.901C82.3542 15.666 107.851 16.3746 123.399 32.2317C130.504 39.4772 142.055 39.9066 149.596 33.2689L153.102 30.1821C155.953 27.6728 159.056 25.63 162.317 24.0487C145.261 9.67006 123.199 1 99.1032 1C50.2966 1 9.83201 36.5711 2.41998 83.1029C17.6996 76.142 36.305 79.0836 48.6945 91.7195L50.0222 93.0736C56.7817 99.9675 67.6366 100.696 75.2566 94.767L90.8461 82.6371C106.302 70.6115 128.104 71.1943 142.894 84.0285L169.709 107.296L155.291 123.912L128.476 100.645C121.622 94.6975 111.518 94.4274 104.356 100L88.7666 112.13C72.3235 124.924 48.8997 123.352 34.3135 108.476L32.9857 107.122C25.7635 99.756 13.9832 99.4987 6.44624 106.542L1.96851 110.727C4.37142 129.855 12.3383 147.262 24.2048 161.288L40.3188 146.229C56.6213 130.994 82.1186 131.703 97.6665 147.56C104.771 154.805 116.322 155.235 123.863 148.597L127.37 145.51Z" fill="url(#paint0_linear_2_910)"/>
</g>
<defs>
<linearGradient id="paint0_linear_2_910" x1="99.4843" y1="1" x2="137.812" y2="196.002" gradientUnits="userSpaceOnUse">
<stop stop-color="#8F305D"/>
<stop offset="1" stop-color="#E73D3E"/>
</linearGradient>
<clipPath id="clip0_2_910">
<rect width="195" height="195" rx="97.5" fill="white"/>
</clipPath>
</defs>
</svg>
