<?xml version="1.0" encoding="UTF-8" standalone="no"?>
<!-- Created with Inkscape (http://www.inkscape.org/) -->

<svg
   version="1.1"
   id="svg2"
   xml:space="preserve"
   width="1821.3333"
   height="1024"
   viewBox="0 0 1821.3333 1024"
   sodipodi:docname="1Aa_Umee_Brand Icon Full Color.ai"
   xmlns:inkscape="http://www.inkscape.org/namespaces/inkscape"
   xmlns:sodipodi="http://sodipodi.sourceforge.net/DTD/sodipodi-0.dtd"
   xmlns="http://www.w3.org/2000/svg"
   xmlns:svg="http://www.w3.org/2000/svg"><defs
     id="defs6"><linearGradient
       x1="0"
       y1="0"
       x2="1"
       y2="0"
       gradientUnits="userSpaceOnUse"
       gradientTransform="matrix(638.6991,333.97626,333.97626,-638.6991,394.5159,292.20102)"
       spreadMethod="pad"
       id="linearGradient32"><stop
         style="stop-opacity:1;stop-color:#ffa2ff"
         offset="0"
         id="stop22" /><stop
         style="stop-opacity:1;stop-color:#d7b3ff"
         offset="0.28555162"
         id="stop24" /><stop
         style="stop-opacity:1;stop-color:#d7b3ff"
         offset="0.367148"
         id="stop26" /><stop
         style="stop-opacity:1;stop-color:#00ffe5"
         offset="0.889732"
         id="stop28" /><stop
         style="stop-opacity:1;stop-color:#00ffe5"
         offset="1"
         id="stop30" /></linearGradient><clipPath
       clipPathUnits="userSpaceOnUse"
       id="clipPath42"><path
         d="M 433.184,591.666 V 436.608 l 0.048,6.151 c 1.037,-132.504 112.484,-245.77 249.86,-245.77 v 0 c 137.376,0 248.823,107.116 249.86,239.619 v 0 l 0.048,6.151 v 148.907 c 0,0 -34.657,16.907 -74.083,-23.411 v 0 C 833.602,542.37 813.365,449.38 759.17,448.542 v 0 c -72.374,-1.12 -121.621,95.05 -180.506,130.985 v 0 c -26.137,15.95 -56.335,20.537 -82.417,20.537 v 0 c -35.298,0.001 -63.063,-8.398 -63.063,-8.398"
         id="path40" /></clipPath><linearGradient
       x1="0"
       y1="0"
       x2="1"
       y2="0"
       gradientUnits="userSpaceOnUse"
       gradientTransform="matrix(65.820137,241.3405,241.3405,-65.820137,655.13531,396.87308)"
       spreadMethod="pad"
       id="linearGradient60"><stop
         style="stop-opacity:0.29999237;stop-color:#ffffff"
         offset="0"
         id="stop52" /><stop
         style="stop-opacity:0;stop-color:#ffffff"
         offset="0.67421972"
         id="stop54" /><stop
         style="stop-opacity:0;stop-color:#ffffff"
         offset="0.866878"
         id="stop56" /><stop
         style="stop-opacity:0;stop-color:#ffffff"
         offset="1"
         id="stop58" /></linearGradient><mask
       maskUnits="userSpaceOnUse"
       x="0"
       y="0"
       width="1"
       height="1"
       id="mask62"><g
         id="g72"><g
           id="g70"><g
             id="g68"><g
               id="g66"><path
                 d="M -32768,32767 H 32767 V -32768 H -32768 Z"
                 style="fill:url(#linearGradient60);stroke:none"
                 id="path64" /></g></g></g></g></mask><linearGradient
       x1="0"
       y1="0"
       x2="1"
       y2="0"
       gradientUnits="userSpaceOnUse"
       gradientTransform="matrix(65.820137,241.3405,241.3405,-65.820137,655.13531,396.87308)"
       spreadMethod="pad"
       id="linearGradient86"><stop
         style="stop-opacity:1;stop-color:#16173e"
         offset="0"
         id="stop78" /><stop
         style="stop-opacity:1;stop-color:#16173e"
         offset="0.67421972"
         id="stop80" /><stop
         style="stop-opacity:1;stop-color:#16173e"
         offset="0.866878"
         id="stop82" /><stop
         style="stop-opacity:1;stop-color:#16173e"
         offset="1"
         id="stop84" /></linearGradient><linearGradient
       x1="0"
       y1="0"
       x2="1"
       y2="0"
       gradientUnits="userSpaceOnUse"
       gradientTransform="matrix(572.87897,253.52942,253.52942,-572.87897,415.69821,274.0578)"
       spreadMethod="pad"
       id="linearGradient112"><stop
         style="stop-opacity:1;stop-color:#ffa2ff"
         offset="0"
         id="stop102" /><stop
         style="stop-opacity:1;stop-color:#d7b3ff"
         offset="0.28555162"
         id="stop104" /><stop
         style="stop-opacity:1;stop-color:#d7b3ff"
         offset="0.367148"
         id="stop106" /><stop
         style="stop-opacity:1;stop-color:#00ffe5"
         offset="0.889732"
         id="stop108" /><stop
         style="stop-opacity:1;stop-color:#00ffe5"
         offset="1"
         id="stop110" /></linearGradient><clipPath
       clipPathUnits="userSpaceOnUse"
       id="clipPath122"><path
         d="M 433,531.84 V 421.312 l 0.048,6.58 C 434.085,286.152 545.574,164.993 683,164.993 v 0 c 137.427,0 248.915,114.58 249.952,256.319 v 0 l 0.048,6.58 v 101.12 c -14.108,-2.351 -31.476,-9.237 -49.817,-26.16 v 0 C 854.791,476.655 832.095,382.549 771.313,381.702 v 0 c -81.17,-1.133 -136.403,96.191 -202.444,132.556 v 0 c -29.312,16.141 -63.164,20.782 -92.406,20.783 v 0 c -16.504,0 -31.537,-1.478 -43.463,-3.201"
         id="path120" /></clipPath><linearGradient
       x1="0"
       y1="0"
       x2="1"
       y2="0"
       gradientUnits="userSpaceOnUse"
       gradientTransform="matrix(87.760185,180.39594,180.39594,-87.760185,625.69867,329.12411)"
       spreadMethod="pad"
       id="linearGradient140"><stop
         style="stop-opacity:0.29999237;stop-color:#ffffff"
         offset="0"
         id="stop132" /><stop
         style="stop-opacity:0;stop-color:#ffffff"
         offset="0.67421972"
         id="stop134" /><stop
         style="stop-opacity:0;stop-color:#ffffff"
         offset="0.866878"
         id="stop136" /><stop
         style="stop-opacity:0;stop-color:#ffffff"
         offset="1"
         id="stop138" /></linearGradient><mask
       maskUnits="userSpaceOnUse"
       x="0"
       y="0"
       width="1"
       height="1"
       id="mask142"><g
         id="g152"><g
           id="g150"><g
             id="g148"><g
               id="g146"><path
                 d="M -32768,32767 H 32767 V -32768 H -32768 Z"
                 style="fill:url(#linearGradient140);stroke:none"
                 id="path144" /></g></g></g></g></mask><linearGradient
       x1="0"
       y1="0"
       x2="1"
       y2="0"
       gradientUnits="userSpaceOnUse"
       gradientTransform="matrix(87.760185,180.39594,180.39594,-87.760185,625.69867,329.12411)"
       spreadMethod="pad"
       id="linearGradient166"><stop
         style="stop-opacity:1;stop-color:#16173e"
         offset="0"
         id="stop158" /><stop
         style="stop-opacity:1;stop-color:#16173e"
         offset="0.67421972"
         id="stop160" /><stop
         style="stop-opacity:1;stop-color:#16173e"
         offset="0.866878"
         id="stop162" /><stop
         style="stop-opacity:1;stop-color:#16173e"
         offset="1"
         id="stop164" /></linearGradient><linearGradient
       x1="0"
       y1="0"
       x2="1"
       y2="0"
       gradientUnits="userSpaceOnUse"
       gradientTransform="matrix(514.37213,197.4604,197.4604,-514.37213,391.13586,237.60321)"
       spreadMethod="pad"
       id="linearGradient192"><stop
         style="stop-opacity:1;stop-color:#ffa2ff"
         offset="0"
         id="stop182" /><stop
         style="stop-opacity:1;stop-color:#d7b3ff"
         offset="0.28555162"
         id="stop184" /><stop
         style="stop-opacity:1;stop-color:#d7b3ff"
         offset="0.367148"
         id="stop186" /><stop
         style="stop-opacity:1;stop-color:#00ffe5"
         offset="0.889732"
         id="stop188" /><stop
         style="stop-opacity:1;stop-color:#00ffe5"
         offset="1"
         id="stop190" /></linearGradient></defs><sodipodi:namedview
     id="namedview4"
     pagecolor="#ffffff"
     bordercolor="#666666"
     borderopacity="1.0"
     inkscape:pageshadow="2"
     inkscape:pageopacity="0.0"
     inkscape:pagecheckerboard="0" /><g
     id="g8"
     inkscape:groupmode="layer"
     inkscape:label="1Aa_Umee_Brand Icon Full Color"
     transform="matrix(1.3333333,0,0,-1.3333333,0,1024)"><g
       id="g10"><g
         id="g12"><g
           id="g18"><g
             id="g20"><path
               d="M 433.184,591.666 V 436.608 l 0.048,6.151 c 1.037,-132.504 112.484,-245.77 249.86,-245.77 v 0 c 137.376,0 248.823,107.116 249.86,239.619 v 0 l 0.048,6.151 v 148.907 c 0,0 -34.657,16.907 -74.083,-23.411 v 0 C 833.602,542.37 813.365,449.38 759.17,448.542 v 0 c -72.374,-1.12 -121.621,95.05 -180.506,130.985 v 0 c -26.137,15.95 -56.335,20.537 -82.417,20.537 v 0 c -35.298,0.001 -63.063,-8.398 -63.063,-8.398"
               style="fill:url(#linearGradient32);stroke:none"
               id="path34" /></g></g></g></g><g
       id="g36"><g
         id="g38"
         clip-path="url(#clipPath42)"><g
           id="g44"><g
             id="g46" /><g
             id="g74"
             mask="url(#mask62)"><g
               id="g76"><path
                 d="M 433.184,591.666 V 436.608 l 0.048,6.151 c 1.037,-132.504 112.484,-245.77 249.86,-245.77 v 0 c 137.376,0 248.823,107.116 249.86,239.619 v 0 l 0.048,6.151 v 148.907 c 0,0 -34.657,16.907 -74.083,-23.411 v 0 C 833.602,542.37 813.365,449.38 759.17,448.542 v 0 c -72.374,-1.12 -121.621,95.05 -180.506,130.985 v 0 c -26.137,15.95 -56.335,20.537 -82.417,20.537 v 0 c -35.298,0.001 -63.063,-8.398 -63.063,-8.398"
                 style="fill:url(#linearGradient86);stroke:none"
                 id="path88" /></g></g></g></g></g><g
       id="g90"><g
         id="g92"><g
           id="g98"><g
             id="g100"><path
               d="M 433,531.84 V 421.312 l 0.048,6.58 C 434.085,286.152 545.574,164.993 683,164.993 v 0 c 137.427,0 248.915,114.58 249.952,256.319 v 0 l 0.048,6.58 v 101.12 c -14.108,-2.351 -31.476,-9.237 -49.817,-26.16 v 0 C 854.791,476.655 832.095,382.549 771.313,381.702 v 0 c -81.17,-1.133 -136.403,96.191 -202.444,132.556 v 0 c -29.312,16.141 -63.164,20.782 -92.406,20.783 v 0 c -16.504,0 -31.537,-1.478 -43.463,-3.201"
               style="fill:url(#linearGradient112);stroke:none"
               id="path114" /></g></g></g></g><g
       id="g116"><g
         id="g118"
         clip-path="url(#clipPath122)"><g
           id="g124"><g
             id="g126" /><g
             id="g154"
             mask="url(#mask142)"><g
               id="g156"><path
                 d="M 433,531.84 V 421.312 l 0.048,6.58 C 434.085,286.152 545.574,164.993 683,164.993 v 0 c 137.427,0 248.915,114.58 249.952,256.319 v 0 l 0.048,6.58 v 101.12 c -14.108,-2.351 -31.476,-9.237 -49.817,-26.16 v 0 C 854.791,476.655 832.095,382.549 771.313,381.702 v 0 c -81.17,-1.133 -136.403,96.191 -202.444,132.556 v 0 c -29.312,16.141 -63.164,20.782 -92.406,20.783 v 0 c -16.504,0 -31.537,-1.478 -43.463,-3.201"
                 style="fill:url(#linearGradient166);stroke:none"
                 id="path168" /></g></g></g></g></g><g
       id="g170"><g
         id="g172"><g
           id="g178"><g
             id="g180"><path
               d="m 433,455.651 v -34.339 l 0.048,6.58 C 434.085,286.152 545.574,164.993 683,164.993 v 0 c 137.427,0 248.915,114.58 249.952,256.319 v 0 l 0.048,6.58 v 17.846 c -10.807,-4.115 -22.577,-10.723 -34.737,-21.147 v 0 C 867.7,398.394 843.268,304.288 777.838,303.44 v 0 c -87.376,-1.132 -146.834,96.192 -217.926,132.558 v 0 c -31.549,16.138 -67.985,20.777 -99.465,20.777 v 0 c -9.718,0.001 -18.962,-0.442 -27.447,-1.124"
               style="fill:url(#linearGradient192);stroke:none"
               id="path194" /></g></g></g></g></g></svg>
