<svg id="svg" version="1.1" xmlns="http://www.w3.org/2000/svg" xmlns:xlink="http://www.w3.org/1999/xlink" width="400" height="400" viewBox="0, 0, 400,400"><g id="svgg"><path id="path0" d="M198.804 20.700 C 198.330 22.185,197.800 23.760,197.626 24.200 C 197.452 24.640,196.999 25.990,196.621 27.200 C 196.242 28.410,195.788 29.760,195.612 30.200 C 195.435 30.640,195.058 31.810,194.774 32.800 C 193.927 35.745,194.465 35.600,184.351 35.600 C 179.318 35.600,175.200 35.756,175.200 35.947 C 175.200 36.138,177.585 38.026,180.500 40.143 C 191.326 48.006,190.711 46.888,188.002 53.800 C 186.706 57.105,184.520 64.663,184.782 64.933 C 185.038 65.196,188.833 62.791,191.367 60.759 C 197.645 55.726,200.683 54.040,201.396 55.193 C 201.529 55.409,204.105 57.336,207.119 59.474 C 210.134 61.612,213.048 63.775,213.596 64.281 C 216.300 66.776,216.152 65.921,211.399 51.588 C 209.924 47.141,209.899 47.213,213.900 44.351 C 220.387 39.712,224.800 36.313,224.800 35.955 C 224.800 35.759,220.816 35.597,215.900 35.594 C 211.005 35.591,206.793 35.456,206.540 35.294 C 206.091 35.007,200.800 19.543,200.800 18.518 C 200.800 16.950,199.572 18.292,198.804 20.700 M120.251 40.121 C 119.893 41.059,119.600 42.125,119.600 42.490 C 119.600 42.854,119.420 43.264,119.200 43.400 C 118.980 43.536,118.800 43.990,118.800 44.410 C 118.800 44.830,118.546 45.764,118.236 46.486 C 117.925 47.209,117.181 49.420,116.582 51.400 C 114.789 57.327,115.900 56.800,105.191 56.800 C 100.136 56.800,96.000 56.935,96.000 57.100 C 96.001 57.265,97.731 58.660,99.845 60.200 C 101.959 61.740,105.357 64.225,107.395 65.722 L 111.101 68.444 109.205 74.122 C 108.162 77.245,106.990 80.880,106.600 82.200 C 106.209 83.520,105.732 84.802,105.538 85.049 C 105.345 85.296,105.292 85.775,105.422 86.113 C 105.649 86.705,108.311 84.924,118.558 77.322 C 119.855 76.359,121.033 75.623,121.175 75.686 C 121.416 75.793,123.493 77.308,131.884 83.500 C 137.503 87.646,137.514 88.176,131.612 70.572 C 130.883 68.399,131.067 68.185,137.900 63.253 C 141.585 60.593,145.050 58.057,145.600 57.617 L 146.600 56.818 137.149 56.809 C 125.973 56.798,127.473 57.759,124.599 48.779 C 123.371 44.941,122.193 41.487,121.983 41.105 C 121.772 40.723,121.600 40.059,121.600 39.629 C 121.600 38.160,120.903 38.414,120.251 40.121 M277.635 42.445 C 276.933 44.730,276.208 46.960,276.025 47.400 C 275.842 47.840,275.115 50.032,274.410 52.271 C 272.858 57.202,273.896 56.800,262.699 56.800 L 253.463 56.800 257.431 59.737 C 259.614 61.353,263.144 63.957,265.276 65.523 L 269.152 68.371 268.743 69.686 C 268.518 70.409,268.184 71.540,268.001 72.200 C 267.818 72.860,266.752 76.153,265.634 79.517 C 263.286 86.578,263.405 86.001,264.300 85.996 C 264.879 85.993,266.703 84.781,269.033 82.852 C 269.271 82.655,270.801 81.548,272.433 80.392 C 274.065 79.236,276.224 77.693,277.230 76.962 L 279.060 75.635 281.630 77.420 C 283.044 78.403,285.010 79.807,286.000 80.542 C 295.296 87.443,295.333 87.449,293.444 81.792 C 290.489 72.937,289.074 68.394,289.233 68.265 C 289.919 67.709,299.136 60.965,301.300 59.437 C 305.066 56.777,305.122 56.800,294.814 56.800 C 284.551 56.800,285.169 56.977,284.370 53.809 C 284.202 53.144,283.710 51.610,283.278 50.400 C 282.845 49.190,281.919 46.400,281.220 44.200 C 279.118 37.578,279.130 37.584,277.635 42.445 M336.758 97.486 C 336.433 97.879,335.838 99.280,335.437 100.600 C 335.035 101.920,334.572 103.360,334.407 103.800 C 333.737 105.588,332.327 109.877,332.034 111.020 C 331.861 111.691,331.466 112.771,331.155 113.420 L 330.590 114.600 321.495 114.708 C 316.493 114.767,312.400 114.975,312.400 115.170 C 312.400 115.365,313.705 116.474,315.300 117.635 C 324.401 124.257,326.800 126.143,326.800 126.671 C 326.800 127.240,325.714 130.712,322.943 139.000 C 320.852 145.255,320.920 145.349,325.200 142.125 C 332.058 136.960,336.369 134.000,337.033 134.000 C 337.422 134.000,340.866 136.250,344.686 139.000 C 353.210 145.135,353.250 145.145,351.634 140.600 C 351.400 139.940,350.575 137.420,349.802 135.000 C 349.028 132.580,348.112 129.755,347.766 128.722 C 346.895 126.127,347.283 125.740,359.103 117.406 C 360.658 116.309,361.846 115.274,361.742 115.106 C 361.638 114.938,357.648 114.797,352.876 114.794 C 348.104 114.791,343.942 114.624,343.627 114.425 C 343.311 114.225,341.770 110.172,340.201 105.417 C 337.609 97.559,337.295 96.837,336.758 97.486 M62.400 97.757 C 62.400 98.096,62.145 98.964,61.833 99.686 C 61.521 100.409,60.952 102.080,60.569 103.400 C 60.185 104.720,59.738 106.070,59.575 106.400 C 59.411 106.730,59.056 107.810,58.785 108.800 C 56.996 115.333,58.006 114.800,47.405 114.800 C 37.833 114.800,37.419 114.869,39.236 116.151 C 54.003 126.572,53.392 125.964,52.249 129.092 C 51.946 129.921,51.026 132.760,50.204 135.400 C 49.383 138.040,48.574 140.476,48.406 140.813 C 46.665 144.320,47.675 144.675,51.492 141.900 C 53.080 140.745,56.223 138.460,58.475 136.821 C 63.024 133.512,63.343 133.436,65.492 135.156 C 66.321 135.820,69.520 138.158,72.600 140.353 C 79.137 145.011,79.178 144.996,77.087 138.708 C 72.460 124.792,72.409 126.675,77.512 123.004 C 79.651 121.466,81.670 119.988,82.000 119.721 C 82.330 119.453,83.815 118.356,85.300 117.284 C 88.800 114.755,88.918 114.800,78.762 114.800 C 68.383 114.800,69.534 115.492,67.025 107.748 C 65.965 104.476,64.774 100.810,64.379 99.600 C 63.706 97.540,62.400 96.324,62.400 97.757 M193.800 122.391 C 191.002 122.688,187.162 123.360,182.400 124.384 C 167.740 127.536,149.431 139.702,140.600 152.160 C 140.160 152.781,139.575 153.526,139.300 153.816 C 139.025 154.106,138.800 154.521,138.800 154.738 C 138.800 154.955,138.659 155.193,138.487 155.267 C 136.751 156.006,130.942 168.266,128.379 176.600 C 127.702 178.800,127.076 180.823,126.989 181.095 C 126.866 181.476,123.139 181.615,110.914 181.695 L 95.000 181.800 95.000 194.800 L 95.000 207.800 110.268 207.905 L 125.536 208.009 125.968 210.024 C 126.206 211.133,126.400 212.388,126.400 212.814 C 126.400 213.947,128.161 221.388,128.811 223.000 C 128.988 223.440,129.226 224.160,129.340 224.600 C 130.656 229.687,138.022 243.977,140.372 246.000 C 140.500 246.110,141.140 246.920,141.794 247.800 C 146.828 254.572,154.935 261.680,163.137 266.515 C 165.783 268.074,172.893 271.600,173.392 271.600 C 173.550 271.600,174.246 271.849,174.940 272.153 C 176.995 273.055,180.237 274.052,184.800 275.186 C 199.607 278.864,223.271 277.065,237.400 271.187 C 238.060 270.912,239.230 270.425,240.000 270.103 C 250.242 265.826,259.324 258.990,265.319 251.047 C 269.698 245.244,269.757 244.857,266.600 242.708 C 264.840 241.510,248.220 230.849,246.478 229.800 C 246.112 229.580,245.040 228.893,244.095 228.273 L 242.376 227.145 241.288 228.451 C 235.051 235.939,229.113 240.208,221.200 242.891 C 193.960 252.130,168.051 240.172,161.200 215.200 C 160.929 214.210,160.548 212.878,160.353 212.240 C 160.159 211.602,160.000 210.387,160.000 209.540 L 160.000 208.000 228.154 208.000 L 296.308 208.000 296.954 207.014 C 297.309 206.472,297.600 205.801,297.600 205.523 C 297.600 205.244,298.027 203.843,298.549 202.408 C 299.681 199.295,305.200 182.554,305.200 182.233 C 305.200 182.110,297.970 181.962,289.133 181.905 L 273.066 181.800 272.332 178.600 C 267.768 158.722,257.742 144.011,241.584 133.485 C 237.881 131.072,230.455 127.200,229.532 127.200 C 229.217 127.200,228.789 127.049,228.580 126.866 C 227.768 126.150,219.898 123.998,214.400 122.986 C 210.395 122.249,198.390 121.902,193.800 122.391 M205.954 150.829 C 219.218 152.982,229.016 159.617,234.208 169.961 C 234.973 171.487,235.600 172.990,235.600 173.301 C 235.600 173.612,235.729 173.995,235.886 174.153 C 236.379 174.646,237.164 178.125,237.182 179.900 L 237.200 181.600 199.200 181.600 C 155.672 181.600,160.467 182.129,162.063 177.502 C 165.422 167.765,172.312 159.531,180.800 155.110 C 183.802 153.547,185.497 152.910,190.200 151.581 C 194.085 150.483,201.607 150.124,205.954 150.829 M41.510 176.262 C 41.409 176.448,40.199 180.110,38.821 184.400 C 37.442 188.690,36.180 192.470,36.014 192.800 C 35.763 193.302,34.232 193.418,26.657 193.508 C 15.941 193.635,15.813 193.713,20.720 197.169 C 32.772 205.656,32.138 204.860,30.602 209.552 C 25.439 225.330,25.363 224.523,31.590 220.031 C 33.901 218.364,36.279 216.640,36.874 216.200 C 40.703 213.370,41.702 212.754,42.171 212.934 C 42.461 213.045,45.258 214.995,48.387 217.268 C 56.542 223.191,56.711 223.302,57.153 223.029 C 57.412 222.869,57.346 222.182,56.967 221.090 C 54.641 214.393,52.003 205.769,52.158 205.366 C 52.260 205.099,53.572 204.015,55.072 202.957 C 60.990 198.783,66.800 194.335,66.800 193.977 C 66.800 193.752,63.034 193.600,57.452 193.600 L 48.104 193.600 47.106 190.700 C 46.557 189.105,45.337 185.370,44.394 182.400 C 42.773 177.292,41.928 175.494,41.510 176.262 M357.669 176.700 C 357.472 177.085,356.998 178.480,356.615 179.800 C 356.233 181.120,355.773 182.560,355.594 183.000 C 355.415 183.440,354.958 184.790,354.579 186.000 C 354.201 187.210,353.761 188.560,353.602 189.000 C 353.443 189.440,353.046 190.610,352.720 191.600 L 352.126 193.400 342.645 193.600 C 331.367 193.838,331.515 193.164,341.200 200.176 C 346.023 203.668,348.159 205.445,348.067 205.891 C 347.959 206.415,345.068 215.420,343.208 221.028 C 342.126 224.288,342.882 223.913,353.538 215.908 C 355.813 214.199,357.848 212.800,358.059 212.800 C 358.559 212.800,361.873 215.075,367.600 219.349 C 372.554 223.047,373.784 223.548,373.368 221.700 C 373.113 220.567,371.201 214.559,369.358 209.103 C 368.023 205.148,367.612 205.760,375.459 200.014 C 385.205 192.877,385.334 193.601,374.316 193.594 C 363.698 193.587,364.345 193.765,363.428 190.600 C 363.046 189.280,362.597 187.930,362.431 187.600 C 362.265 187.270,361.812 185.920,361.424 184.600 C 361.037 183.280,360.579 181.840,360.406 181.400 C 360.234 180.960,359.765 179.565,359.364 178.300 C 358.595 175.875,358.256 175.556,357.669 176.700 M336.690 255.501 C 336.310 255.920,336.000 256.558,336.000 256.918 C 336.000 257.278,335.748 258.164,335.440 258.886 C 335.132 259.609,334.213 262.360,333.397 265.000 C 332.582 267.640,331.770 270.160,331.593 270.600 C 331.417 271.040,331.172 271.715,331.049 272.100 C 330.844 272.740,330.025 272.800,321.413 272.800 C 311.280 272.800,311.145 272.833,313.700 274.665 C 319.976 279.167,326.038 283.604,326.497 284.033 C 327.010 284.512,326.269 287.782,324.826 291.400 C 323.111 295.703,321.283 302.400,321.824 302.400 C 322.063 302.400,332.863 294.787,333.200 294.381 C 333.310 294.248,333.985 293.799,334.700 293.384 C 335.415 292.968,336.000 292.486,336.000 292.314 C 336.000 292.141,336.351 292.000,336.781 292.000 C 337.565 292.000,338.698 292.757,347.200 298.961 C 353.179 303.324,353.396 303.157,350.779 296.200 C 349.408 292.552,347.201 284.866,347.390 284.391 C 347.519 284.066,350.167 282.000,353.274 279.800 C 356.381 277.600,359.121 275.618,359.362 275.395 C 359.603 275.172,360.295 274.673,360.900 274.286 C 362.998 272.943,362.233 272.800,352.900 272.794 C 342.283 272.787,343.234 273.147,341.821 268.600 C 340.473 264.262,339.625 261.676,339.198 260.600 C 339.024 260.160,338.543 258.661,338.130 257.269 C 337.406 254.830,337.354 254.766,336.690 255.501 M61.864 257.703 C 61.459 259.077,60.984 260.560,60.808 261.000 C 60.631 261.440,59.702 264.230,58.743 267.200 L 56.999 272.600 47.669 272.707 C 40.498 272.790,38.375 272.929,38.498 273.307 C 38.586 273.578,41.795 276.090,45.629 278.888 C 53.149 284.377,53.409 284.705,52.272 287.286 C 51.954 288.009,51.289 289.950,50.795 291.600 C 50.300 293.250,49.374 296.206,48.737 298.169 C 47.374 302.367,47.625 303.056,49.866 301.271 C 53.609 298.290,62.656 292.007,63.200 292.010 C 63.530 292.012,65.473 293.263,67.517 294.792 C 73.244 299.073,77.900 302.400,78.162 302.400 C 78.805 302.400,76.887 295.085,75.173 291.000 C 72.446 284.499,72.250 284.913,81.071 278.543 C 84.882 275.791,88.000 273.373,88.000 273.170 C 88.000 272.954,84.097 272.800,78.627 272.800 L 69.254 272.800 69.002 271.900 C 68.863 271.405,68.604 270.640,68.426 270.200 C 68.248 269.760,67.425 267.240,66.598 264.600 C 63.228 253.842,63.070 253.612,61.864 257.703 M120.381 313.835 C 119.958 314.934,119.692 315.745,118.162 320.600 C 117.816 321.700,117.385 322.960,117.206 323.400 C 117.027 323.840,116.571 325.280,116.193 326.600 C 114.899 331.117,115.715 330.800,105.391 330.800 C 94.621 330.800,94.780 330.630,101.286 335.200 C 103.948 337.070,106.322 338.780,106.563 339.000 C 106.803 339.220,107.785 339.934,108.746 340.586 C 109.706 341.238,110.575 341.991,110.678 342.259 C 110.888 342.806,108.894 349.589,108.350 350.180 C 108.157 350.389,108.000 350.831,108.000 351.161 C 108.000 351.492,107.447 353.532,106.771 355.694 C 106.095 357.856,105.602 359.807,105.677 360.030 C 105.751 360.253,108.747 358.312,112.334 355.717 C 121.545 349.056,121.497 349.078,122.800 350.781 C 122.910 350.925,125.250 352.638,128.000 354.588 C 130.750 356.537,133.775 358.753,134.722 359.511 C 137.154 361.458,137.239 360.998,135.372 356.000 C 135.084 355.230,134.659 353.970,134.426 353.200 C 134.194 352.430,133.373 349.894,132.602 347.565 C 130.847 342.262,130.847 342.254,132.900 340.804 C 133.835 340.143,134.928 339.351,135.330 339.043 C 135.731 338.736,138.198 336.980,140.813 335.142 C 147.217 330.640,147.371 330.800,136.623 330.800 C 126.774 330.800,126.400 330.703,126.400 328.135 C 126.400 327.647,126.220 327.136,126.000 327.000 C 125.780 326.864,125.600 326.410,125.600 325.990 C 125.600 325.570,125.349 324.636,125.042 323.914 C 124.735 323.191,123.817 320.530,123.002 318.000 C 121.293 312.693,121.000 312.228,120.381 313.835 M278.652 313.203 C 277.286 317.340,276.212 320.679,274.840 325.059 C 272.866 331.359,274.005 330.800,263.134 330.800 C 257.090 330.800,254.378 330.933,254.475 331.226 C 254.553 331.460,257.763 333.953,261.609 336.766 C 269.937 342.860,269.530 341.817,266.779 350.000 C 266.299 351.430,265.747 352.913,265.553 353.295 C 265.359 353.677,265.200 354.255,265.200 354.581 C 265.200 354.907,264.954 355.764,264.652 356.486 C 262.564 361.495,262.776 361.514,269.049 356.869 C 271.923 354.741,275.369 352.233,276.706 351.296 L 279.138 349.593 281.552 351.296 C 282.880 352.233,286.264 354.661,289.072 356.691 C 293.988 360.246,295.847 360.968,294.490 358.795 C 294.220 358.364,294.000 357.745,294.000 357.419 C 294.000 357.093,293.747 356.236,293.438 355.514 C 293.129 354.791,292.009 351.519,290.949 348.242 L 289.021 342.284 289.902 341.698 C 290.387 341.376,292.273 340.006,294.092 338.654 C 295.911 337.302,298.750 335.222,300.400 334.032 C 302.050 332.842,303.529 331.673,303.686 331.434 C 303.888 331.128,301.260 330.941,294.771 330.800 C 284.337 330.573,285.311 330.951,283.984 326.612 C 283.511 325.065,282.983 323.440,282.809 323.000 C 282.116 321.240,280.399 315.669,280.391 315.152 C 280.376 314.185,278.881 312.510,278.652 313.203 M199.425 334.900 C 199.079 336.059,197.098 342.137,195.623 346.565 C 193.661 352.454,194.635 351.987,184.324 351.994 C 179.552 351.997,175.555 352.150,175.441 352.333 C 175.328 352.516,176.878 353.821,178.885 355.233 C 180.892 356.645,182.731 357.995,182.971 358.232 C 183.211 358.470,184.756 359.623,186.404 360.793 C 190.414 363.642,190.317 363.417,189.015 366.800 C 188.719 367.570,188.080 369.550,187.597 371.200 C 187.113 372.850,186.286 375.474,185.758 377.030 C 184.376 381.111,184.930 382.910,186.800 380.413 C 186.910 380.266,189.250 378.544,192.000 376.586 C 194.750 374.629,197.509 372.616,198.131 372.113 C 199.780 370.781,200.428 370.943,204.090 373.608 C 205.911 374.932,209.107 377.257,211.192 378.775 C 215.673 382.034,216.309 381.933,214.818 378.200 C 213.678 375.343,210.403 364.748,210.416 363.959 C 210.430 363.194,211.414 362.311,215.270 359.600 C 217.930 357.730,220.436 355.930,220.838 355.600 C 221.240 355.270,222.299 354.492,223.190 353.870 C 225.661 352.148,225.070 352.001,215.676 351.994 C 205.839 351.987,206.375 352.133,205.412 349.200 C 205.015 347.990,204.554 346.640,204.388 346.200 C 203.885 344.874,202.952 342.008,201.750 338.100 C 200.706 334.705,199.840 333.513,199.425 334.900 " stroke="none" fill="#f9d23c" fill-rule="evenodd"></path><path id="path1" d="M176.007 0.276 C 173.222 0.391,172.127 0.588,171.887 1.016 C 171.643 1.452,170.752 1.600,168.380 1.600 C 166.527 1.600,165.200 1.767,165.200 2.000 C 165.200 2.222,164.133 2.400,162.800 2.400 C 161.467 2.400,160.400 2.578,160.400 2.800 C 160.400 3.020,159.404 3.200,158.187 3.200 C 156.590 3.200,155.911 3.367,155.745 3.800 C 155.583 4.220,154.928 4.400,153.557 4.400 C 152.481 4.400,151.600 4.580,151.600 4.800 C 151.600 5.020,150.790 5.200,149.800 5.200 C 148.467 5.200,148.000 5.356,148.000 5.800 C 148.000 6.253,147.511 6.400,146.000 6.400 C 144.900 6.400,144.000 6.580,144.000 6.800 C 144.000 7.020,143.370 7.200,142.600 7.200 C 141.830 7.200,141.200 7.380,141.200 7.600 C 141.200 7.820,140.570 8.000,139.800 8.000 C 138.822 8.000,138.400 8.181,138.400 8.600 C 138.400 9.019,137.978 9.200,137.000 9.200 C 136.230 9.200,135.600 9.380,135.600 9.600 C 135.600 9.820,134.880 10.000,134.000 10.000 C 132.844 10.000,132.400 10.167,132.400 10.600 C 132.400 11.019,131.978 11.200,131.000 11.200 C 130.230 11.200,129.600 11.380,129.600 11.600 C 129.600 11.820,128.970 12.000,128.200 12.000 C 127.430 12.000,126.800 12.180,126.800 12.400 C 126.800 12.620,126.350 12.800,125.800 12.800 C 125.178 12.800,124.800 13.027,124.800 13.400 C 124.800 13.819,124.378 14.000,123.400 14.000 C 122.630 14.000,122.000 14.180,122.000 14.400 C 122.000 14.620,121.550 14.800,121.000 14.800 C 120.450 14.800,120.000 14.960,120.000 15.157 C 120.000 15.353,119.550 15.626,119.000 15.764 C 118.450 15.902,118.000 16.192,118.000 16.408 C 118.000 16.623,117.460 16.800,116.800 16.800 C 116.140 16.800,115.600 16.980,115.600 17.200 C 115.600 17.420,115.150 17.600,114.600 17.600 C 113.978 17.600,113.600 17.827,113.600 18.200 C 113.600 18.573,113.222 18.800,112.600 18.800 C 112.050 18.800,111.600 18.980,111.600 19.200 C 111.600 19.420,111.150 19.600,110.600 19.600 C 110.050 19.600,109.600 19.760,109.600 19.957 C 109.600 20.153,109.150 20.426,108.600 20.564 C 108.050 20.702,107.600 20.992,107.600 21.208 C 107.600 21.423,107.251 21.600,106.824 21.600 C 106.397 21.600,105.936 21.780,105.800 22.000 C 105.664 22.220,105.203 22.400,104.776 22.400 C 104.349 22.400,104.000 22.670,104.000 23.000 C 104.000 23.330,103.730 23.600,103.400 23.600 C 103.070 23.600,102.800 23.780,102.800 24.000 C 102.800 24.220,102.350 24.400,101.800 24.400 C 101.250 24.400,100.800 24.580,100.800 24.800 C 100.800 25.020,100.440 25.200,100.000 25.200 C 99.556 25.200,99.200 25.467,99.200 25.800 C 99.200 26.146,98.838 26.400,98.346 26.400 C 97.876 26.400,97.075 26.850,96.565 27.400 C 96.055 27.950,95.360 28.400,95.019 28.400 C 94.679 28.400,94.400 28.580,94.400 28.800 C 94.400 29.020,93.993 29.200,93.495 29.200 C 92.996 29.200,92.253 29.649,91.839 30.200 C 91.426 30.750,90.753 31.200,90.344 31.200 C 89.935 31.200,89.600 31.380,89.600 31.600 C 89.600 31.820,89.330 32.000,89.000 32.000 C 88.670 32.000,88.400 32.270,88.400 32.600 C 88.400 32.933,88.044 33.200,87.600 33.200 C 87.160 33.200,86.800 33.380,86.800 33.600 C 86.800 33.820,86.530 34.000,86.200 34.000 C 85.870 34.000,85.600 34.180,85.600 34.400 C 85.600 34.620,85.304 34.800,84.943 34.800 C 84.239 34.800,82.000 36.927,82.000 37.596 C 82.000 37.818,81.550 38.000,81.000 38.000 C 80.450 38.000,80.000 38.180,80.000 38.400 C 80.000 38.620,79.807 38.800,79.571 38.800 C 79.018 38.800,78.000 39.818,78.000 40.371 C 78.000 40.607,77.625 40.800,77.167 40.800 C 76.708 40.800,75.721 41.430,74.974 42.200 C 74.226 42.970,73.422 43.600,73.188 43.600 C 72.954 43.600,71.941 44.410,70.936 45.400 C 69.932 46.390,68.951 47.200,68.755 47.200 C 68.560 47.200,68.400 47.393,68.400 47.629 C 68.400 48.244,67.357 49.200,66.685 49.200 C 66.370 49.200,65.774 49.650,65.361 50.200 C 64.948 50.750,64.460 51.200,64.276 51.200 C 63.800 51.200,62.800 52.264,62.800 52.771 C 62.800 53.007,62.607 53.200,62.371 53.200 C 61.905 53.200,60.800 54.185,60.800 54.600 C 60.800 54.934,59.734 56.000,59.400 56.000 C 58.985 56.000,58.000 57.105,58.000 57.571 C 58.000 57.807,57.807 58.000,57.571 58.000 C 57.105 58.000,56.000 58.985,56.000 59.400 C 56.000 59.734,54.934 60.800,54.600 60.800 C 54.185 60.800,53.200 61.905,53.200 62.371 C 53.200 62.607,53.007 62.800,52.771 62.800 C 52.264 62.800,51.200 63.800,51.200 64.276 C 51.200 64.460,50.750 64.948,50.200 65.361 C 49.650 65.774,49.200 66.370,49.200 66.685 C 49.200 67.357,48.244 68.400,47.629 68.400 C 47.393 68.400,47.200 68.560,47.200 68.755 C 47.200 68.951,46.390 69.932,45.400 70.936 C 44.410 71.941,43.600 72.954,43.600 73.188 C 43.600 73.422,42.970 74.226,42.200 74.974 C 41.430 75.721,40.800 76.708,40.800 77.167 C 40.800 77.625,40.607 78.000,40.371 78.000 C 39.818 78.000,38.800 79.018,38.800 79.571 C 38.800 79.807,38.620 80.000,38.400 80.000 C 38.180 80.000,38.000 80.450,38.000 81.000 C 38.000 81.550,37.818 82.000,37.596 82.000 C 36.927 82.000,34.800 84.239,34.800 84.943 C 34.800 85.304,34.620 85.600,34.400 85.600 C 34.180 85.600,34.000 85.870,34.000 86.200 C 34.000 86.530,33.820 86.800,33.600 86.800 C 33.380 86.800,33.200 87.160,33.200 87.600 C 33.200 88.044,32.933 88.400,32.600 88.400 C 32.270 88.400,32.000 88.670,32.000 89.000 C 32.000 89.330,31.820 89.600,31.600 89.600 C 31.380 89.600,31.200 89.935,31.200 90.344 C 31.200 90.753,30.750 91.426,30.200 91.839 C 29.649 92.253,29.200 92.996,29.200 93.495 C 29.200 93.993,29.020 94.400,28.800 94.400 C 28.580 94.400,28.400 94.679,28.400 95.019 C 28.400 95.360,27.950 96.055,27.400 96.565 C 26.850 97.075,26.400 97.876,26.400 98.346 C 26.400 98.838,26.146 99.200,25.800 99.200 C 25.467 99.200,25.200 99.556,25.200 100.000 C 25.200 100.440,25.020 100.800,24.800 100.800 C 24.580 100.800,24.400 101.250,24.400 101.800 C 24.400 102.350,24.220 102.800,24.000 102.800 C 23.780 102.800,23.600 103.070,23.600 103.400 C 23.600 103.730,23.330 104.000,23.000 104.000 C 22.670 104.000,22.400 104.349,22.400 104.776 C 22.400 105.203,22.220 105.664,22.000 105.800 C 21.780 105.936,21.600 106.397,21.600 106.824 C 21.600 107.251,21.423 107.600,21.208 107.600 C 20.992 107.600,20.702 108.050,20.564 108.600 C 20.426 109.150,20.153 109.600,19.957 109.600 C 19.760 109.600,19.600 110.050,19.600 110.600 C 19.600 111.150,19.420 111.600,19.200 111.600 C 18.980 111.600,18.800 112.050,18.800 112.600 C 18.800 113.222,18.573 113.600,18.200 113.600 C 17.827 113.600,17.600 113.978,17.600 114.600 C 17.600 115.150,17.420 115.600,17.200 115.600 C 16.980 115.600,16.800 116.140,16.800 116.800 C 16.800 117.460,16.623 118.000,16.408 118.000 C 16.192 118.000,15.902 118.450,15.764 119.000 C 15.626 119.550,15.353 120.000,15.157 120.000 C 14.960 120.000,14.800 120.450,14.800 121.000 C 14.800 121.550,14.620 122.000,14.400 122.000 C 14.180 122.000,14.000 122.630,14.000 123.400 C 14.000 124.378,13.819 124.800,13.400 124.800 C 13.027 124.800,12.800 125.178,12.800 125.800 C 12.800 126.350,12.620 126.800,12.400 126.800 C 12.180 126.800,12.000 127.430,12.000 128.200 C 12.000 128.970,11.820 129.600,11.600 129.600 C 11.380 129.600,11.200 130.230,11.200 131.000 C 11.200 131.978,11.019 132.400,10.600 132.400 C 10.167 132.400,10.000 132.844,10.000 134.000 C 10.000 134.880,9.820 135.600,9.600 135.600 C 9.380 135.600,9.200 136.230,9.200 137.000 C 9.200 137.978,9.019 138.400,8.600 138.400 C 8.181 138.400,8.000 138.822,8.000 139.800 C 8.000 140.570,7.820 141.200,7.600 141.200 C 7.380 141.200,7.200 141.830,7.200 142.600 C 7.200 143.370,7.020 144.000,6.800 144.000 C 6.580 144.000,6.400 144.900,6.400 146.000 C 6.400 147.511,6.253 148.000,5.800 148.000 C 5.356 148.000,5.200 148.467,5.200 149.800 C 5.200 150.790,5.020 151.600,4.800 151.600 C 4.580 151.600,4.400 152.481,4.400 153.557 C 4.400 154.928,4.220 155.583,3.800 155.745 C 3.367 155.911,3.200 156.590,3.200 158.187 C 3.200 159.404,3.020 160.400,2.800 160.400 C 2.578 160.400,2.400 161.467,2.400 162.800 C 2.400 164.133,2.222 165.200,2.000 165.200 C 1.767 165.200,1.600 166.527,1.600 168.380 C 1.600 170.993,1.475 171.630,0.900 171.952 C -0.185 172.559,-0.185 227.441,0.900 228.048 C 1.475 228.370,1.600 229.007,1.600 231.620 C 1.600 233.473,1.767 234.800,2.000 234.800 C 2.222 234.800,2.400 235.867,2.400 237.200 C 2.400 238.533,2.578 239.600,2.800 239.600 C 3.020 239.600,3.200 240.596,3.200 241.813 C 3.200 243.410,3.367 244.089,3.800 244.255 C 4.220 244.417,4.400 245.072,4.400 246.443 C 4.400 247.519,4.580 248.400,4.800 248.400 C 5.020 248.400,5.200 249.210,5.200 250.200 C 5.200 251.533,5.356 252.000,5.800 252.000 C 6.253 252.000,6.400 252.489,6.400 254.000 C 6.400 255.100,6.580 256.000,6.800 256.000 C 7.020 256.000,7.200 256.630,7.200 257.400 C 7.200 258.170,7.380 258.800,7.600 258.800 C 7.820 258.800,8.000 259.430,8.000 260.200 C 8.000 261.178,8.181 261.600,8.600 261.600 C 9.019 261.600,9.200 262.022,9.200 263.000 C 9.200 263.770,9.380 264.400,9.600 264.400 C 9.820 264.400,10.000 265.120,10.000 266.000 C 10.000 267.156,10.167 267.600,10.600 267.600 C 11.019 267.600,11.200 268.022,11.200 269.000 C 11.200 269.770,11.380 270.400,11.600 270.400 C 11.820 270.400,12.000 271.030,12.000 271.800 C 12.000 272.570,12.180 273.200,12.400 273.200 C 12.620 273.200,12.800 273.650,12.800 274.200 C 12.800 274.822,13.027 275.200,13.400 275.200 C 13.819 275.200,14.000 275.622,14.000 276.600 C 14.000 277.370,14.180 278.000,14.400 278.000 C 14.620 278.000,14.800 278.450,14.800 279.000 C 14.800 279.550,14.960 280.000,15.157 280.000 C 15.353 280.000,15.626 280.450,15.764 281.000 C 15.902 281.550,16.192 282.000,16.408 282.000 C 16.623 282.000,16.800 282.540,16.800 283.200 C 16.800 283.860,16.980 284.400,17.200 284.400 C 17.420 284.400,17.600 284.831,17.600 285.357 C 17.600 285.884,17.870 286.418,18.200 286.545 C 18.530 286.671,18.800 287.141,18.800 287.587 C 18.800 288.034,18.980 288.400,19.200 288.400 C 19.420 288.400,19.600 288.850,19.600 289.400 C 19.600 289.950,19.760 290.400,19.957 290.400 C 20.153 290.400,20.426 290.850,20.564 291.400 C 20.702 291.950,20.992 292.400,21.208 292.400 C 21.423 292.400,21.600 292.749,21.600 293.176 C 21.600 293.603,21.780 294.064,22.000 294.200 C 22.220 294.336,22.400 294.797,22.400 295.224 C 22.400 295.651,22.670 296.000,23.000 296.000 C 23.330 296.000,23.600 296.270,23.600 296.600 C 23.600 296.930,23.780 297.200,24.000 297.200 C 24.220 297.200,24.400 297.650,24.400 298.200 C 24.400 298.750,24.580 299.200,24.800 299.200 C 25.020 299.200,25.200 299.560,25.200 300.000 C 25.200 300.444,25.467 300.800,25.800 300.800 C 26.146 300.800,26.400 301.162,26.400 301.654 C 26.400 302.124,26.850 302.925,27.400 303.435 C 27.950 303.945,28.400 304.640,28.400 304.981 C 28.400 305.321,28.580 305.600,28.800 305.600 C 29.020 305.600,29.200 305.984,29.200 306.454 C 29.200 306.924,29.650 307.725,30.200 308.235 C 30.750 308.745,31.200 309.440,31.200 309.781 C 31.200 310.121,31.380 310.400,31.600 310.400 C 31.820 310.400,32.000 310.670,32.000 311.000 C 32.000 311.330,32.270 311.600,32.600 311.600 C 32.933 311.600,33.200 311.956,33.200 312.400 C 33.200 312.840,33.380 313.200,33.600 313.200 C 33.820 313.200,34.000 313.470,34.000 313.800 C 34.000 314.130,34.180 314.400,34.400 314.400 C 34.620 314.400,34.800 314.696,34.800 315.057 C 34.800 315.761,36.927 318.000,37.596 318.000 C 37.818 318.000,38.000 318.450,38.000 319.000 C 38.000 319.550,38.180 320.000,38.400 320.000 C 38.620 320.000,38.800 320.193,38.800 320.429 C 38.800 320.982,39.818 322.000,40.371 322.000 C 40.607 322.000,40.800 322.375,40.800 322.833 C 40.800 323.292,41.430 324.279,42.200 325.026 C 42.970 325.774,43.600 326.578,43.600 326.812 C 43.600 327.046,44.410 328.059,45.400 329.064 C 46.390 330.068,47.200 331.049,47.200 331.245 C 47.200 331.440,47.393 331.600,47.629 331.600 C 48.231 331.600,49.200 332.638,49.200 333.283 C 49.200 333.579,49.515 334.097,49.900 334.433 C 50.285 334.770,50.958 335.530,51.395 336.122 C 51.832 336.715,52.417 337.200,52.695 337.200 C 52.973 337.200,53.200 337.393,53.200 337.629 C 53.200 338.095,54.185 339.200,54.600 339.200 C 54.934 339.200,56.000 340.266,56.000 340.600 C 56.000 341.015,57.105 342.000,57.571 342.000 C 57.807 342.000,58.000 342.193,58.000 342.429 C 58.000 342.895,58.985 344.000,59.400 344.000 C 59.734 344.000,60.800 345.066,60.800 345.400 C 60.800 345.815,61.905 346.800,62.371 346.800 C 62.607 346.800,62.800 346.993,62.800 347.229 C 62.800 347.736,63.800 348.800,64.276 348.800 C 64.460 348.800,64.948 349.250,65.361 349.800 C 65.774 350.350,66.370 350.800,66.685 350.800 C 67.357 350.800,68.400 351.756,68.400 352.371 C 68.400 352.607,68.560 352.800,68.755 352.800 C 68.951 352.800,69.932 353.610,70.936 354.600 C 71.941 355.590,72.954 356.400,73.188 356.400 C 73.422 356.400,74.226 357.030,74.974 357.800 C 75.721 358.570,76.708 359.200,77.167 359.200 C 77.625 359.200,78.000 359.393,78.000 359.629 C 78.000 360.162,79.010 361.200,79.529 361.200 C 79.741 361.200,80.018 361.470,80.145 361.800 C 80.271 362.130,80.696 362.404,81.087 362.409 C 81.479 362.413,82.338 363.043,82.996 363.809 C 83.654 364.574,84.509 365.200,84.896 365.200 C 85.283 365.200,85.600 365.380,85.600 365.600 C 85.600 365.820,85.870 366.000,86.200 366.000 C 86.530 366.000,86.800 366.180,86.800 366.400 C 86.800 366.620,87.160 366.800,87.600 366.800 C 88.044 366.800,88.400 367.067,88.400 367.400 C 88.400 367.730,88.670 368.000,89.000 368.000 C 89.330 368.000,89.600 368.180,89.600 368.400 C 89.600 368.620,89.935 368.800,90.344 368.800 C 90.753 368.800,91.426 369.250,91.839 369.800 C 92.253 370.351,92.996 370.800,93.495 370.800 C 93.993 370.800,94.400 370.980,94.400 371.200 C 94.400 371.420,94.679 371.600,95.019 371.600 C 95.360 371.600,96.055 372.050,96.565 372.600 C 97.075 373.150,97.876 373.600,98.346 373.600 C 98.838 373.600,99.200 373.854,99.200 374.200 C 99.200 374.533,99.556 374.800,100.000 374.800 C 100.440 374.800,100.800 374.980,100.800 375.200 C 100.800 375.420,101.250 375.600,101.800 375.600 C 102.350 375.600,102.800 375.780,102.800 376.000 C 102.800 376.220,103.070 376.400,103.400 376.400 C 103.730 376.400,104.000 376.670,104.000 377.000 C 104.000 377.330,104.349 377.600,104.776 377.600 C 105.203 377.600,105.664 377.780,105.800 378.000 C 105.936 378.220,106.377 378.400,106.781 378.400 C 107.184 378.400,107.618 378.670,107.745 379.000 C 107.871 379.330,108.341 379.600,108.787 379.600 C 109.234 379.600,109.600 379.780,109.600 380.000 C 109.600 380.220,110.050 380.400,110.600 380.400 C 111.150 380.400,111.600 380.580,111.600 380.800 C 111.600 381.020,112.050 381.200,112.600 381.200 C 113.222 381.200,113.600 381.427,113.600 381.800 C 113.600 382.173,113.978 382.400,114.600 382.400 C 115.150 382.400,115.600 382.580,115.600 382.800 C 115.600 383.020,116.121 383.200,116.757 383.200 C 117.417 383.200,118.013 383.458,118.145 383.800 C 118.271 384.130,118.741 384.400,119.187 384.400 C 119.634 384.400,120.000 384.580,120.000 384.800 C 120.000 385.020,120.450 385.200,121.000 385.200 C 121.550 385.200,122.000 385.380,122.000 385.600 C 122.000 385.820,122.630 386.000,123.400 386.000 C 124.378 386.000,124.800 386.181,124.800 386.600 C 124.800 386.973,125.178 387.200,125.800 387.200 C 126.350 387.200,126.800 387.380,126.800 387.600 C 126.800 387.820,127.430 388.000,128.200 388.000 C 128.970 388.000,129.600 388.180,129.600 388.400 C 129.600 388.620,130.230 388.800,131.000 388.800 C 131.978 388.800,132.400 388.981,132.400 389.400 C 132.400 389.833,132.844 390.000,134.000 390.000 C 134.880 390.000,135.600 390.180,135.600 390.400 C 135.600 390.620,136.230 390.800,137.000 390.800 C 137.978 390.800,138.400 390.981,138.400 391.400 C 138.400 391.819,138.822 392.000,139.800 392.000 C 140.570 392.000,141.200 392.180,141.200 392.400 C 141.200 392.620,141.830 392.800,142.600 392.800 C 143.370 392.800,144.000 392.980,144.000 393.200 C 144.000 393.420,144.900 393.600,146.000 393.600 C 147.511 393.600,148.000 393.747,148.000 394.200 C 148.000 394.644,148.467 394.800,149.800 394.800 C 150.790 394.800,151.600 394.980,151.600 395.200 C 151.600 395.420,152.481 395.600,153.557 395.600 C 154.928 395.600,155.583 395.780,155.745 396.200 C 155.911 396.633,156.590 396.800,158.187 396.800 C 159.404 396.800,160.400 396.980,160.400 397.200 C 160.400 397.422,161.467 397.600,162.800 397.600 C 164.133 397.600,165.200 397.778,165.200 398.000 C 165.200 398.233,166.527 398.400,168.380 398.400 C 170.993 398.400,171.630 398.525,171.952 399.100 C 172.559 400.185,227.441 400.185,228.048 399.100 C 228.370 398.525,229.007 398.400,231.620 398.400 C 233.473 398.400,234.800 398.233,234.800 398.000 C 234.800 397.778,235.867 397.600,237.200 397.600 C 238.533 397.600,239.600 397.422,239.600 397.200 C 239.600 396.980,240.596 396.800,241.813 396.800 C 243.410 396.800,244.089 396.633,244.255 396.200 C 244.417 395.780,245.072 395.600,246.443 395.600 C 247.519 395.600,248.400 395.420,248.400 395.200 C 248.400 394.980,249.210 394.800,250.200 394.800 C 251.533 394.800,252.000 394.644,252.000 394.200 C 252.000 393.747,252.489 393.600,254.000 393.600 C 255.100 393.600,256.000 393.420,256.000 393.200 C 256.000 392.980,256.630 392.800,257.400 392.800 C 258.170 392.800,258.800 392.620,258.800 392.400 C 258.800 392.180,259.430 392.000,260.200 392.000 C 261.178 392.000,261.600 391.819,261.600 391.400 C 261.600 390.981,262.022 390.800,263.000 390.800 C 263.770 390.800,264.400 390.620,264.400 390.400 C 264.400 390.180,265.120 390.000,266.000 390.000 C 267.156 390.000,267.600 389.833,267.600 389.400 C 267.600 388.981,268.022 388.800,269.000 388.800 C 269.770 388.800,270.400 388.620,270.400 388.400 C 270.400 388.180,271.030 388.000,271.800 388.000 C 272.570 388.000,273.200 387.820,273.200 387.600 C 273.200 387.380,273.650 387.200,274.200 387.200 C 274.822 387.200,275.200 386.973,275.200 386.600 C 275.200 386.181,275.622 386.000,276.600 386.000 C 277.370 386.000,278.000 385.820,278.000 385.600 C 278.000 385.380,278.450 385.200,279.000 385.200 C 279.550 385.200,280.000 385.020,280.000 384.800 C 280.000 384.580,280.366 384.400,280.813 384.400 C 281.259 384.400,281.729 384.130,281.855 383.800 C 281.987 383.458,282.583 383.200,283.243 383.200 C 283.879 383.200,284.400 383.020,284.400 382.800 C 284.400 382.580,284.831 382.400,285.357 382.400 C 285.884 382.400,286.418 382.130,286.545 381.800 C 286.671 381.470,287.141 381.200,287.587 381.200 C 288.034 381.200,288.400 381.020,288.400 380.800 C 288.400 380.580,288.850 380.400,289.400 380.400 C 289.950 380.400,290.400 380.220,290.400 380.000 C 290.400 379.780,290.766 379.600,291.213 379.600 C 291.659 379.600,292.129 379.330,292.255 379.000 C 292.382 378.670,292.816 378.400,293.219 378.400 C 293.623 378.400,294.064 378.220,294.200 378.000 C 294.336 377.780,294.797 377.600,295.224 377.600 C 295.651 377.600,296.000 377.330,296.000 377.000 C 296.000 376.670,296.270 376.400,296.600 376.400 C 296.930 376.400,297.200 376.220,297.200 376.000 C 297.200 375.780,297.650 375.600,298.200 375.600 C 298.750 375.600,299.200 375.420,299.200 375.200 C 299.200 374.980,299.560 374.800,300.000 374.800 C 300.444 374.800,300.800 374.533,300.800 374.200 C 300.800 373.827,301.178 373.600,301.800 373.600 C 302.350 373.600,302.800 373.420,302.800 373.200 C 302.800 372.980,303.070 372.800,303.400 372.800 C 303.730 372.800,304.000 372.530,304.000 372.200 C 304.000 371.867,304.356 371.600,304.800 371.600 C 305.240 371.600,305.600 371.420,305.600 371.200 C 305.600 370.980,305.984 370.800,306.454 370.800 C 306.924 370.800,307.725 370.350,308.235 369.800 C 308.745 369.250,309.440 368.800,309.781 368.800 C 310.121 368.800,310.400 368.620,310.400 368.400 C 310.400 368.180,310.670 368.000,311.000 368.000 C 311.330 368.000,311.600 367.730,311.600 367.400 C 311.600 367.067,311.956 366.800,312.400 366.800 C 312.840 366.800,313.200 366.620,313.200 366.400 C 313.200 366.180,313.470 366.000,313.800 366.000 C 314.130 366.000,314.400 365.820,314.400 365.600 C 314.400 365.380,314.717 365.200,315.104 365.200 C 315.491 365.200,316.346 364.574,317.004 363.809 C 317.662 363.043,318.521 362.413,318.913 362.409 C 319.304 362.404,319.729 362.130,319.855 361.800 C 319.982 361.470,320.259 361.200,320.471 361.200 C 320.990 361.200,322.000 360.162,322.000 359.629 C 322.000 359.393,322.375 359.200,322.833 359.200 C 323.292 359.200,324.279 358.570,325.026 357.800 C 325.774 357.030,326.593 356.400,326.846 356.400 C 327.099 356.400,327.900 355.770,328.626 355.000 C 329.352 354.230,330.061 353.600,330.202 353.600 C 330.534 353.600,331.600 352.533,331.600 352.200 C 331.600 351.740,332.729 350.800,333.283 350.800 C 333.579 350.800,334.097 350.485,334.433 350.100 C 334.770 349.715,335.530 349.042,336.122 348.605 C 336.715 348.168,337.200 347.583,337.200 347.305 C 337.200 347.027,337.393 346.800,337.629 346.800 C 338.095 346.800,339.200 345.815,339.200 345.400 C 339.200 345.066,340.266 344.000,340.600 344.000 C 341.015 344.000,342.000 342.895,342.000 342.429 C 342.000 342.193,342.193 342.000,342.429 342.000 C 342.895 342.000,344.000 341.015,344.000 340.600 C 344.000 340.266,345.066 339.200,345.400 339.200 C 345.815 339.200,346.800 338.095,346.800 337.629 C 346.800 337.393,347.027 337.200,347.305 337.200 C 347.583 337.200,348.168 336.715,348.605 336.122 C 349.042 335.530,349.715 334.770,350.100 334.433 C 350.485 334.097,350.800 333.579,350.800 333.283 C 350.800 332.729,351.740 331.600,352.200 331.600 C 352.533 331.600,353.600 330.534,353.600 330.202 C 353.600 330.061,354.230 329.352,355.000 328.626 C 355.770 327.900,356.400 327.099,356.400 326.846 C 356.400 326.593,357.030 325.774,357.800 325.026 C 358.570 324.279,359.200 323.292,359.200 322.833 C 359.200 322.375,359.393 322.000,359.629 322.000 C 360.162 322.000,361.200 320.990,361.200 320.471 C 361.200 320.259,361.470 319.982,361.800 319.855 C 362.130 319.729,362.404 319.304,362.409 318.913 C 362.413 318.521,363.043 317.662,363.809 317.004 C 364.574 316.346,365.200 315.491,365.200 315.104 C 365.200 314.717,365.380 314.400,365.600 314.400 C 365.820 314.400,366.000 314.130,366.000 313.800 C 366.000 313.470,366.180 313.200,366.400 313.200 C 366.620 313.200,366.800 312.840,366.800 312.400 C 366.800 311.956,367.067 311.600,367.400 311.600 C 367.730 311.600,368.000 311.330,368.000 311.000 C 368.000 310.670,368.180 310.400,368.400 310.400 C 368.620 310.400,368.800 310.121,368.800 309.781 C 368.800 309.440,369.250 308.745,369.800 308.235 C 370.350 307.725,370.800 306.924,370.800 306.454 C 370.800 305.984,370.980 305.600,371.200 305.600 C 371.420 305.600,371.600 305.240,371.600 304.800 C 371.600 304.356,371.867 304.000,372.200 304.000 C 372.530 304.000,372.800 303.730,372.800 303.400 C 372.800 303.070,372.980 302.800,373.200 302.800 C 373.420 302.800,373.600 302.350,373.600 301.800 C 373.600 301.178,373.827 300.800,374.200 300.800 C 374.533 300.800,374.800 300.444,374.800 300.000 C 374.800 299.560,374.980 299.200,375.200 299.200 C 375.420 299.200,375.600 298.750,375.600 298.200 C 375.600 297.650,375.780 297.200,376.000 297.200 C 376.220 297.200,376.400 296.930,376.400 296.600 C 376.400 296.270,376.670 296.000,377.000 296.000 C 377.330 296.000,377.600 295.651,377.600 295.224 C 377.600 294.797,377.780 294.336,378.000 294.200 C 378.220 294.064,378.400 293.623,378.400 293.219 C 378.400 292.816,378.670 292.382,379.000 292.255 C 379.330 292.129,379.600 291.659,379.600 291.213 C 379.600 290.766,379.780 290.400,380.000 290.400 C 380.220 290.400,380.400 289.950,380.400 289.400 C 380.400 288.850,380.580 288.400,380.800 288.400 C 381.020 288.400,381.200 288.034,381.200 287.587 C 381.200 287.141,381.470 286.671,381.800 286.545 C 382.130 286.418,382.400 285.884,382.400 285.357 C 382.400 284.831,382.580 284.400,382.800 284.400 C 383.020 284.400,383.200 283.879,383.200 283.243 C 383.200 282.583,383.458 281.987,383.800 281.855 C 384.130 281.729,384.400 281.259,384.400 280.813 C 384.400 280.366,384.580 280.000,384.800 280.000 C 385.020 280.000,385.200 279.550,385.200 279.000 C 385.200 278.450,385.380 278.000,385.600 278.000 C 385.820 278.000,386.000 277.370,386.000 276.600 C 386.000 275.622,386.181 275.200,386.600 275.200 C 386.973 275.200,387.200 274.822,387.200 274.200 C 387.200 273.650,387.380 273.200,387.600 273.200 C 387.820 273.200,388.000 272.570,388.000 271.800 C 388.000 271.030,388.180 270.400,388.400 270.400 C 388.620 270.400,388.800 269.770,388.800 269.000 C 388.800 268.022,388.981 267.600,389.400 267.600 C 389.833 267.600,390.000 267.156,390.000 266.000 C 390.000 265.120,390.180 264.400,390.400 264.400 C 390.620 264.400,390.800 263.770,390.800 263.000 C 390.800 262.022,390.981 261.600,391.400 261.600 C 391.819 261.600,392.000 261.178,392.000 260.200 C 392.000 259.430,392.180 258.800,392.400 258.800 C 392.620 258.800,392.800 258.170,392.800 257.400 C 392.800 256.630,392.980 256.000,393.200 256.000 C 393.420 256.000,393.600 255.100,393.600 254.000 C 393.600 252.489,393.747 252.000,394.200 252.000 C 394.644 252.000,394.800 251.533,394.800 250.200 C 394.800 249.210,394.980 248.400,395.200 248.400 C 395.420 248.400,395.600 247.519,395.600 246.443 C 395.600 245.072,395.780 244.417,396.200 244.255 C 396.633 244.089,396.800 243.410,396.800 241.813 C 396.800 240.596,396.980 239.600,397.200 239.600 C 397.422 239.600,397.600 238.533,397.600 237.200 C 397.600 235.867,397.778 234.800,398.000 234.800 C 398.233 234.800,398.400 233.473,398.400 231.620 C 398.400 229.007,398.525 228.370,399.100 228.048 C 399.756 227.681,399.800 225.923,399.800 200.000 C 399.800 174.077,399.756 172.319,399.100 171.952 C 398.525 171.630,398.400 170.993,398.400 168.380 C 398.400 166.527,398.233 165.200,398.000 165.200 C 397.778 165.200,397.600 164.133,397.600 162.800 C 397.600 161.467,397.422 160.400,397.200 160.400 C 396.980 160.400,396.800 159.404,396.800 158.187 C 396.800 156.590,396.633 155.911,396.200 155.745 C 395.780 155.583,395.600 154.928,395.600 153.557 C 395.600 152.481,395.420 151.600,395.200 151.600 C 394.980 151.600,394.800 150.790,394.800 149.800 C 394.800 148.467,394.644 148.000,394.200 148.000 C 393.747 148.000,393.600 147.511,393.600 146.000 C 393.600 144.900,393.420 144.000,393.200 144.000 C 392.980 144.000,392.800 143.370,392.800 142.600 C 392.800 141.830,392.620 141.200,392.400 141.200 C 392.180 141.200,392.000 140.570,392.000 139.800 C 392.000 138.822,391.819 138.400,391.400 138.400 C 390.981 138.400,390.800 137.978,390.800 137.000 C 390.800 136.230,390.620 135.600,390.400 135.600 C 390.180 135.600,390.000 134.880,390.000 134.000 C 390.000 132.844,389.833 132.400,389.400 132.400 C 388.981 132.400,388.800 131.978,388.800 131.000 C 388.800 130.230,388.620 129.600,388.400 129.600 C 388.180 129.600,388.000 128.970,388.000 128.200 C 388.000 127.430,387.820 126.800,387.600 126.800 C 387.380 126.800,387.200 126.350,387.200 125.800 C 387.200 125.178,386.973 124.800,386.600 124.800 C 386.181 124.800,386.000 124.378,386.000 123.400 C 386.000 122.630,385.820 122.000,385.600 122.000 C 385.380 122.000,385.200 121.550,385.200 121.000 C 385.200 120.450,385.020 120.000,384.800 120.000 C 384.580 120.000,384.400 119.634,384.400 119.187 C 384.400 118.741,384.130 118.271,383.800 118.145 C 383.458 118.013,383.200 117.417,383.200 116.757 C 383.200 116.121,383.020 115.600,382.800 115.600 C 382.580 115.600,382.400 115.150,382.400 114.600 C 382.400 113.978,382.173 113.600,381.800 113.600 C 381.427 113.600,381.200 113.222,381.200 112.600 C 381.200 112.050,381.020 111.600,380.800 111.600 C 380.580 111.600,380.400 111.150,380.400 110.600 C 380.400 110.050,380.220 109.600,380.000 109.600 C 379.780 109.600,379.600 109.234,379.600 108.787 C 379.600 108.341,379.330 107.871,379.000 107.745 C 378.670 107.618,378.400 107.184,378.400 106.781 C 378.400 106.377,378.220 105.936,378.000 105.800 C 377.780 105.664,377.600 105.203,377.600 104.776 C 377.600 104.349,377.330 104.000,377.000 104.000 C 376.670 104.000,376.400 103.730,376.400 103.400 C 376.400 103.070,376.220 102.800,376.000 102.800 C 375.780 102.800,375.600 102.350,375.600 101.800 C 375.600 101.250,375.420 100.800,375.200 100.800 C 374.980 100.800,374.800 100.440,374.800 100.000 C 374.800 99.556,374.533 99.200,374.200 99.200 C 373.854 99.200,373.600 98.838,373.600 98.346 C 373.600 97.876,373.150 97.075,372.600 96.565 C 372.050 96.055,371.600 95.360,371.600 95.019 C 371.600 94.679,371.420 94.400,371.200 94.400 C 370.980 94.400,370.800 93.993,370.800 93.495 C 370.800 92.996,370.351 92.253,369.800 91.839 C 369.250 91.426,368.800 90.753,368.800 90.344 C 368.800 89.935,368.620 89.600,368.400 89.600 C 368.180 89.600,368.000 89.330,368.000 89.000 C 368.000 88.670,367.730 88.400,367.400 88.400 C 367.067 88.400,366.800 88.044,366.800 87.600 C 366.800 87.160,366.620 86.800,366.400 86.800 C 366.180 86.800,366.000 86.530,366.000 86.200 C 366.000 85.870,365.820 85.600,365.600 85.600 C 365.380 85.600,365.200 85.283,365.200 84.896 C 365.200 84.509,364.574 83.654,363.809 82.996 C 363.043 82.338,362.413 81.479,362.409 81.087 C 362.404 80.696,362.130 80.271,361.800 80.145 C 361.470 80.018,361.200 79.741,361.200 79.529 C 361.200 79.010,360.162 78.000,359.629 78.000 C 359.393 78.000,359.200 77.625,359.200 77.167 C 359.200 76.708,358.570 75.721,357.800 74.974 C 357.030 74.226,356.400 73.422,356.400 73.188 C 356.400 72.954,355.590 71.941,354.600 70.936 C 353.610 69.932,352.800 68.951,352.800 68.755 C 352.800 68.560,352.607 68.400,352.371 68.400 C 351.756 68.400,350.800 67.357,350.800 66.685 C 350.800 66.370,350.350 65.774,349.800 65.361 C 349.250 64.948,348.800 64.460,348.800 64.276 C 348.800 63.800,347.736 62.800,347.229 62.800 C 346.993 62.800,346.800 62.607,346.800 62.371 C 346.800 61.905,345.815 60.800,345.400 60.800 C 345.066 60.800,344.000 59.734,344.000 59.400 C 344.000 58.985,342.895 58.000,342.429 58.000 C 342.193 58.000,342.000 57.807,342.000 57.571 C 342.000 57.105,341.015 56.000,340.600 56.000 C 340.266 56.000,339.200 54.934,339.200 54.600 C 339.200 54.185,338.095 53.200,337.629 53.200 C 337.393 53.200,337.200 52.973,337.200 52.695 C 337.200 52.417,336.715 51.832,336.122 51.395 C 335.530 50.958,334.770 50.285,334.433 49.900 C 334.097 49.515,333.579 49.200,333.283 49.200 C 332.638 49.200,331.600 48.231,331.600 47.629 C 331.600 47.393,331.440 47.200,331.245 47.200 C 331.049 47.200,330.068 46.390,329.064 45.400 C 328.059 44.410,327.046 43.600,326.812 43.600 C 326.578 43.600,325.774 42.970,325.026 42.200 C 324.279 41.430,323.292 40.800,322.833 40.800 C 322.375 40.800,322.000 40.607,322.000 40.371 C 322.000 39.818,320.982 38.800,320.429 38.800 C 320.193 38.800,320.000 38.620,320.000 38.400 C 320.000 38.180,319.550 38.000,319.000 38.000 C 318.450 38.000,318.000 37.818,318.000 37.596 C 318.000 36.927,315.761 34.800,315.057 34.800 C 314.696 34.800,314.400 34.620,314.400 34.400 C 314.400 34.180,314.130 34.000,313.800 34.000 C 313.470 34.000,313.200 33.820,313.200 33.600 C 313.200 33.380,312.840 33.200,312.400 33.200 C 311.956 33.200,311.600 32.933,311.600 32.600 C 311.600 32.270,311.330 32.000,311.000 32.000 C 310.670 32.000,310.400 31.820,310.400 31.600 C 310.400 31.380,310.121 31.200,309.781 31.200 C 309.440 31.200,308.745 30.750,308.235 30.200 C 307.725 29.650,306.924 29.200,306.454 29.200 C 305.984 29.200,305.600 29.020,305.600 28.800 C 305.600 28.580,305.321 28.400,304.981 28.400 C 304.640 28.400,303.945 27.950,303.435 27.400 C 302.925 26.850,302.124 26.400,301.654 26.400 C 301.162 26.400,300.800 26.146,300.800 25.800 C 300.800 25.467,300.444 25.200,300.000 25.200 C 299.560 25.200,299.200 25.020,299.200 24.800 C 299.200 24.580,298.750 24.400,298.200 24.400 C 297.650 24.400,297.200 24.220,297.200 24.000 C 297.200 23.780,296.930 23.600,296.600 23.600 C 296.270 23.600,296.000 23.330,296.000 23.000 C 296.000 22.670,295.651 22.400,295.224 22.400 C 294.797 22.400,294.336 22.220,294.200 22.000 C 294.064 21.780,293.603 21.600,293.176 21.600 C 292.749 21.600,292.400 21.423,292.400 21.208 C 292.400 20.992,291.950 20.702,291.400 20.564 C 290.850 20.426,290.400 20.153,290.400 19.957 C 290.400 19.760,289.950 19.600,289.400 19.600 C 288.850 19.600,288.400 19.420,288.400 19.200 C 288.400 18.980,288.034 18.800,287.587 18.800 C 287.141 18.800,286.671 18.530,286.545 18.200 C 286.418 17.870,285.884 17.600,285.357 17.600 C 284.831 17.600,284.400 17.420,284.400 17.200 C 284.400 16.980,283.860 16.800,283.200 16.800 C 282.540 16.800,282.000 16.623,282.000 16.408 C 282.000 16.192,281.550 15.902,281.000 15.764 C 280.450 15.626,280.000 15.353,280.000 15.157 C 280.000 14.960,279.550 14.800,279.000 14.800 C 278.450 14.800,278.000 14.620,278.000 14.400 C 278.000 14.180,277.370 14.000,276.600 14.000 C 275.622 14.000,275.200 13.819,275.200 13.400 C 275.200 13.027,274.822 12.800,274.200 12.800 C 273.650 12.800,273.200 12.620,273.200 12.400 C 273.200 12.180,272.570 12.000,271.800 12.000 C 271.030 12.000,270.400 11.820,270.400 11.600 C 270.400 11.380,269.770 11.200,269.000 11.200 C 268.022 11.200,267.600 11.019,267.600 10.600 C 267.600 10.167,267.156 10.000,266.000 10.000 C 265.120 10.000,264.400 9.820,264.400 9.600 C 264.400 9.380,263.770 9.200,263.000 9.200 C 262.022 9.200,261.600 9.019,261.600 8.600 C 261.600 8.181,261.178 8.000,260.200 8.000 C 259.430 8.000,258.800 7.820,258.800 7.600 C 258.800 7.380,258.170 7.200,257.400 7.200 C 256.630 7.200,256.000 7.020,256.000 6.800 C 256.000 6.580,255.100 6.400,254.000 6.400 C 252.489 6.400,252.000 6.253,252.000 5.800 C 252.000 5.356,251.533 5.200,250.200 5.200 C 249.210 5.200,248.400 5.020,248.400 4.800 C 248.400 4.580,247.519 4.400,246.443 4.400 C 245.072 4.400,244.417 4.220,244.255 3.800 C 244.089 3.367,243.410 3.200,241.813 3.200 C 240.596 3.200,239.600 3.020,239.600 2.800 C 239.600 2.578,238.533 2.400,237.200 2.400 C 235.867 2.400,234.800 2.222,234.800 2.000 C 234.800 1.767,233.473 1.600,231.620 1.600 C 229.022 1.600,228.369 1.473,228.053 0.908 C 227.672 0.228,188.670 -0.245,176.007 0.276 M200.800 18.518 C 200.800 19.543,206.091 35.007,206.540 35.294 C 206.793 35.456,211.005 35.591,215.900 35.594 C 220.816 35.597,224.800 35.759,224.800 35.955 C 224.800 36.313,220.387 39.712,213.900 44.351 C 209.899 47.213,209.924 47.141,211.399 51.588 C 216.152 65.921,216.300 66.776,213.596 64.281 C 213.048 63.775,210.134 61.612,207.119 59.474 C 204.105 57.336,201.529 55.409,201.396 55.193 C 200.683 54.040,197.645 55.726,191.367 60.759 C 188.833 62.791,185.038 65.196,184.782 64.933 C 184.520 64.663,186.706 57.105,188.002 53.800 C 190.711 46.888,191.326 48.006,180.500 40.143 C 177.585 38.026,175.200 36.138,175.200 35.947 C 175.200 35.756,179.318 35.600,184.351 35.600 C 194.465 35.600,193.927 35.745,194.774 32.800 C 195.058 31.810,195.435 30.640,195.612 30.200 C 195.788 29.760,196.242 28.410,196.621 27.200 C 196.999 25.990,197.452 24.640,197.626 24.200 C 197.800 23.760,198.330 22.185,198.804 20.700 C 199.572 18.292,200.800 16.950,200.800 18.518 M121.600 39.629 C 121.600 40.059,121.772 40.723,121.983 41.105 C 122.193 41.487,123.371 44.941,124.599 48.779 C 127.473 57.759,125.973 56.798,137.149 56.809 L 146.600 56.818 145.600 57.617 C 145.050 58.057,141.585 60.593,137.900 63.253 C 131.067 68.185,130.883 68.399,131.612 70.572 C 137.514 88.176,137.503 87.646,131.884 83.500 C 123.493 77.308,121.416 75.793,121.175 75.686 C 121.033 75.623,119.855 76.359,118.558 77.322 C 108.311 84.924,105.649 86.705,105.422 86.113 C 105.292 85.775,105.345 85.296,105.538 85.049 C 105.732 84.802,106.209 83.520,106.600 82.200 C 106.990 80.880,108.162 77.245,109.205 74.122 L 111.101 68.444 107.395 65.722 C 105.357 64.225,101.959 61.740,99.845 60.200 C 97.731 58.660,96.001 57.265,96.000 57.100 C 96.000 56.935,100.136 56.800,105.191 56.800 C 115.900 56.800,114.789 57.327,116.582 51.400 C 117.181 49.420,117.925 47.209,118.236 46.486 C 118.546 45.764,118.800 44.830,118.800 44.410 C 118.800 43.990,118.980 43.536,119.200 43.400 C 119.420 43.264,119.600 42.854,119.600 42.490 C 119.600 42.125,119.893 41.059,120.251 40.121 C 120.903 38.414,121.600 38.160,121.600 39.629 M281.220 44.200 C 281.919 46.400,282.845 49.190,283.278 50.400 C 283.710 51.610,284.202 53.144,284.370 53.809 C 285.169 56.977,284.551 56.800,294.814 56.800 C 305.122 56.800,305.066 56.777,301.300 59.437 C 299.136 60.965,289.919 67.709,289.233 68.265 C 289.074 68.394,290.489 72.937,293.444 81.792 C 295.333 87.449,295.296 87.443,286.000 80.542 C 285.010 79.807,283.044 78.403,281.630 77.420 L 279.060 75.635 277.230 76.962 C 276.224 77.693,274.065 79.236,272.433 80.392 C 270.801 81.548,269.271 82.655,269.033 82.852 C 266.703 84.781,264.879 85.993,264.300 85.996 C 263.405 86.001,263.286 86.578,265.634 79.517 C 266.752 76.153,267.818 72.860,268.001 72.200 C 268.184 71.540,268.518 70.409,268.743 69.686 L 269.152 68.371 265.276 65.523 C 263.144 63.957,259.614 61.353,257.431 59.737 L 253.463 56.800 262.699 56.800 C 273.896 56.800,272.858 57.202,274.410 52.271 C 275.115 50.032,275.842 47.840,276.025 47.400 C 276.208 46.960,276.933 44.730,277.635 42.445 C 279.130 37.584,279.118 37.578,281.220 44.200 M343.627 114.425 C 343.942 114.624,348.104 114.791,352.876 114.794 C 357.648 114.797,361.638 114.938,361.742 115.106 C 361.846 115.274,360.658 116.309,359.103 117.406 C 347.283 125.740,346.895 126.127,347.766 128.722 C 348.112 129.755,349.028 132.580,349.802 135.000 C 350.575 137.420,351.400 139.940,351.634 140.600 C 353.250 145.145,353.210 145.135,344.686 139.000 C 340.866 136.250,337.422 134.000,337.033 134.000 C 336.369 134.000,332.058 136.960,325.200 142.125 C 320.920 145.349,320.852 145.255,322.943 139.000 C 325.714 130.712,326.800 127.240,326.800 126.671 C 326.800 126.143,324.401 124.257,315.300 117.635 C 313.705 116.474,312.400 115.365,312.400 115.170 C 312.400 114.975,316.493 114.767,321.495 114.708 L 330.590 114.600 331.155 113.420 C 331.466 112.771,331.861 111.691,332.034 111.020 C 332.327 109.877,333.737 105.588,334.407 103.800 C 334.572 103.360,335.035 101.920,335.437 100.600 C 336.932 95.682,337.018 95.770,340.201 105.417 C 341.770 110.172,343.311 114.225,343.627 114.425 M64.379 99.600 C 64.774 100.810,65.965 104.476,67.025 107.748 C 69.534 115.492,68.383 114.800,78.762 114.800 C 88.918 114.800,88.800 114.755,85.300 117.284 C 83.815 118.356,82.330 119.453,82.000 119.721 C 81.670 119.988,79.651 121.466,77.512 123.004 C 72.409 126.675,72.460 124.792,77.087 138.708 C 79.178 144.996,79.137 145.011,72.600 140.353 C 69.520 138.158,66.321 135.820,65.492 135.156 C 63.343 133.436,63.024 133.512,58.475 136.821 C 56.223 138.460,53.080 140.745,51.492 141.900 C 47.675 144.675,46.665 144.320,48.406 140.813 C 48.574 140.476,49.383 138.040,50.204 135.400 C 51.026 132.760,51.946 129.921,52.249 129.092 C 53.392 125.964,54.003 126.572,39.236 116.151 C 37.419 114.869,37.833 114.800,47.405 114.800 C 58.006 114.800,56.996 115.333,58.785 108.800 C 59.056 107.810,59.411 106.730,59.575 106.400 C 59.738 106.070,60.185 104.720,60.569 103.400 C 60.952 102.080,61.521 100.409,61.833 99.686 C 62.145 98.964,62.400 98.096,62.400 97.757 C 62.400 96.324,63.706 97.540,64.379 99.600 M214.400 122.986 C 219.898 123.998,227.768 126.150,228.580 126.866 C 228.789 127.049,229.217 127.200,229.532 127.200 C 230.455 127.200,237.881 131.072,241.584 133.485 C 257.742 144.011,267.768 158.722,272.332 178.600 L 273.066 181.800 289.133 181.905 C 297.970 181.962,305.200 182.110,305.200 182.233 C 305.200 182.554,299.681 199.295,298.549 202.408 C 298.027 203.843,297.600 205.244,297.600 205.523 C 297.600 205.801,297.309 206.472,296.954 207.014 L 296.308 208.000 228.154 208.000 L 160.000 208.000 160.000 209.540 C 160.000 210.387,160.159 211.602,160.353 212.240 C 160.548 212.878,160.929 214.210,161.200 215.200 C 167.589 238.490,190.572 250.625,216.400 244.346 C 226.676 241.848,234.053 237.137,241.288 228.451 L 242.376 227.145 244.095 228.273 C 245.040 228.893,246.112 229.580,246.478 229.800 C 248.220 230.849,264.840 241.510,266.600 242.708 C 269.757 244.857,269.698 245.244,265.319 251.047 C 259.324 258.990,250.242 265.826,240.000 270.103 C 239.230 270.425,238.060 270.912,237.400 271.187 C 223.271 277.065,199.607 278.864,184.800 275.186 C 180.237 274.052,176.995 273.055,174.940 272.153 C 174.246 271.849,173.550 271.600,173.392 271.600 C 172.893 271.600,165.783 268.074,163.137 266.515 C 154.935 261.680,146.828 254.572,141.794 247.800 C 141.140 246.920,140.500 246.110,140.372 246.000 C 138.022 243.977,130.656 229.687,129.340 224.600 C 129.226 224.160,128.988 223.440,128.811 223.000 C 128.161 221.388,126.400 213.947,126.400 212.814 C 126.400 212.388,126.206 211.133,125.968 210.024 L 125.536 208.009 110.268 207.905 L 95.000 207.800 95.000 194.800 L 95.000 181.800 110.914 181.695 C 123.139 181.615,126.866 181.476,126.989 181.095 C 127.076 180.823,127.702 178.800,128.379 176.600 C 130.942 168.266,136.751 156.006,138.487 155.267 C 138.659 155.193,138.800 154.955,138.800 154.738 C 138.800 154.521,139.025 154.106,139.300 153.816 C 139.575 153.526,140.160 152.781,140.600 152.160 C 149.431 139.702,167.740 127.536,182.400 124.384 C 193.905 121.910,205.739 121.393,214.400 122.986 M193.800 150.879 C 191.364 151.247,190.868 151.368,186.600 152.630 C 175.858 155.806,166.154 165.642,162.063 177.502 C 160.467 182.129,155.672 181.600,199.200 181.600 L 237.200 181.600 237.182 179.900 C 237.164 178.125,236.379 174.646,235.886 174.153 C 235.729 173.995,235.600 173.612,235.600 173.301 C 235.600 172.384,232.942 167.357,231.260 165.093 C 223.341 154.432,208.228 148.698,193.800 150.879 M44.394 182.400 C 45.337 185.370,46.557 189.105,47.106 190.700 L 48.104 193.600 57.452 193.600 C 63.034 193.600,66.800 193.752,66.800 193.977 C 66.800 194.335,60.990 198.783,55.072 202.957 C 53.572 204.015,52.260 205.099,52.158 205.366 C 52.003 205.769,54.641 214.393,56.967 221.090 C 57.346 222.182,57.412 222.869,57.153 223.029 C 56.711 223.302,56.542 223.191,48.387 217.268 C 45.258 214.995,42.461 213.045,42.171 212.934 C 41.702 212.754,40.703 213.370,36.874 216.200 C 25.350 224.719,25.642 224.712,28.362 216.400 C 29.045 214.310,30.054 211.228,30.602 209.552 C 32.138 204.860,32.772 205.656,20.720 197.169 C 15.813 193.713,15.941 193.635,26.657 193.508 C 34.232 193.418,35.763 193.302,36.014 192.800 C 36.180 192.470,37.442 188.690,38.821 184.400 C 40.199 180.110,41.409 176.448,41.510 176.262 C 41.928 175.494,42.773 177.292,44.394 182.400 M359.364 178.300 C 359.765 179.565,360.234 180.960,360.406 181.400 C 360.579 181.840,361.037 183.280,361.424 184.600 C 361.812 185.920,362.265 187.270,362.431 187.600 C 362.597 187.930,363.046 189.280,363.428 190.600 C 364.345 193.765,363.698 193.587,374.316 193.594 C 385.334 193.601,385.205 192.877,375.459 200.014 C 367.612 205.760,368.023 205.148,369.358 209.103 C 371.201 214.559,373.113 220.567,373.368 221.700 C 373.784 223.548,372.554 223.047,367.600 219.349 C 361.873 215.075,358.559 212.800,358.059 212.800 C 357.848 212.800,355.813 214.199,353.538 215.908 C 342.882 223.913,342.126 224.288,343.208 221.028 C 345.068 215.420,347.959 206.415,348.067 205.891 C 348.159 205.445,346.023 203.668,341.200 200.176 C 331.515 193.164,331.367 193.838,342.645 193.600 L 352.126 193.400 352.720 191.600 C 353.046 190.610,353.443 189.440,353.602 189.000 C 353.761 188.560,354.201 187.210,354.579 186.000 C 354.958 184.790,355.415 183.440,355.594 183.000 C 355.773 182.560,356.233 181.120,356.615 179.800 C 357.931 175.259,358.330 175.041,359.364 178.300 M339.198 260.600 C 339.625 261.676,340.473 264.262,341.821 268.600 C 343.234 273.147,342.283 272.787,352.900 272.794 C 362.233 272.800,362.998 272.943,360.900 274.286 C 360.295 274.673,359.603 275.172,359.362 275.395 C 359.121 275.618,356.381 277.600,353.274 279.800 C 350.167 282.000,347.519 284.066,347.390 284.391 C 347.201 284.866,349.408 292.552,350.779 296.200 C 353.396 303.157,353.179 303.324,347.200 298.961 C 338.698 292.757,337.565 292.000,336.781 292.000 C 336.351 292.000,336.000 292.141,336.000 292.314 C 336.000 292.486,335.415 292.968,334.700 293.384 C 333.985 293.799,333.310 294.248,333.200 294.381 C 332.863 294.787,322.063 302.400,321.824 302.400 C 321.283 302.400,323.111 295.703,324.826 291.400 C 326.269 287.782,327.010 284.512,326.497 284.033 C 326.038 283.604,319.976 279.167,313.700 274.665 C 311.145 272.833,311.280 272.800,321.413 272.800 C 330.025 272.800,330.844 272.740,331.049 272.100 C 331.172 271.715,331.417 271.040,331.593 270.600 C 331.770 270.160,332.582 267.640,333.397 265.000 C 334.213 262.360,335.132 259.609,335.440 258.886 C 335.748 258.164,336.000 257.278,336.000 256.918 C 336.000 254.538,337.388 254.767,338.130 257.269 C 338.543 258.661,339.024 260.160,339.198 260.600 M63.482 255.700 C 63.928 256.287,64.553 258.070,66.598 264.600 C 67.425 267.240,68.248 269.760,68.426 270.200 C 68.604 270.640,68.863 271.405,69.002 271.900 L 69.254 272.800 78.627 272.800 C 84.097 272.800,88.000 272.954,88.000 273.170 C 88.000 273.373,84.882 275.791,81.071 278.543 C 72.250 284.913,72.446 284.499,75.173 291.000 C 76.887 295.085,78.805 302.400,78.162 302.400 C 77.900 302.400,73.244 299.073,67.517 294.792 C 65.473 293.263,63.530 292.012,63.200 292.010 C 62.656 292.007,53.609 298.290,49.866 301.271 C 47.625 303.056,47.374 302.367,48.737 298.169 C 49.374 296.206,50.300 293.250,50.795 291.600 C 51.289 289.950,51.954 288.009,52.272 287.286 C 53.409 284.705,53.149 284.377,45.629 278.888 C 41.795 276.090,38.586 273.578,38.498 273.307 C 38.375 272.929,40.498 272.790,47.669 272.707 L 56.999 272.600 58.743 267.200 C 59.702 264.230,60.631 261.440,60.808 261.000 C 60.984 260.560,61.459 259.077,61.864 257.703 C 62.626 255.119,62.839 254.854,63.482 255.700 M123.002 318.000 C 123.817 320.530,124.735 323.191,125.042 323.914 C 125.349 324.636,125.600 325.570,125.600 325.990 C 125.600 326.410,125.780 326.864,126.000 327.000 C 126.220 327.136,126.400 327.647,126.400 328.135 C 126.400 330.703,126.774 330.800,136.623 330.800 C 147.371 330.800,147.217 330.640,140.813 335.142 C 138.198 336.980,135.731 338.736,135.330 339.043 C 134.928 339.351,133.835 340.143,132.900 340.804 C 130.847 342.254,130.847 342.262,132.602 347.565 C 133.373 349.894,134.194 352.430,134.426 353.200 C 134.659 353.970,135.084 355.230,135.372 356.000 C 137.239 360.998,137.154 361.458,134.722 359.511 C 133.775 358.753,130.750 356.537,128.000 354.588 C 125.250 352.638,122.910 350.925,122.800 350.781 C 121.497 349.078,121.545 349.056,112.334 355.717 C 108.747 358.312,105.751 360.253,105.677 360.030 C 105.602 359.807,106.095 357.856,106.771 355.694 C 107.447 353.532,108.000 351.492,108.000 351.161 C 108.000 350.831,108.157 350.389,108.350 350.180 C 108.894 349.589,110.888 342.806,110.678 342.259 C 110.575 341.991,109.706 341.238,108.746 340.586 C 107.785 339.934,106.803 339.220,106.563 339.000 C 106.322 338.780,103.948 337.070,101.286 335.200 C 94.780 330.630,94.621 330.800,105.391 330.800 C 115.715 330.800,114.899 331.117,116.193 326.600 C 116.571 325.280,117.027 323.840,117.206 323.400 C 117.385 322.960,117.816 321.700,118.162 320.600 C 121.169 311.060,120.826 311.244,123.002 318.000 M280.391 315.152 C 280.399 315.669,282.116 321.240,282.809 323.000 C 282.983 323.440,283.511 325.065,283.984 326.612 C 285.311 330.951,284.337 330.573,294.771 330.800 C 301.260 330.941,303.888 331.128,303.686 331.434 C 303.529 331.673,302.050 332.842,300.400 334.032 C 298.750 335.222,295.911 337.302,294.092 338.654 C 292.273 340.006,290.387 341.376,289.902 341.698 L 289.021 342.284 290.949 348.242 C 292.009 351.519,293.129 354.791,293.438 355.514 C 293.747 356.236,294.000 357.093,294.000 357.419 C 294.000 357.745,294.220 358.364,294.490 358.795 C 295.847 360.968,293.988 360.246,289.072 356.691 C 286.264 354.661,282.880 352.233,281.552 351.296 L 279.138 349.593 276.706 351.296 C 275.369 352.233,271.923 354.741,269.049 356.869 C 262.776 361.514,262.564 361.495,264.652 356.486 C 264.954 355.764,265.200 354.907,265.200 354.581 C 265.200 354.255,265.359 353.677,265.553 353.295 C 265.747 352.913,266.299 351.430,266.779 350.000 C 269.530 341.817,269.937 342.860,261.609 336.766 C 257.763 333.953,254.553 331.460,254.475 331.226 C 254.378 330.933,257.090 330.800,263.134 330.800 C 274.005 330.800,272.866 331.359,274.840 325.059 C 276.212 320.679,277.286 317.340,278.652 313.203 C 278.881 312.510,280.376 314.185,280.391 315.152 M201.750 338.100 C 202.952 342.008,203.885 344.874,204.388 346.200 C 204.554 346.640,205.015 347.990,205.412 349.200 C 206.375 352.133,205.839 351.987,215.676 351.994 C 225.070 352.001,225.661 352.148,223.190 353.870 C 222.299 354.492,221.240 355.270,220.838 355.600 C 220.436 355.930,217.930 357.730,215.270 359.600 C 211.414 362.311,210.430 363.194,210.416 363.959 C 210.403 364.748,213.678 375.343,214.818 378.200 C 216.309 381.933,215.673 382.034,211.192 378.775 C 209.107 377.257,205.911 374.932,204.090 373.608 C 200.428 370.943,199.780 370.781,198.131 372.113 C 197.509 372.616,194.750 374.629,192.000 376.586 C 189.250 378.544,186.910 380.266,186.800 380.413 C 184.930 382.910,184.376 381.111,185.758 377.030 C 186.286 375.474,187.113 372.850,187.597 371.200 C 188.080 369.550,188.719 367.570,189.015 366.800 C 190.317 363.417,190.414 363.642,186.404 360.793 C 184.756 359.623,183.211 358.470,182.971 358.232 C 182.731 357.995,180.892 356.645,178.885 355.233 C 176.878 353.821,175.328 352.516,175.441 352.333 C 175.555 352.150,179.552 351.997,184.324 351.994 C 194.635 351.987,193.661 352.454,195.623 346.565 C 197.098 342.137,199.079 336.059,199.425 334.900 C 199.840 333.513,200.706 334.705,201.750 338.100 " stroke="none" fill="#0b43a3" fill-rule="evenodd"></path></g></svg>