<svg width="30" height="30" viewBox="0 0 30 30" fill="none" xmlns="http://www.w3.org/2000/svg">
<g clip-path="url(#clip0_438_986)">
<path d="M14.8225 29.9675C22.9927 29.9675 29.616 23.2659 29.616 14.999C29.616 6.73218 22.9927 0.0305786 14.8225 0.0305786C6.65232 0.0305786 0.0290527 6.73218 0.0290527 14.999C0.0290527 23.2659 6.65232 29.9675 14.8225 29.9675Z" fill="black" stroke="black" stroke-width="0.0542295" stroke-miterlimit="11.3386"/>
<path d="M6.66158 6.67326C6.03783 7.33595 5.52323 7.89346 5.51803 7.90398C5.51283 7.91975 6.07421 8.47726 6.76554 9.13995C7.45688 9.8079 8.05984 10.3917 8.10143 10.4285L8.1794 10.5022L8.03905 10.7388C6.80713 12.8005 6.55243 15.283 7.32693 17.5656C7.47247 17.9969 7.72197 18.5491 7.93509 18.912C8.03905 19.0909 8.08583 19.2066 8.07544 19.2276C8.06504 19.2486 7.43609 19.9219 6.67718 20.7266C5.91827 21.526 5.29971 22.1939 5.28932 22.2045C5.28412 22.2202 7.4101 24.2977 7.61282 24.466L7.69079 24.5344L8.89152 23.2669C9.55167 22.5674 10.1702 21.9099 10.2638 21.81L10.4405 21.6312L10.6069 21.7364C11.4541 22.2834 12.4469 22.662 13.5437 22.8619C14.0947 22.9618 15.1447 22.9881 15.7321 22.9145C16.8652 22.783 17.988 22.3991 18.908 21.8363L19.1472 21.689L19.4019 21.9415C19.958 22.4885 22.0372 24.4871 22.058 24.4976C22.0788 24.5081 24.3607 22.094 24.3555 22.0625C24.3503 22.0467 22.7857 20.5267 21.8293 19.6168L21.5122 19.3118L21.6578 19.0698C22.8793 17.0134 23.134 14.5204 22.3439 12.222C22.2296 11.8854 21.8813 11.128 21.6786 10.7809L21.5798 10.6073L22.9157 9.19255C23.6486 8.4194 24.2464 7.77249 24.2412 7.75671C24.2204 7.70412 21.8813 5.46884 21.8501 5.46884C21.8293 5.46884 21.2419 6.07368 20.5402 6.82053C19.8385 7.56211 19.2563 8.17221 19.2407 8.17747C19.2303 8.18273 19.1627 8.15117 19.1004 8.10384C18.9236 7.98287 18.4766 7.73567 18.2271 7.61997C17.4682 7.26758 16.7613 7.05194 15.94 6.93097C15.5138 6.86786 14.2351 6.85734 13.84 6.9152C12.894 7.05194 12.1195 7.28862 11.3294 7.68834C11.1007 7.79879 10.8356 7.94605 10.7316 8.00917L10.5445 8.12487L10.3314 7.91449C10.217 7.79879 9.69721 7.3044 9.18261 6.80475C8.66801 6.31036 8.14301 5.80545 8.01826 5.67922L7.78955 5.45306L6.66158 6.67326ZM15.389 10.1024C16.2155 10.2024 16.9536 10.4864 17.6345 10.9702C17.9828 11.2174 18.5026 11.7434 18.7469 12.0958C20.1348 14.0839 19.8697 16.7872 18.1232 18.4439C16.6313 19.8535 14.4742 20.1691 12.6601 19.2329C11.3502 18.5544 10.4249 17.3132 10.1286 15.8247C10.0351 15.3514 10.0351 14.4678 10.1286 13.9997C10.217 13.5369 10.3366 13.2055 10.5601 12.7427C11.4541 10.9229 13.393 9.8605 15.389 10.1024Z" fill="white"/>
</g>
<defs>
<clipPath id="clip0_438_986">
<rect width="29.6493" height="30" fill="white"/>
</clipPath>
</defs>
</svg>
