<svg width="30" height="30" viewBox="0 0 30 30" fill="none" xmlns="http://www.w3.org/2000/svg">
  <path d="M15 29.4296C22.9901 29.4296 29.4674 23.1102 29.4674 15.3149C29.4674 7.51957 22.9901 1.2002 15 1.2002C7.00979 1.2002 0.532471 7.51957 0.532471 15.3149C0.532471 23.1102 7.00979 29.4296 15 29.4296Z" fill="white" />
  <path d="M15 29.1147C22.9901 29.1147 29.4674 22.7953 29.4674 15C29.4674 7.20463 22.9901 0.885254 15 0.885254C7.00979 0.885254 0.532471 7.20463 0.532471 15C0.532471 22.7953 7.00979 29.1147 15 29.1147Z" fill="black" stroke="white" stroke-width="0.887521" />
  <path fill-rule="evenodd" clip-rule="evenodd" d="M15.5471 10.057C15.5471 9.78579 15.3391 9.56592 15.0826 9.56592C15.0826 9.56592 15.0824 9.56592 15.0821 9.56592C14.8258 9.56592 14.6179 9.78579 14.6179 10.057C14.6179 12.0358 14.6179 19.4158 14.6179 21.3949C14.6179 21.6661 14.8258 21.886 15.0821 21.886C15.0824 21.886 15.0826 21.886 15.0826 21.886C15.3391 21.886 15.5471 21.6661 15.5471 21.3949C15.5471 19.4158 15.5471 12.0358 15.5471 10.057Z" fill="white" />
  <path fill-rule="evenodd" clip-rule="evenodd" d="M13.6709 19.4008C13.4145 19.4005 13.2064 19.6202 13.2062 19.8914C13.2062 19.8914 13.2062 19.8917 13.2062 19.892C13.206 20.163 13.4137 20.383 13.6701 20.3832C14.3834 20.3838 15.7409 20.385 16.4541 20.3857C16.7106 20.3859 16.9187 20.1662 16.9189 19.8953C16.9189 19.895 16.9189 19.8947 16.9189 19.8947C16.9191 19.6235 16.7114 19.4034 16.4549 19.4032C15.7416 19.4026 14.3842 19.4014 13.6709 19.4008Z" fill="white" />
  <path fill-rule="evenodd" clip-rule="evenodd" d="M11.3755 12.9779C11.1189 12.9777 10.911 13.1974 10.9108 13.4686C10.9108 13.4686 10.9108 13.4689 10.9108 13.4692C10.9106 13.7401 11.1182 13.9601 11.3747 13.9604C12.8325 13.9616 17.3069 13.9656 18.7647 13.9669C19.021 13.9671 19.2292 13.7474 19.2294 13.4765C19.2294 13.4762 19.2294 13.4759 19.2294 13.4759C19.2296 13.2047 19.0218 12.9846 18.7654 12.9844C17.3077 12.9831 12.8333 12.9792 11.3755 12.9779Z" fill="white" />
  <path fill-rule="evenodd" clip-rule="evenodd" d="M12.9066 10.4956C12.7251 10.3041 12.4311 10.3044 12.2499 10.4964C12.2499 10.4964 12.2497 10.4966 12.2495 10.4968C12.0685 10.6886 12.0688 10.9995 12.2503 11.1911C13.2503 12.2461 16.2483 15.4093 17.2483 16.4644C17.4298 16.6559 17.7238 16.6556 17.9048 16.4638C17.905 16.4636 17.9052 16.4634 17.9052 16.4634C18.0864 16.2714 18.0861 15.9605 17.9045 15.7689C16.9046 14.7139 13.9066 11.5507 12.9066 10.4956Z" fill="white" />
  <path fill-rule="evenodd" clip-rule="evenodd" d="M12.2563 15.7776C12.0753 15.9696 12.0758 16.2805 12.2575 16.472C12.2575 16.472 12.2577 16.4722 12.2579 16.4724C12.4394 16.6637 12.7334 16.6631 12.9145 16.471C13.9116 15.413 16.9011 12.2409 17.8983 11.1828C18.0793 10.9907 18.0788 10.6798 17.8973 10.4886C17.8971 10.4884 17.8969 10.4882 17.8969 10.4882C17.7152 10.2967 17.4212 10.2973 17.2401 10.4894C16.243 11.5474 13.2534 14.7195 12.2563 15.7776Z" fill="white" />
  <path d="M15.0055 27.5325C22.0456 27.5325 27.7528 21.9645 27.7528 15.0961C27.7528 8.22764 22.0456 2.65967 15.0055 2.65967C7.96543 2.65967 2.2583 8.22764 2.2583 15.0961C2.2583 21.9645 7.96543 27.5325 15.0055 27.5325Z" stroke="#F0827D" stroke-width="0.509853" />
</svg>
  