<svg width="30" height="30" viewBox="0 0 30 30" fill="none" xmlns="http://www.w3.org/2000/svg">
<g clip-path="url(#clip0_438_995)">
<path d="M14.8247 30C23.0121 30 29.6493 23.2843 29.6493 15C29.6493 6.71573 23.0121 0 14.8247 0C6.63723 0 0 6.71573 0 15C0 23.2843 6.63723 30 14.8247 30Z" fill="url(#paint0_linear_438_995)"/>
<path d="M7.52802 19.5V12.44L12.8194 16.4695V19.5H14.17V16.185C14.1697 16.0618 14.1413 15.9404 14.0868 15.8302C14.0324 15.72 13.9534 15.6241 13.8562 15.55L7.43907 10.6615C7.3217 10.5733 7.18246 10.5197 7.03681 10.5068C6.89116 10.4938 6.74482 10.522 6.61405 10.5882C6.48328 10.6543 6.3732 10.7559 6.29605 10.8816C6.21889 11.0072 6.17768 11.1521 6.177 11.3V19.5H7.52802ZM22.1619 19.5V12.44L16.8705 16.4695V19.5H15.52V16.185C15.5202 16.0618 15.5487 15.9404 15.6032 15.8302C15.6576 15.72 15.7365 15.6241 15.8338 15.55L22.2509 10.6635C22.3681 10.5754 22.5072 10.5218 22.6527 10.5088C22.7981 10.4958 22.9443 10.5238 23.075 10.5897C23.2057 10.6556 23.3158 10.7569 23.3931 10.8823C23.4704 11.0076 23.5119 11.1522 23.513 11.3V19.5H22.1619Z" fill="white"/>
</g>
<defs>
<linearGradient id="paint0_linear_438_995" x1="14.8247" y1="0" x2="14.8247" y2="30" gradientUnits="userSpaceOnUse">
<stop stop-color="#4FA89B"/>
<stop offset="1" stop-color="#6ACEBB"/>
</linearGradient>
<clipPath id="clip0_438_995">
<rect width="29.6493" height="30" fill="white"/>
</clipPath>
</defs>
</svg>
