<svg id="svg" version="1.1" xmlns="http://www.w3.org/2000/svg" xmlns:xlink="http://www.w3.org/1999/xlink" width="400" height="400" viewBox="0, 0, 400,400"><g id="svgg"><path id="path0" d="M189.600 124.382 C 184.266 125.255,179.756 126.386,175.800 127.845 C 172.881 128.921,172.164 129.221,168.200 131.020 C 165.595 132.203,158.449 136.405,156.739 137.760 C 156.156 138.222,155.076 139.050,154.340 139.600 C 152.850 140.713,149.799 143.451,147.625 145.625 C 138.420 154.830,132.824 164.275,128.800 177.400 L 127.329 182.200 111.364 182.400 L 95.400 182.600 95.400 195.200 L 95.400 207.800 110.676 207.905 L 125.952 208.009 126.215 209.905 C 130.805 243.089,154.287 268.142,187.306 275.084 C 193.460 276.377,210.520 276.716,217.000 275.672 C 240.292 271.922,256.951 262.721,266.538 248.310 C 269.330 244.114,269.818 244.970,261.697 239.816 C 258.014 237.478,252.210 233.778,248.800 231.593 C 241.559 226.954,242.054 227.075,240.270 229.500 C 225.675 249.341,188.923 251.723,171.679 233.946 C 165.862 227.948,161.933 220.403,160.007 211.523 C 159.634 209.808,159.420 208.313,159.531 208.202 C 159.642 208.091,190.453 208.000,227.999 208.000 L 296.264 208.000 300.479 195.414 C 302.797 188.491,304.598 182.731,304.480 182.614 C 304.363 182.496,297.209 182.400,288.582 182.400 C 270.822 182.400,272.392 182.752,271.623 178.600 C 267.338 155.459,248.925 134.964,225.400 127.150 C 215.229 123.772,200.353 122.622,189.600 124.382 M205.210 151.614 C 221.799 153.640,233.837 164.050,236.945 179.057 C 237.257 180.566,237.432 181.935,237.333 182.100 C 236.975 182.696,160.800 182.460,160.800 181.863 C 160.800 180.999,162.190 177.200,163.685 173.980 C 171.065 158.077,187.159 149.409,205.210 151.614 " stroke="none" fill="#caf2ea" fill-rule="evenodd"></path><path id="path1" d="M169.200 0.379 C 167.201 0.580,167.011 0.682,167.125 1.500 C 167.194 1.995,167.065 2.400,166.838 2.400 C 166.611 2.400,166.529 2.130,166.655 1.800 C 166.894 1.179,164.057 0.876,163.474 1.460 C 163.331 1.603,162.626 1.765,161.907 1.821 C 159.312 2.023,156.777 2.513,156.567 2.853 C 156.449 3.044,155.924 3.200,155.400 3.200 C 154.876 3.200,154.336 3.380,154.200 3.600 C 154.064 3.820,154.173 4.000,154.443 4.000 C 154.713 4.000,154.831 4.102,154.706 4.228 C 154.580 4.353,154.116 4.229,153.673 3.953 C 152.881 3.458,150.664 3.838,148.785 4.790 C 148.446 4.961,147.366 5.224,146.385 5.373 C 145.403 5.523,144.240 5.799,143.800 5.986 C 143.360 6.174,142.674 6.433,142.275 6.561 C 141.876 6.689,141.641 6.943,141.754 7.125 C 141.866 7.307,141.416 7.376,140.753 7.278 C 140.091 7.181,138.795 7.415,137.874 7.799 C 136.953 8.182,135.840 8.644,135.400 8.825 C 134.960 9.005,134.017 9.268,133.305 9.407 C 131.643 9.733,131.296 10.306,132.474 10.778 L 133.400 11.149 132.500 11.175 C 132.005 11.189,131.600 11.020,131.600 10.800 C 131.600 10.305,129.730 10.267,129.427 10.756 C 129.306 10.951,128.736 11.230,128.160 11.374 C 126.726 11.734,123.431 13.289,123.266 13.684 C 123.192 13.860,122.976 13.909,122.786 13.791 C 122.398 13.552,118.675 15.183,118.466 15.684 C 118.392 15.860,118.175 15.908,117.983 15.790 C 117.682 15.603,115.228 16.659,112.600 18.107 C 112.160 18.349,111.260 18.796,110.600 19.099 C 109.940 19.403,109.055 19.840,108.632 20.071 C 107.338 20.779,101.867 23.689,100.671 24.306 C 100.049 24.626,99.446 25.137,99.329 25.442 C 99.212 25.746,98.954 25.895,98.755 25.772 C 98.394 25.549,96.059 26.992,95.506 27.781 C 95.344 28.011,95.209 28.067,95.206 27.905 C 95.201 27.637,90.871 30.214,90.400 30.766 C 90.064 31.160,88.640 32.010,87.900 32.258 C 87.515 32.388,87.200 32.624,87.200 32.784 C 87.200 32.943,86.570 33.413,85.800 33.828 C 85.030 34.243,84.400 34.721,84.400 34.891 C 84.400 35.061,84.212 35.200,83.983 35.200 C 83.410 35.200,79.200 38.411,79.200 38.848 C 79.200 39.042,78.938 39.200,78.618 39.200 C 78.298 39.200,77.586 39.650,77.036 40.200 C 76.486 40.750,75.913 41.200,75.763 41.200 C 75.613 41.200,74.659 41.924,73.645 42.809 C 69.256 46.635,68.121 47.605,66.800 48.656 C 64.706 50.322,49.545 65.561,48.182 67.369 C 47.532 68.232,46.550 69.410,46.000 69.988 C 45.450 70.565,44.190 72.065,43.200 73.322 C 42.210 74.578,40.905 76.164,40.300 76.845 C 39.695 77.527,39.200 78.237,39.200 78.424 C 39.200 78.611,38.795 79.199,38.300 79.731 C 37.805 80.263,36.950 81.362,36.400 82.173 C 35.850 82.984,35.210 83.862,34.978 84.124 C 34.745 84.386,34.211 85.185,33.791 85.900 C 33.371 86.615,32.907 87.200,32.760 87.200 C 32.614 87.200,32.388 87.515,32.258 87.900 C 32.007 88.647,31.156 90.070,30.761 90.400 C 30.130 90.929,25.613 98.497,25.773 98.757 C 25.874 98.920,25.607 99.307,25.179 99.615 C 24.750 99.924,24.400 100.365,24.400 100.595 C 24.400 100.826,23.935 101.698,23.367 102.534 C 22.406 103.949,22.292 105.561,23.193 105.005 C 23.432 104.856,23.484 105.037,23.322 105.459 C 23.157 105.890,22.992 105.975,22.893 105.680 C 22.528 104.583,21.720 105.372,20.410 108.102 C 19.646 109.696,18.688 111.496,18.281 112.102 C 17.875 112.708,17.511 113.817,17.471 114.567 C 17.432 115.316,17.260 115.901,17.090 115.865 C 16.730 115.790,15.904 117.161,15.020 119.300 C 14.679 120.125,14.118 121.475,13.773 122.300 C 12.751 124.744,12.424 125.540,11.963 126.700 C 11.723 127.305,11.273 128.310,10.963 128.932 C 10.653 129.555,10.394 130.455,10.387 130.932 C 10.380 131.410,10.110 132.149,9.787 132.576 C 9.464 133.004,9.200 133.758,9.200 134.253 C 9.200 134.748,9.020 135.264,8.800 135.400 C 8.580 135.536,8.400 135.976,8.400 136.378 C 8.400 136.780,8.131 137.624,7.802 138.254 C 7.474 138.884,7.204 139.985,7.202 140.700 C 7.201 141.415,7.020 142.000,6.800 142.000 C 6.580 142.000,6.400 142.414,6.400 142.920 C 6.400 143.426,6.205 144.035,5.966 144.274 C 5.727 144.513,5.502 145.702,5.466 146.917 C 5.430 148.132,5.247 149.098,5.059 149.063 C 4.629 148.983,3.753 151.832,3.384 154.514 C 3.229 155.644,2.956 156.845,2.778 157.184 C 2.052 158.563,1.553 162.765,2.014 163.626 C 2.262 164.089,2.360 164.573,2.232 164.701 C 2.105 164.829,2.000 164.713,2.000 164.443 C 2.000 164.173,1.820 164.064,1.600 164.200 C 1.380 164.336,1.200 165.031,1.200 165.744 C 1.200 166.457,1.034 167.211,0.830 167.420 C 0.264 168.001,-0.209 177.200,0.327 177.200 C 0.585 177.200,0.821 176.097,0.903 174.500 L 1.043 171.800 1.122 174.667 C 1.176 176.663,1.048 177.584,0.700 177.700 C 0.308 177.831,0.200 182.649,0.200 200.000 C 0.200 217.351,0.308 222.169,0.700 222.300 C 1.048 222.416,1.176 223.337,1.122 225.333 L 1.043 228.200 0.903 225.500 C 0.821 223.903,0.585 222.800,0.327 222.800 C -0.209 222.800,0.264 231.999,0.830 232.580 C 1.034 232.789,1.200 233.543,1.200 234.256 C 1.200 235.488,1.738 236.352,2.100 235.702 C 2.193 235.536,2.176 235.670,2.063 236.000 C 1.625 237.277,2.269 242.800,2.856 242.800 C 3.045 242.800,3.200 243.329,3.200 243.976 C 3.200 244.623,3.380 245.264,3.600 245.400 C 3.820 245.536,4.000 245.444,4.000 245.195 C 4.000 244.933,4.263 245.006,4.626 245.368 C 5.024 245.767,5.192 246.467,5.090 247.297 L 4.928 248.600 4.864 247.267 C 4.822 246.394,4.627 245.993,4.300 246.106 C 3.204 246.484,4.280 251.056,5.425 250.883 C 6.009 250.795,6.066 250.857,5.656 251.134 C 5.052 251.542,5.366 255.408,6.037 255.823 C 6.237 255.946,6.400 256.487,6.400 257.024 C 6.400 257.561,6.580 258.000,6.800 258.000 C 7.020 258.000,7.201 258.585,7.202 259.300 C 7.204 260.015,7.474 261.116,7.802 261.746 C 8.131 262.376,8.400 263.220,8.400 263.622 C 8.400 264.024,8.580 264.464,8.800 264.600 C 9.020 264.736,9.201 265.152,9.202 265.524 C 9.204 265.896,9.474 266.716,9.802 267.346 C 10.131 267.976,10.399 268.696,10.399 268.946 C 10.398 269.432,11.901 273.255,13.452 276.711 C 13.974 277.872,14.400 279.087,14.400 279.411 C 14.400 279.735,14.566 280.000,14.768 280.000 C 14.971 280.000,15.263 280.585,15.418 281.300 C 15.573 282.015,16.013 283.050,16.397 283.600 C 16.781 284.150,17.233 285.050,17.401 285.600 C 17.707 286.598,21.619 294.421,22.002 294.800 C 22.113 294.910,22.743 296.080,23.402 297.400 C 24.061 298.720,24.708 299.890,24.840 300.000 C 24.972 300.110,25.677 301.280,26.405 302.600 C 28.046 305.572,30.498 309.355,30.900 309.533 C 31.065 309.607,31.200 309.839,31.200 310.050 C 31.200 310.261,31.920 311.409,32.800 312.600 C 33.680 313.791,34.400 314.887,34.400 315.036 C 34.400 315.185,34.772 315.629,35.226 316.023 C 35.681 316.417,36.035 316.847,36.014 316.979 C 35.961 317.311,37.185 319.044,38.500 320.500 C 39.105 321.170,39.600 321.827,39.600 321.959 C 39.601 322.092,40.006 322.685,40.500 323.277 C 40.995 323.869,42.210 325.385,43.200 326.645 C 44.190 327.905,45.450 329.415,46.000 330.001 C 46.550 330.587,47.717 331.952,48.593 333.033 C 50.659 335.585,64.415 349.341,66.967 351.407 C 68.048 352.283,69.413 353.450,69.999 354.000 C 70.585 354.550,72.095 355.810,73.355 356.800 C 74.615 357.790,76.131 359.005,76.723 359.500 C 77.315 359.994,77.908 360.399,78.041 360.400 C 78.173 360.400,78.828 360.895,79.497 361.500 C 80.166 362.105,81.373 363.050,82.180 363.600 C 82.987 364.150,83.894 364.825,84.195 365.100 C 84.496 365.375,84.853 365.600,84.989 365.600 C 85.124 365.600,86.209 366.320,87.400 367.200 C 88.591 368.080,89.739 368.800,89.950 368.800 C 90.161 368.800,90.393 368.940,90.467 369.110 C 90.621 369.468,96.279 373.057,98.500 374.206 C 99.325 374.633,100.000 375.121,100.000 375.291 C 100.000 375.461,100.228 375.600,100.507 375.600 C 100.786 375.600,101.677 376.050,102.486 376.600 C 103.295 377.150,104.222 377.600,104.545 377.600 C 104.869 377.600,105.193 377.735,105.267 377.900 C 105.432 378.271,113.027 382.179,114.400 382.599 C 114.950 382.767,115.850 383.219,116.400 383.603 C 116.950 383.987,117.985 384.427,118.700 384.582 C 119.415 384.737,120.000 385.029,120.000 385.232 C 120.000 385.434,120.272 385.600,120.605 385.600 C 120.938 385.600,121.523 385.771,121.905 385.981 C 122.287 386.190,123.230 386.616,124.000 386.927 C 124.770 387.239,126.570 387.968,128.000 388.548 C 129.430 389.128,130.870 389.608,131.200 389.614 C 131.530 389.620,132.149 389.890,132.576 390.213 C 133.004 390.536,133.758 390.800,134.253 390.800 C 134.748 390.800,135.264 390.980,135.400 391.200 C 135.536 391.420,135.976 391.600,136.378 391.600 C 136.780 391.600,137.624 391.869,138.254 392.198 C 138.884 392.526,139.985 392.796,140.700 392.798 C 141.415 392.799,142.000 392.980,142.000 393.200 C 142.000 393.420,142.414 393.600,142.920 393.600 C 143.426 393.600,144.035 393.795,144.274 394.034 C 144.513 394.273,145.702 394.498,146.917 394.534 C 148.132 394.570,149.098 394.753,149.063 394.941 C 148.983 395.371,151.832 396.247,154.514 396.616 C 155.644 396.771,156.845 397.044,157.184 397.222 C 158.563 397.948,162.765 398.447,163.626 397.986 C 164.089 397.738,164.573 397.640,164.701 397.768 C 164.829 397.895,164.713 398.000,164.443 398.000 C 164.173 398.000,164.064 398.180,164.200 398.400 C 164.336 398.620,164.941 398.800,165.544 398.800 C 166.147 398.800,166.865 399.025,167.140 399.300 C 167.752 399.912,228.000 400.177,228.000 399.567 C 228.000 399.365,226.785 399.165,225.300 399.123 L 222.600 399.046 225.159 398.902 C 226.617 398.821,227.900 398.940,228.139 399.179 C 228.675 399.715,232.671 399.732,233.000 399.200 C 233.136 398.980,233.886 398.800,234.666 398.800 C 235.764 398.800,236.033 398.664,235.855 398.200 C 235.590 397.507,236.046 397.406,236.660 398.020 C 237.510 398.870,243.022 397.499,242.875 396.474 C 242.806 395.993,242.935 395.600,243.162 395.600 C 243.389 395.600,243.463 395.891,243.327 396.246 C 243.108 396.816,243.368 396.859,245.505 396.611 C 248.208 396.297,251.034 395.419,250.936 394.923 C 250.901 394.746,251.763 394.581,252.853 394.559 C 253.942 394.536,255.231 394.320,255.717 394.079 C 256.202 393.838,256.960 393.576,257.400 393.497 C 257.840 393.417,258.166 393.171,258.124 392.949 C 258.082 392.723,258.555 392.620,259.199 392.715 C 259.832 392.807,260.929 392.595,261.637 392.242 C 262.344 391.889,263.245 391.600,263.638 391.600 C 264.031 391.600,264.464 391.420,264.600 391.200 C 264.736 390.980,265.252 390.800,265.747 390.800 C 266.242 390.800,266.996 390.536,267.424 390.213 C 267.851 389.890,268.607 389.620,269.105 389.613 C 269.603 389.606,270.323 389.429,270.705 389.219 C 271.087 389.010,272.030 388.578,272.800 388.260 C 273.570 387.941,274.785 387.439,275.500 387.143 C 276.215 386.847,276.800 386.458,276.800 386.279 C 276.800 386.099,276.971 386.059,277.180 386.188 C 277.592 386.442,281.314 384.843,281.534 384.316 C 281.608 384.140,281.825 384.092,282.017 384.210 C 282.312 384.393,284.379 383.513,287.313 381.955 C 287.705 381.747,290.315 380.389,293.113 378.936 C 295.911 377.484,298.708 376.030,299.329 375.704 C 299.951 375.378,300.554 374.863,300.671 374.558 C 300.788 374.254,301.046 374.105,301.245 374.228 C 301.606 374.451,303.941 373.008,304.494 372.219 C 304.656 371.989,304.791 371.933,304.794 372.095 C 304.799 372.363,309.129 369.786,309.600 369.234 C 309.936 368.840,311.360 367.990,312.100 367.742 C 312.485 367.612,312.800 367.376,312.800 367.216 C 312.800 367.057,313.430 366.587,314.200 366.172 C 314.970 365.757,315.600 365.279,315.600 365.109 C 315.600 364.939,315.797 364.800,316.037 364.800 C 316.473 364.800,321.405 361.175,323.086 359.620 C 323.573 359.169,324.093 358.800,324.241 358.800 C 324.389 358.800,325.341 358.077,326.355 357.193 C 328.374 355.434,330.536 353.586,332.981 351.530 C 338.216 347.128,347.992 337.236,353.468 330.800 C 354.311 329.810,355.090 328.910,355.200 328.800 C 355.995 328.005,358.800 324.401,358.800 324.175 C 358.800 324.020,359.119 323.603,359.508 323.247 C 359.898 322.891,360.483 322.218,360.808 321.751 C 361.134 321.284,362.165 319.897,363.100 318.668 C 364.035 317.439,364.800 316.246,364.800 316.017 C 364.800 315.788,364.952 315.600,365.137 315.600 C 365.322 315.600,365.813 314.970,366.228 314.200 C 366.643 313.430,367.080 312.800,367.200 312.800 C 367.320 312.800,367.772 312.125,368.205 311.300 C 368.638 310.475,369.101 309.710,369.235 309.600 C 369.953 309.008,375.148 300.349,378.115 294.800 C 378.997 293.150,379.961 291.350,380.257 290.800 C 380.553 290.250,380.796 289.575,380.798 289.300 C 380.799 289.025,380.936 288.800,381.102 288.800 C 381.269 288.800,381.649 288.215,381.947 287.500 C 382.246 286.785,382.926 285.337,383.458 284.283 C 383.990 283.228,384.319 282.193,384.189 281.983 C 384.059 281.772,384.107 281.600,384.294 281.600 C 384.626 281.600,386.125 278.356,386.082 277.731 C 386.036 277.076,385.258 277.190,385.080 277.878 C 384.932 278.448,384.883 278.411,384.846 277.700 C 384.804 276.871,385.142 276.635,386.207 276.749 C 386.600 276.791,387.665 274.683,388.504 272.200 C 388.727 271.540,389.065 270.829,389.255 270.620 C 389.445 270.411,389.600 269.937,389.600 269.566 C 389.600 269.195,389.869 268.376,390.198 267.746 C 390.526 267.116,390.796 266.283,390.798 265.895 C 390.799 265.507,390.965 264.877,391.166 264.495 C 392.145 262.640,392.800 260.782,392.800 259.863 C 392.800 259.304,392.980 258.736,393.200 258.600 C 393.420 258.464,393.600 257.924,393.600 257.400 C 393.600 256.876,393.770 256.342,393.977 256.214 C 394.184 256.086,394.467 255.131,394.604 254.091 C 394.742 253.051,395.014 251.840,395.209 251.400 C 396.161 249.249,396.487 247.309,396.036 246.468 C 395.657 245.759,395.683 245.657,396.191 245.852 C 396.654 246.030,396.800 245.794,396.800 244.866 C 396.800 244.196,396.980 243.536,397.200 243.400 C 397.420 243.264,397.600 242.689,397.600 242.123 C 397.600 241.556,397.809 240.395,398.065 239.541 C 398.433 238.312,398.419 237.783,397.998 236.995 C 397.705 236.449,397.586 235.881,397.733 235.734 C 397.880 235.587,398.000 235.777,398.000 236.157 C 398.000 236.537,398.180 236.736,398.400 236.600 C 398.620 236.464,398.800 235.769,398.800 235.056 C 398.800 234.343,399.025 233.535,399.300 233.260 C 399.997 232.563,400.034 176.916,399.338 176.485 C 398.760 176.127,398.437 170.837,399.000 170.932 C 399.549 171.025,399.751 167.191,399.224 166.664 C 398.991 166.431,398.800 165.657,398.800 164.944 C 398.800 164.231,398.620 163.536,398.400 163.400 C 398.180 163.264,398.000 163.373,398.000 163.643 C 398.000 163.913,397.898 164.031,397.772 163.906 C 397.647 163.780,397.770 163.316,398.046 162.875 C 398.440 162.244,398.446 161.732,398.074 160.489 C 397.813 159.619,397.600 158.444,397.600 157.877 C 397.600 157.311,397.420 156.736,397.200 156.600 C 396.980 156.464,396.800 155.804,396.800 155.134 C 396.800 154.214,396.652 153.971,396.200 154.145 C 395.490 154.417,395.411 153.949,396.058 153.302 C 396.535 152.825,395.871 149.434,395.141 148.620 C 394.953 148.411,394.800 147.742,394.800 147.134 C 394.800 145.987,393.863 142.717,393.187 141.505 C 392.974 141.123,392.799 140.403,392.798 139.905 C 392.796 139.407,392.526 138.484,392.198 137.854 C 391.869 137.224,391.600 136.380,391.600 135.978 C 391.600 135.576,391.420 135.136,391.200 135.000 C 390.980 134.864,390.799 134.448,390.798 134.076 C 390.796 133.704,390.526 132.884,390.198 132.254 C 389.869 131.624,389.600 130.805,389.600 130.434 C 389.600 130.063,389.450 129.589,389.266 129.380 C 389.082 129.171,388.616 128.100,388.229 127.000 C 387.842 125.900,387.122 124.100,386.628 123.000 C 386.135 121.900,385.476 120.413,385.166 119.695 C 384.806 118.865,384.398 118.468,384.044 118.605 C 383.601 118.775,383.585 118.700,383.965 118.243 C 384.344 117.786,384.241 117.268,383.466 115.733 C 382.930 114.670,382.246 113.215,381.947 112.500 C 381.649 111.785,381.269 111.200,381.102 111.200 C 380.936 111.200,380.800 110.913,380.800 110.562 C 380.800 109.992,379.717 107.717,379.200 107.200 C 379.090 107.090,378.601 106.190,378.113 105.200 C 377.624 104.210,376.490 102.140,375.592 100.600 C 374.693 99.060,373.856 97.485,373.732 97.100 C 373.608 96.715,373.370 96.400,373.202 96.400 C 373.034 96.400,372.667 95.845,372.386 95.166 C 372.105 94.487,371.676 93.722,371.433 93.466 C 371.189 93.210,370.183 91.740,369.197 90.200 C 368.211 88.660,367.268 87.340,367.102 87.267 C 366.936 87.193,366.800 86.964,366.800 86.756 C 366.800 86.421,361.593 79.051,359.907 77.000 C 359.545 76.560,358.593 75.390,357.791 74.400 C 356.989 73.410,356.032 72.240,355.665 71.800 C 355.298 71.360,354.188 70.020,353.199 68.823 C 348.113 62.669,337.331 51.887,331.177 46.801 C 329.980 45.812,328.640 44.702,328.200 44.335 C 327.760 43.968,326.590 43.011,325.600 42.209 C 324.610 41.407,323.440 40.451,323.000 40.086 C 322.560 39.720,320.220 38.020,317.800 36.308 C 315.380 34.595,313.220 33.059,313.000 32.894 C 312.780 32.729,311.340 31.790,309.800 30.806 C 308.260 29.822,306.910 28.904,306.800 28.765 C 306.690 28.625,305.970 28.191,305.200 27.800 C 304.430 27.409,303.710 26.978,303.600 26.844 C 303.490 26.710,303.040 26.404,302.600 26.164 C 302.160 25.924,300.945 25.253,299.900 24.672 C 298.855 24.091,298.000 23.709,298.000 23.824 C 298.000 23.938,297.631 23.687,297.180 23.267 C 296.729 22.847,295.604 22.170,294.680 21.763 C 293.756 21.355,292.910 20.927,292.800 20.811 C 292.317 20.301,290.019 19.200,289.438 19.200 C 289.087 19.200,288.800 19.064,288.800 18.898 C 288.800 18.731,288.215 18.351,287.500 18.053 C 286.785 17.754,285.322 17.067,284.250 16.525 C 282.895 15.840,282.173 15.667,281.882 15.958 C 281.592 16.248,281.759 16.494,282.432 16.762 C 283.390 17.145,283.391 17.150,282.500 17.175 C 281.668 17.198,281.433 16.853,281.551 15.782 C 281.593 15.405,278.082 13.701,277.614 13.870 C 277.156 14.036,277.200 14.747,277.678 14.905 C 278.018 15.017,277.990 15.062,277.600 15.034 C 277.270 15.011,276.946 14.614,276.880 14.153 C 276.750 13.247,276.095 12.844,273.000 11.765 C 271.900 11.382,270.829 10.918,270.620 10.734 C 270.411 10.550,269.937 10.400,269.566 10.400 C 269.195 10.400,268.376 10.131,267.746 9.802 C 267.116 9.474,266.283 9.204,265.895 9.202 C 265.507 9.201,264.877 9.035,264.495 8.834 C 262.640 7.855,260.782 7.200,259.863 7.200 C 259.304 7.200,258.736 7.020,258.600 6.800 C 258.464 6.580,257.924 6.400,257.400 6.400 C 256.876 6.400,256.342 6.230,256.214 6.023 C 256.086 5.816,255.131 5.533,254.091 5.396 C 253.051 5.258,251.840 4.986,251.400 4.791 C 249.249 3.839,247.309 3.513,246.468 3.964 C 245.759 4.343,245.657 4.317,245.852 3.809 C 246.030 3.346,245.794 3.200,244.866 3.200 C 244.196 3.200,243.536 3.020,243.400 2.800 C 243.264 2.580,242.689 2.400,242.123 2.400 C 241.556 2.400,240.395 2.191,239.541 1.935 C 238.312 1.567,237.783 1.581,236.995 2.002 C 236.449 2.295,235.881 2.414,235.734 2.267 C 235.587 2.120,235.777 2.000,236.157 2.000 C 236.537 2.000,236.736 1.820,236.600 1.600 C 236.464 1.380,235.769 1.200,235.056 1.200 C 234.343 1.200,233.535 0.975,233.260 0.700 C 232.742 0.181,174.092 -0.112,169.200 0.379 M175.300 1.089 C 174.585 1.178,173.415 1.178,172.700 1.089 C 171.985 1.001,172.570 0.928,174.000 0.928 C 175.430 0.928,176.015 1.001,175.300 1.089 M227.300 1.089 C 226.585 1.178,225.415 1.178,224.700 1.089 C 223.985 1.001,224.570 0.928,226.000 0.928 C 227.430 0.928,228.015 1.001,227.300 1.089 M162.500 3.082 C 162.005 3.178,161.195 3.178,160.700 3.082 C 160.205 2.987,160.610 2.909,161.600 2.909 C 162.590 2.909,162.995 2.987,162.500 3.082 M239.705 3.082 C 239.214 3.177,238.314 3.179,237.705 3.087 C 237.097 2.995,237.500 2.917,238.600 2.914 C 239.700 2.911,240.197 2.987,239.705 3.082 M153.600 4.956 C 153.600 5.042,152.970 5.186,152.200 5.276 C 151.430 5.366,150.800 5.296,150.800 5.120 C 150.800 4.944,151.430 4.800,152.200 4.800 C 152.970 4.800,153.600 4.870,153.600 4.956 M249.200 5.120 C 249.200 5.296,248.570 5.366,247.800 5.276 C 247.030 5.186,246.400 5.042,246.400 4.956 C 246.400 4.870,247.030 4.800,247.800 4.800 C 248.570 4.800,249.200 4.944,249.200 5.120 M215.400 124.546 C 235.368 128.433,251.609 139.171,262.123 155.436 C 266.303 161.903,270.365 171.809,271.623 178.600 C 272.392 182.752,270.822 182.400,288.582 182.400 C 297.209 182.400,304.363 182.496,304.480 182.614 C 304.598 182.731,302.797 188.491,300.479 195.414 L 296.264 208.000 227.999 208.000 C 190.453 208.000,159.642 208.091,159.531 208.202 C 159.420 208.313,159.634 209.808,160.007 211.523 C 161.933 220.403,165.862 227.948,171.679 233.946 C 188.923 251.723,225.675 249.341,240.270 229.500 C 242.054 227.075,241.559 226.954,248.800 231.593 C 252.210 233.778,258.014 237.478,261.697 239.816 C 269.818 244.970,269.330 244.114,266.538 248.310 C 247.345 277.160,194.994 285.675,162.010 265.313 C 142.335 253.166,129.438 233.202,126.215 209.905 L 125.952 208.009 110.676 207.905 L 95.400 207.800 95.400 195.200 L 95.400 182.600 111.364 182.400 L 127.329 182.200 128.800 177.400 C 132.824 164.275,138.420 154.830,147.625 145.625 C 149.799 143.451,152.850 140.713,154.340 139.600 C 155.076 139.050,156.156 138.222,156.739 137.760 C 158.449 136.405,165.595 132.203,168.200 131.020 C 172.164 129.221,172.881 128.921,175.800 127.845 C 186.491 123.903,204.424 122.409,215.400 124.546 M6.628 146.629 C 6.283 146.975,6.000 147.075,6.000 146.852 C 6.000 146.629,6.180 146.336,6.400 146.200 C 6.620 146.064,6.825 145.558,6.854 145.076 C 6.909 144.201,6.909 144.201,7.082 145.101 C 7.178 145.596,6.973 146.284,6.628 146.629 M395.200 152.200 C 395.200 152.970,395.130 153.600,395.044 153.600 C 394.958 153.600,394.814 152.970,394.724 152.200 C 394.634 151.430,394.704 150.800,394.880 150.800 C 395.056 150.800,395.200 151.430,395.200 152.200 M193.225 151.835 C 180.030 153.756,169.358 161.756,163.685 173.980 C 162.190 177.200,160.800 180.999,160.800 181.863 C 160.800 182.460,236.975 182.696,237.333 182.100 C 237.432 181.935,237.257 180.566,236.945 179.057 C 233.025 160.132,214.683 148.712,193.225 151.835 M397.118 161.646 L 396.985 163.400 396.793 161.319 C 396.687 160.175,396.747 159.385,396.926 159.565 C 397.105 159.744,397.191 160.681,397.118 161.646 M3.215 161.900 C 3.047 163.566,3.006 163.635,2.883 162.462 C 2.759 161.274,2.970 160.000,3.290 160.000 C 3.354 160.000,3.320 160.855,3.215 161.900 M399.467 171.467 C 399.039 171.894,399.160 176.000,399.600 176.000 C 399.822 176.000,400.000 174.933,400.000 173.600 C 400.000 171.178,399.951 170.982,399.467 171.467 M399.089 227.300 C 399.001 228.015,398.928 227.430,398.928 226.000 C 398.928 224.570,399.001 223.985,399.089 224.700 C 399.178 225.415,399.178 226.585,399.089 227.300 M3.287 238.472 C 3.367 239.282,3.290 239.856,3.116 239.748 C 2.942 239.641,2.814 238.798,2.832 237.876 C 2.867 235.995,3.069 236.258,3.287 238.472 M397.087 239.495 C 396.995 240.103,396.917 239.700,396.914 238.600 C 396.911 237.500,396.987 237.003,397.082 237.495 C 397.177 237.986,397.179 238.886,397.087 239.495 M395.200 247.800 C 395.200 248.570,395.056 249.200,394.880 249.200 C 394.704 249.200,394.634 248.570,394.724 247.800 C 394.814 247.030,394.958 246.400,395.044 246.400 C 395.130 246.400,395.200 247.030,395.200 247.800 M7.154 254.871 C 7.113 255.688,7.084 255.703,6.915 255.000 C 6.809 254.560,6.560 254.029,6.361 253.820 C 5.740 253.166,5.968 252.711,6.600 253.343 C 6.930 253.673,7.179 254.361,7.154 254.871 M50.676 333.419 C 51.017 333.760,51.213 334.121,51.112 334.221 C 51.011 334.322,50.602 334.044,50.202 333.602 C 49.354 332.665,49.764 332.507,50.676 333.419 M66.676 349.419 C 67.017 349.760,67.213 350.121,67.112 350.221 C 67.011 350.322,66.602 350.044,66.202 349.602 C 65.354 348.665,65.764 348.507,66.676 349.419 M146.657 393.400 C 147.289 394.032,146.834 394.260,146.180 393.639 C 145.971 393.440,145.440 393.191,145.000 393.085 C 144.297 392.916,144.312 392.887,145.129 392.846 C 145.639 392.821,146.327 393.070,146.657 393.400 M162.247 397.119 C 161.393 397.193,160.547 397.107,160.366 396.926 C 160.185 396.745,160.884 396.684,161.919 396.790 L 163.800 396.983 162.247 397.119 M239.305 397.082 C 238.814 397.177,237.914 397.179,237.305 397.087 C 236.697 396.995,237.100 396.917,238.200 396.914 C 239.300 396.911,239.797 396.987,239.305 397.082 M175.891 399.092 C 175.061 399.179,173.801 399.177,173.091 399.089 C 172.381 399.000,173.060 398.929,174.600 398.931 C 176.140 398.933,176.721 399.005,175.891 399.092 " stroke="none" fill="#042b33" fill-rule="evenodd"></path></g></svg>