<svg width="30" height="30" viewBox="0 0 30 30" fill="none" xmlns="http://www.w3.org/2000/svg">
  <path d="M28.5529 5.52917C28.2505 4.38447 27.2786 3.23976 25.5291 1.96546C24.1252 0.950341 22.635 0.367188 21.4471 0.367188C21.2095 0.367188 20.9935 0.388786 20.7775 0.431982C20.2376 0.539974 19.7624 0.928743 19.46 1.5119C19.0929 2.20304 19.0065 3.13177 19.244 3.69332C19.3304 3.86611 19.4384 4.08209 19.568 4.27647C18.4233 4.96762 17.7754 5.162 17.689 5.1836C20.6695 6.17712 23.1533 8.25056 24.7084 10.9503L24.73 10.6912C24.7948 9.97842 25.0108 9.15768 25.3132 8.31535C25.6155 8.40174 25.9179 8.44494 26.2203 8.44494C27.0194 8.44494 27.7106 8.12097 28.1425 7.53781C28.5745 6.95466 28.7473 6.17712 28.5529 5.52917Z" fill="#5E12A0" />
  <path d="M25.4426 7.6891C27.4081 8.22906 28.2072 6.71718 27.9481 5.70206C27.6673 4.68694 26.7601 3.65023 25.1619 2.48392C23.5636 1.31761 21.9437 0.842451 20.907 1.05843C19.8703 1.27442 19.5679 2.85109 19.8271 3.45584C19.9351 3.69342 20.1727 4.03899 20.4966 4.42776C20.0863 4.70854 19.6975 4.92452 19.3735 5.11891C21.3606 6.00444 23.0884 7.38673 24.3843 9.11459C24.5355 8.53143 24.7515 8.01308 24.9459 7.55951C25.0971 7.58111 25.2699 7.62431 25.4426 7.6891Z" fill="url(#paint0_radial_1915_8628)" />
  <path d="M14.1899 28.8554C20.8579 28.8554 26.2633 23.4499 26.2633 16.7819C26.2633 10.114 20.8579 4.7085 14.1899 4.7085C7.52192 4.7085 2.11646 10.114 2.11646 16.7819C2.11646 23.4499 7.52192 28.8554 14.1899 28.8554Z" fill="url(#paint1_radial_1915_8628)" />
  <path opacity="0.6" d="M26.9545 4.70839C25.313 2.98053 23.9308 2.52696 22.2677 2.15979C20.9718 1.85742 21.3174 1.12308 22.894 1.27426C22.1381 1.01508 21.4254 0.95029 20.907 1.05828C19.8703 1.27426 19.5679 2.85094 19.8271 3.45569C19.9351 3.69327 20.1727 4.03884 20.4966 4.42761C19.9135 4.81638 19.4167 5.09716 19.0063 5.31314C19.2007 5.39953 19.4383 5.50753 19.7191 5.65871C20.4534 6.04748 21.2526 6.69543 21.2526 6.69543C20.0431 5.65871 20.3022 5.18355 21.9653 4.01724C22.4837 3.65007 23.434 3.69327 24.3195 4.14683C25.205 4.6004 26.2418 5.74511 26.2418 5.74511L25.2482 7.64575C25.313 7.66735 25.3778 7.68895 25.4426 7.71055C26.069 7.88334 26.5657 7.84014 26.9545 7.68895C27.4081 7.40817 28.596 6.45785 26.9545 4.70839Z" fill="#A98698" />
  <path d="M22.2462 3.19665C22.6782 3.36943 23.2397 3.67181 23.9309 4.12537C24.7516 4.66533 25.4643 5.27008 25.9179 5.74524C25.162 6.73876 24.6652 8.09945 24.3628 9.04978C24.514 9.26576 24.6868 9.48174 24.838 9.69773C24.9892 9.15777 25.2484 8.35863 25.5939 7.5595C25.6803 7.58109 25.7883 7.58109 25.8963 7.58109C26.1555 7.58109 26.4579 7.5379 26.6954 7.34351C26.8682 7.21392 27.0626 6.97634 27.041 6.54438C27.041 6.13401 26.717 5.61565 26.0475 4.9893C25.5723 4.53574 24.9244 4.03898 24.2764 3.58541C22.419 2.35431 21.1231 2.00874 20.5399 2.59189C20.1512 2.98066 20.1944 3.45583 20.324 3.8014C19.6328 4.25496 19.0497 4.57894 18.6609 4.79492C18.9201 4.88131 19.1576 4.9893 19.4168 5.09729C20.108 4.73012 21.1015 4.10377 22.2462 3.19665ZM26.3283 6.2852C26.3931 6.39319 26.4147 6.50118 26.4147 6.56598C26.4147 6.76036 26.3499 6.82516 26.3067 6.86835C26.2203 6.93315 26.0475 6.97634 25.8963 6.97634C26.0259 6.71716 26.1771 6.50118 26.3283 6.2852ZM20.9935 3.06706C21.0583 3.00226 21.2311 2.95906 21.5119 3.00226C21.2959 3.17505 21.0799 3.32624 20.8639 3.47742C20.8423 3.32624 20.8639 3.17505 20.9935 3.06706Z" fill="#5E12A0" />
  <path d="M14.19 3.99561C7.12735 3.99561 1.40381 9.71915 1.40381 16.7818C1.40381 23.8444 7.12735 29.568 14.19 29.568C21.2526 29.568 26.9762 23.8444 26.9762 16.7818C26.9762 9.71915 21.231 3.99561 14.19 3.99561ZM14.19 28.8552C7.51612 28.8552 2.11655 23.4556 2.11655 16.7818C2.11655 10.1079 7.51612 4.70835 14.19 4.70835C20.8638 4.70835 26.2634 10.1079 26.2634 16.7818C26.2634 23.4556 20.8423 28.8552 14.19 28.8552Z" fill="#5E12A0" />
  <path opacity="0.6" d="M14.1899 28.8554C20.8579 28.8554 26.2633 23.4499 26.2633 16.7819C26.2633 10.114 20.8579 4.7085 14.1899 4.7085C7.52192 4.7085 2.11646 10.114 2.11646 16.7819C2.11646 23.4499 7.52192 28.8554 14.1899 28.8554Z" fill="url(#paint2_linear_1915_8628)" />
  <path opacity="0.6" d="M14.1035 27.3868C7.51601 26.3285 3.04517 20.1298 4.12508 13.5423C4.60024 10.6266 6.06892 8.14275 8.14236 6.3501C5.1186 8.09956 2.87238 11.1449 2.26763 14.8598C1.20931 21.4473 5.68015 27.646 12.246 28.7043C15.9177 29.3091 19.4599 28.1644 22.0732 25.9181C19.7622 27.2572 16.9545 27.8404 14.1035 27.3868Z" fill="#A98698" />
  <path opacity="0.6" d="M16.1121 4.88128C13.0668 4.38452 10.1078 5.07567 7.6888 6.60914C7.6456 6.65234 7.60241 6.69554 7.60241 6.69554C8.53113 6.13398 9.89182 5.63722 9.89182 5.63722C6.3929 7.66746 5.31299 9.97847 5.31299 9.97847C6.67368 7.34349 10.6694 5.48603 13.8011 5.35644C16.9329 5.22685 18.9847 6.15558 21.4901 8.16422C23.9955 10.1945 25.5074 14.3413 25.3562 17.6243C25.2266 20.9072 23.4987 23.5638 23.4987 23.5638C24.6866 22.0303 25.3994 20.9072 25.8529 19.7625C25.9393 19.4169 26.0257 19.0713 26.0689 18.7042C27.1488 12.1383 22.6996 5.9396 16.1121 4.88128Z" fill="url(#paint3_linear_1915_8628)" />
  <path d="M25.6587 16.6738C25.6587 23.0021 20.5183 28.1425 14.19 28.1425C7.86169 28.1425 2.69971 23.0021 2.69971 16.6738H25.6587Z" fill="url(#paint4_linear_1915_8628)" />
  <g opacity="0.6">
    <path opacity="0.6" d="M24.7514 16.6738C24.7514 22.8509 19.8702 27.9049 13.7363 28.1425C13.8875 28.1425 14.0387 28.1425 14.1899 28.1425C20.5182 28.1425 25.6586 23.0021 25.6586 16.6738H24.7514Z" fill="url(#paint5_linear_1915_8628)" />
  </g>
  <g opacity="0.7">
    <path opacity="0.7" d="M4.31958 16.6738H2.69971C2.69971 23.0021 7.8401 28.1425 14.1684 28.1425C14.4492 28.1425 14.7083 28.1425 14.9675 28.1209C9.028 27.6889 4.31958 22.7213 4.31958 16.6738Z" fill="url(#paint6_linear_1915_8628)" />
  </g>
  <path d="M25.6371 16.782C25.6371 15.4645 23.3477 14.7086 20.3023 14.4494C18.0993 14.2766 15.8747 14.4926 13.3261 15.2701C11.123 15.9181 9.13599 15.8101 7.68891 15.6373C4.47077 15.2701 2.69971 15.2269 2.69971 16.782C2.69971 19.0282 7.27854 21.836 14.1468 20.8641C17.6241 20.3673 19.4168 19.3522 21.4686 18.661C23.6932 17.9267 25.6371 17.9483 25.6371 16.782Z" fill="url(#paint7_linear_1915_8628)" />
  <path d="M17.948 11.3393C19.0216 11.3393 19.8918 10.4691 19.8918 9.3955C19.8918 8.32195 19.0216 7.45166 17.948 7.45166C16.8744 7.45166 16.0042 8.32195 16.0042 9.3955C16.0042 10.4691 16.8744 11.3393 17.948 11.3393Z" fill="white" />
  <path d="M21.123 12.786C21.5763 12.786 21.9437 12.4185 21.9437 11.9653C21.9437 11.512 21.5763 11.1445 21.123 11.1445C20.6697 11.1445 20.3022 11.512 20.3022 11.9653C20.3022 12.4185 20.6697 12.786 21.123 12.786Z" fill="white" />
  <g opacity="0.6">
    <path opacity="0.6" d="M24.0605 7.84013C24.0389 7.84013 24.0173 7.84013 24.0173 7.84013C23.8877 7.81853 23.8013 7.68894 23.8229 7.53776C24.0173 6.54424 24.838 5.59391 24.8812 5.55072C24.9676 5.44272 25.1404 5.44272 25.2268 5.52912C25.3348 5.61551 25.3348 5.7883 25.2484 5.87469C25.2268 5.89629 24.4708 6.78182 24.2981 7.64575C24.2765 7.77534 24.1685 7.84013 24.0605 7.84013Z" fill="url(#paint8_linear_1915_8628)" />
  </g>
  <path opacity="0.2" d="M13.3909 25.7881C13.7249 25.7881 13.9956 25.5174 13.9956 25.1834C13.9956 24.8494 13.7249 24.5786 13.3909 24.5786C13.0569 24.5786 12.7861 24.8494 12.7861 25.1834C12.7861 25.5174 13.0569 25.7881 13.3909 25.7881Z" fill="white" />
  <g opacity="0.4">
    <path opacity="0.6" d="M13.0453 25.572C12.8078 25.3344 12.8078 24.9457 13.0453 24.7081C13.0885 24.6649 13.1317 24.6433 13.1749 24.6001C13.0885 24.6217 13.0237 24.6649 12.9589 24.7297C12.7214 24.9673 12.7214 25.356 12.9589 25.5936C13.1533 25.788 13.4557 25.8312 13.6933 25.7016C13.4773 25.788 13.2181 25.7448 13.0453 25.572Z" fill="url(#paint9_linear_1915_8628)" />
  </g>
  <path opacity="0.3" d="M13.6069 25.0106C13.6785 25.0106 13.7365 24.9526 13.7365 24.8811C13.7365 24.8095 13.6785 24.7515 13.6069 24.7515C13.5353 24.7515 13.4773 24.8095 13.4773 24.8811C13.4773 24.9526 13.5353 25.0106 13.6069 25.0106Z" fill="white" />
  <path opacity="0.2" d="M16.5442 25.4859C16.8782 25.4859 17.149 25.2151 17.149 24.8811C17.149 24.5471 16.8782 24.2764 16.5442 24.2764C16.2102 24.2764 15.9395 24.5471 15.9395 24.8811C15.9395 25.2151 16.2102 25.4859 16.5442 25.4859Z" fill="white" />
  <g opacity="0.4">
    <path opacity="0.6" d="M16.1987 25.2698C15.9611 25.0322 15.9611 24.6434 16.1987 24.4058C16.2419 24.3626 16.2851 24.341 16.3283 24.2979C16.2419 24.3194 16.1771 24.3626 16.1123 24.4274C15.8747 24.665 15.8747 25.0538 16.1123 25.2914C16.3067 25.4858 16.609 25.529 16.8466 25.3994C16.6306 25.4858 16.3714 25.4426 16.1987 25.2698Z" fill="url(#paint10_linear_1915_8628)" />
  </g>
  <path opacity="0.3" d="M16.7602 24.7084C16.8318 24.7084 16.8898 24.6504 16.8898 24.5788C16.8898 24.5072 16.8318 24.4492 16.7602 24.4492C16.6886 24.4492 16.6306 24.5072 16.6306 24.5788C16.6306 24.6504 16.6886 24.7084 16.7602 24.7084Z" fill="white" />
  <path opacity="0.2" d="M14.9892 26.89C15.2397 26.89 15.4428 26.687 15.4428 26.4365C15.4428 26.186 15.2397 25.9829 14.9892 25.9829C14.7387 25.9829 14.5356 26.186 14.5356 26.4365C14.5356 26.687 14.7387 26.89 14.9892 26.89Z" fill="white" />
  <g opacity="0.4">
    <path opacity="0.6" d="M14.73 26.7171C14.5572 26.5443 14.5572 26.242 14.73 26.0692C14.7516 26.0476 14.7948 26.026 14.8164 26.0044C14.7516 26.026 14.7084 26.0692 14.6652 26.1124C14.4924 26.2852 14.4924 26.5875 14.6652 26.7603C14.8164 26.9115 15.0324 26.9331 15.2268 26.8251C15.054 26.8899 14.8596 26.8467 14.73 26.7171Z" fill="url(#paint11_linear_1915_8628)" />
  </g>
  <path opacity="0.3" d="M15.1403 26.2851C15.1881 26.2851 15.2267 26.2464 15.2267 26.1987C15.2267 26.151 15.1881 26.1123 15.1403 26.1123C15.0926 26.1123 15.054 26.151 15.054 26.1987C15.054 26.2464 15.0926 26.2851 15.1403 26.2851Z" fill="white" />
  <path opacity="0.2" d="M10.8207 25.5725C11.3694 25.5725 11.8142 25.1277 11.8142 24.579C11.8142 24.0303 11.3694 23.5854 10.8207 23.5854C10.272 23.5854 9.82715 24.0303 9.82715 24.579C9.82715 25.1277 10.272 25.5725 10.8207 25.5725Z" fill="white" />
  <g opacity="0.4">
    <path opacity="0.6" d="M10.2591 25.2055C9.87029 24.8167 9.87029 24.1903 10.2591 23.8016C10.3239 23.7368 10.3886 23.6936 10.475 23.6504C10.3455 23.6936 10.2375 23.78 10.1295 23.8664C9.7407 24.2551 9.7407 24.8815 10.1295 25.2703C10.4534 25.5942 10.9502 25.659 11.339 25.4214C10.9718 25.5726 10.5398 25.5078 10.2591 25.2055Z" fill="url(#paint12_linear_1915_8628)" />
  </g>
  <path opacity="0.3" d="M11.1662 24.2767C11.2855 24.2767 11.3822 24.18 11.3822 24.0607C11.3822 23.9414 11.2855 23.8447 11.1662 23.8447C11.0469 23.8447 10.9502 23.9414 10.9502 24.0607C10.9502 24.18 11.0469 24.2767 11.1662 24.2767Z" fill="white" />
  <path opacity="0.2" d="M19.6974 23.1316C20.2461 23.1316 20.6909 22.6868 20.6909 22.1381C20.6909 21.5893 20.2461 21.1445 19.6974 21.1445C19.1487 21.1445 18.7039 21.5893 18.7039 22.1381C18.7039 22.6868 19.1487 23.1316 19.6974 23.1316Z" fill="white" />
  <g opacity="0.4">
    <path opacity="0.6" d="M19.1143 22.7645C18.7255 22.3758 18.7255 21.7494 19.1143 21.3607C19.1791 21.2959 19.2439 21.2527 19.3303 21.2095C19.2007 21.2527 19.0927 21.3391 18.9847 21.4255C18.5959 21.8142 18.5959 22.4406 18.9847 22.8293C19.3087 23.1533 19.8054 23.2181 20.1942 22.9805C19.827 23.1317 19.4167 23.0669 19.1143 22.7645Z" fill="url(#paint13_linear_1915_8628)" />
  </g>
  <path opacity="0.3" d="M20.0429 21.8358C20.1622 21.8358 20.2589 21.7391 20.2589 21.6198C20.2589 21.5005 20.1622 21.4038 20.0429 21.4038C19.9236 21.4038 19.8269 21.5005 19.8269 21.6198C19.8269 21.7391 19.9236 21.8358 20.0429 21.8358Z" fill="white" />
  <defs>
    <radialGradient id="paint0_radial_1915_8628" cx="0" cy="0" r="1" gradientUnits="userSpaceOnUse" gradientTransform="translate(27.5541 4.34135) scale(9.65322 9.65322)">
      <stop stop-color="#FFEAFF" stop-opacity="0.6" />
      <stop offset="0.6807" stop-color="#A087C9" />
      <stop offset="1" stop-color="#10002F" />
    </radialGradient>
    <radialGradient id="paint1_radial_1915_8628" cx="0" cy="0" r="1" gradientUnits="userSpaceOnUse" gradientTransform="translate(22.1835 8.45828) scale(23.6179)">
      <stop stop-color="#FFEAFF" stop-opacity="0.6" />
      <stop offset="0.6807" stop-color="#A087C9" />
      <stop offset="1" stop-color="#10002F" />
    </radialGradient>
    <linearGradient id="paint2_linear_1915_8628" x1="12.2578" y1="28.7016" x2="16.122" y2="4.86225" gradientUnits="userSpaceOnUse">
      <stop stop-color="#81FFFF" />
      <stop offset="0.6202" stop-color="white" stop-opacity="0" />
    </linearGradient>
    <linearGradient id="paint3_linear_1915_8628" x1="22.6912" y1="8.57444" x2="12.7075" y2="17.7347" gradientUnits="userSpaceOnUse">
      <stop offset="0.2888" stop-color="white" />
      <stop offset="0.7796" stop-color="white" stop-opacity="0" />
    </linearGradient>
    <linearGradient id="paint4_linear_1915_8628" x1="2.69971" y1="22.4082" x2="25.6587" y2="22.4082" gradientUnits="userSpaceOnUse">
      <stop stop-color="#0002E9" />
      <stop offset="0.9952" stop-color="#FF00C7" />
    </linearGradient>
    <linearGradient id="paint5_linear_1915_8628" x1="26.7453" y1="17.6868" x2="14.2572" y2="29.4888" gradientUnits="userSpaceOnUse">
      <stop offset="0.2888" stop-color="white" />
      <stop offset="0.7796" stop-color="white" stop-opacity="0" />
    </linearGradient>
    <linearGradient id="paint6_linear_1915_8628" x1="2.69971" y1="22.4082" x2="14.9675" y2="22.4082" gradientUnits="userSpaceOnUse">
      <stop stop-color="#000292" />
      <stop offset="0.9952" stop-color="#7D00C7" />
    </linearGradient>
    <linearGradient id="paint7_linear_1915_8628" x1="2.72483" y1="17.7278" x2="25.6377" y2="17.7278" gradientUnits="userSpaceOnUse">
      <stop stop-color="#000292" />
      <stop offset="0.9952" stop-color="#BE00C7" />
    </linearGradient>
    <linearGradient id="paint8_linear_1915_8628" x1="25.267" y1="5.44871" x2="23.6202" y2="8.12473" gradientUnits="userSpaceOnUse">
      <stop offset="0.2888" stop-color="white" />
      <stop offset="0.7796" stop-color="white" stop-opacity="0" />
    </linearGradient>
    <linearGradient id="paint9_linear_1915_8628" x1="12.7808" y1="25.1879" x2="13.6946" y2="25.1879" gradientUnits="userSpaceOnUse">
      <stop offset="0.2888" stop-color="white" />
      <stop offset="0.7796" stop-color="white" stop-opacity="0" />
    </linearGradient>
    <linearGradient id="paint10_linear_1915_8628" x1="15.9313" y1="24.8856" x2="16.8451" y2="24.8856" gradientUnits="userSpaceOnUse">
      <stop offset="0.2888" stop-color="white" />
      <stop offset="0.7796" stop-color="white" stop-opacity="0" />
    </linearGradient>
    <linearGradient id="paint11_linear_1915_8628" x1="14.5328" y1="26.4485" x2="15.2188" y2="26.4485" gradientUnits="userSpaceOnUse">
      <stop offset="0.2888" stop-color="white" />
      <stop offset="0.7796" stop-color="white" stop-opacity="0" />
    </linearGradient>
    <linearGradient id="paint12_linear_1915_8628" x1="9.82798" y1="24.6073" x2="11.3203" y2="24.6073" gradientUnits="userSpaceOnUse">
      <stop offset="0.2888" stop-color="white" />
      <stop offset="0.7796" stop-color="white" stop-opacity="0" />
    </linearGradient>
    <linearGradient id="paint13_linear_1915_8628" x1="18.6915" y1="22.1664" x2="20.1838" y2="22.1664" gradientUnits="userSpaceOnUse">
      <stop offset="0.2888" stop-color="white" />
      <stop offset="0.7796" stop-color="white" stop-opacity="0" />
    </linearGradient>
  </defs>
</svg>
  