<svg width="30" height="30" viewBox="0 0 30 30" fill="none" xmlns="http://www.w3.org/2000/svg">
<g clip-path="url(#clip0_438_1005)">
<path d="M21.6319 2.6393C20.8689 3.41125 20.17 4.24792 19.5487 5.14007L19.3522 5.07535C18.2192 4.70093 17.0451 4.4698 15.8619 4.39122C15.5056 4.36349 14.1761 4.36349 13.7421 4.39122C12.431 4.47905 11.4259 4.67782 10.2838 5.07997C10.2381 5.09846 10.197 5.11233 10.1559 5.1262C9.51174 4.23868 8.79449 3.40663 8.00415 2.64392C11.796 0.679357 16.232 0.44361 20.2019 1.99215C20.6268 2.15393 21.0425 2.34346 21.4491 2.54685L21.6319 2.6393Z" fill="#F00500"/>
<path d="M28.7038 20.1724C28.1282 21.8319 27.2647 23.3712 26.1455 24.7117C25.5379 25.4328 24.8663 26.0938 24.1445 26.6948C22.4541 28.0723 20.4806 29.0569 18.3745 29.5746C16.0446 30.1432 13.6142 30.1432 11.2842 29.5746C9.17362 29.0569 7.20461 28.0723 5.51428 26.6948C4.79246 26.0938 4.1209 25.4328 3.51329 24.7117C0.292523 20.8612 -0.685128 15.573 0.95495 10.8073C1.26561 9.92435 1.65393 9.07382 2.11991 8.26488C2.33463 7.89508 2.5996 7.47905 2.72752 7.30802C3.16609 9.21711 3.70516 10.8951 3.90618 11.5006C3.89247 11.533 3.8742 11.57 3.85593 11.6023C2.79147 13.7841 2.21585 15.8874 2.07879 18.1247C2.07879 18.1524 2.07422 18.1848 2.07422 18.2125C2.03768 18.8828 2.05595 19.2017 2.16559 19.6224C2.50823 20.9398 3.56355 22.3912 5.21733 23.815C7.92643 26.1447 11.5995 27.8273 14.3817 28.0214C17.2826 28.2202 21.5633 26.5052 24.414 23.9999C24.8617 23.5977 25.282 23.1724 25.6749 22.7194C25.9582 22.3866 26.3785 21.8134 26.3465 21.8134C26.3373 21.8134 26.3465 21.8042 26.3647 21.7949C26.3785 21.7857 26.3922 21.7718 26.383 21.7626C26.3785 21.7579 26.3876 21.7441 26.4013 21.7395C26.415 21.7348 26.4241 21.7256 26.4196 21.7163C26.415 21.7071 26.4196 21.6979 26.4378 21.6932C26.4515 21.6886 26.4561 21.6747 26.4515 21.6655C26.447 21.6562 26.4515 21.647 26.4607 21.647C26.4698 21.647 26.479 21.6331 26.479 21.6239C26.479 21.6146 26.4881 21.6008 26.4972 21.6008C26.5064 21.6008 26.5155 21.5915 26.5155 21.5823C26.5292 21.5453 26.5521 21.5083 26.5749 21.476C26.6434 21.3697 26.9175 20.875 26.9541 20.7918C27.2145 20.1955 27.3789 19.664 27.4566 19.1324C27.4932 18.8781 27.516 18.4113 27.4977 18.3003C27.4932 18.2818 27.4932 18.2495 27.4886 18.1986C27.4795 18.1062 27.4749 17.9675 27.4657 17.8288C27.4566 17.6208 27.4383 17.3296 27.4246 17.1863C27.2282 15.0877 26.6982 13.3727 25.6932 11.5561C25.6521 11.4868 25.6155 11.4174 25.5927 11.362C25.5835 11.3481 25.579 11.3342 25.5744 11.325C25.716 10.8951 26.2962 9.09693 26.7576 7.03992L26.7668 7.04916L26.8353 7.14161C26.9541 7.3034 27.2693 7.78414 27.4109 8.01526C28.0551 9.07844 28.5576 10.2202 28.9139 11.4128C29.7408 14.2834 29.6723 17.3435 28.7038 20.1724Z" fill="#F00500"/>
<path d="M22.774 14.6485C22.7603 14.7225 22.5456 14.9444 22.3309 15.1062C21.7004 15.573 20.572 16.0075 19.4253 16.2156C18.772 16.3357 18.1187 16.3542 17.9223 16.2572C17.7944 16.1924 17.7761 16.1416 17.8218 15.9752C17.9177 15.6285 18.2284 15.2495 18.7126 14.8935C18.9593 14.7133 19.9598 14.0985 20.4258 13.8396C21.1933 13.4143 21.8146 13.1601 22.2349 13.1C22.3674 13.0815 22.5273 13.0769 22.5776 13.1C22.6598 13.1324 22.7512 13.3773 22.7877 13.6732C22.806 13.8304 22.7968 14.5237 22.774 14.6485Z" fill="black"/>
<path d="M12.0105 16.1786C11.9831 16.2341 11.8461 16.2942 11.6907 16.3173C11.5354 16.3404 11.0603 16.3265 10.7908 16.2942C9.82224 16.1647 8.79433 15.8643 8.04511 15.4945C7.62481 15.2865 7.32329 15.0785 7.09943 14.852L6.97152 14.7179L6.95781 14.5422C6.93497 14.2372 6.93954 13.7564 6.97608 13.5854C6.99893 13.4421 7.04918 13.3034 7.11771 13.1786C7.15425 13.1324 7.15425 13.1324 7.31872 13.1324C7.51973 13.1324 7.68876 13.1647 7.96287 13.2526C8.52479 13.4282 9.36082 13.8535 10.3796 14.4729C11.2202 14.9814 11.5354 15.231 11.7775 15.5731C11.942 15.7857 12.0516 16.0862 12.0105 16.1786Z" fill="black"/>
<path d="M18.4795 22.6131C18.4795 22.627 18.4247 22.8489 18.3562 23.1123C18.2877 23.3758 18.2328 23.5885 18.2328 23.5977C18.1826 23.6023 18.1369 23.6069 18.0866 23.6023H17.9405L17.7394 24.0831C17.6298 24.3465 17.5293 24.5915 17.5156 24.6285L17.4882 24.6932L17.3922 24.5361L17.2963 24.3789V23.0985L17.2597 23.1077C17.1821 23.1262 16.6293 23.2002 16.3872 23.2233C15.3867 23.325 14.3816 23.3019 13.3857 23.1586C13.2258 23.1354 13.0887 23.117 13.0842 23.1216C13.0796 23.1262 13.0842 23.422 13.0933 23.7872L13.107 24.4436L13.0294 24.5638C12.9882 24.6285 12.9471 24.684 12.9471 24.6886C12.9334 24.7025 12.8877 24.6285 12.7827 24.4159C12.6684 24.194 12.5862 23.9583 12.5268 23.7133L12.4948 23.5792L12.3532 23.5885L12.2116 23.6023L12.175 23.4313C12.1568 23.3388 12.1339 23.1955 12.1248 23.117L12.1111 22.969L11.9923 22.8627C11.9238 22.8026 11.8553 22.7425 11.8416 22.7333C11.8187 22.7148 11.8096 22.6824 11.8096 22.6547V22.5992L12.3806 22.6039L12.9517 22.6085L12.97 22.6686L12.9882 22.7287L13.1847 22.7379C13.2943 22.7425 13.6415 22.7518 13.9522 22.761L14.5232 22.7749L14.6694 22.5438L14.8202 22.3126H15.0121L15.0075 21.8319L15.0029 21.3512L14.7517 21.2402C13.943 20.8797 13.4679 20.4683 13.2898 19.969C13.2532 19.8673 13.2532 19.8304 13.2441 19.3681C13.2395 18.9105 13.2395 18.8689 13.2715 18.7672C13.3354 18.5361 13.5136 18.3558 13.742 18.2957C13.8197 18.2726 14.0253 18.2726 15.1034 18.2726L16.3735 18.2772L16.5151 18.3465C16.6841 18.4297 16.7618 18.4898 16.8577 18.6193C16.9674 18.7672 16.9993 18.8828 16.9993 19.1647C16.9993 19.5669 16.9719 19.9136 16.9308 20.0522C16.8714 20.2418 16.7801 20.422 16.6658 20.5838C16.4374 20.8797 16.0217 21.1755 15.6425 21.3096L15.5329 21.3512L15.5374 21.8365L15.542 22.3219L15.6425 22.3311L15.743 22.3404L15.8801 22.5484L16.0126 22.7564H16.6247C16.9628 22.7564 17.2597 22.761 17.2872 22.7656C17.3328 22.7749 17.342 22.7703 17.3877 22.6917L17.4425 22.6085H17.9679C18.3607 22.59 18.4795 22.5992 18.4795 22.6131Z" fill="black"/>
<path d="M16.0673 23.9398C15.9805 23.9906 15.9211 24.0137 15.9074 24.0045C15.8937 23.9999 15.8298 23.9444 15.7612 23.8936L15.6379 23.7919L15.51 23.9305C15.2313 24.2356 15.2222 24.2495 15.1399 24.2541C15.012 24.268 14.9846 24.2449 14.8293 24.0091C14.747 23.8889 14.6831 23.7872 14.6831 23.7872C14.6831 23.7872 14.6237 23.778 14.5552 23.7734L14.4273 23.7595L14.3679 23.8843L14.3085 24.0091L14.2034 23.9768C14.1212 23.949 14.0389 23.9167 13.9613 23.8797L13.8242 23.8104V23.5469L15.0394 23.5515L16.2546 23.5561L16.2592 23.6809C16.2638 23.8288 16.2683 23.8242 16.0673 23.9398Z" fill="black"/>
<path d="M27.4886 18.3003C27.484 18.2818 27.484 18.2494 27.4795 18.1986C26.383 18.0784 23.2536 18.0045 20.3481 20.4313C20.3481 20.4313 19.4116 16.0861 15.0258 16.0861C10.6401 16.0861 9.01373 20.4313 9.01373 20.4313C6.5559 17.7548 3.26661 17.949 2.0788 18.1246C2.0788 18.1524 2.07423 18.1847 2.07423 18.2125C2.03769 18.8827 2.05596 19.2017 2.1656 19.6223C2.50824 20.9397 3.56356 22.3912 5.21734 23.8149C7.92644 26.1447 11.5995 27.8273 14.3817 28.0214C17.2827 28.2202 21.5633 26.5052 24.414 23.9998C24.8617 23.5977 25.282 23.1724 25.6749 22.7194C25.9582 22.3866 26.3785 21.8134 26.3465 21.8134C26.3373 21.8134 26.3465 21.8041 26.3648 21.7949C26.3785 21.7857 26.3922 21.7718 26.383 21.7625C26.3785 21.7579 26.3876 21.7441 26.4013 21.7394C26.415 21.7348 26.4241 21.7256 26.4196 21.7163C26.415 21.7071 26.4196 21.6978 26.4379 21.6932C26.4516 21.6886 26.4561 21.6747 26.4516 21.6655C26.447 21.6562 26.4516 21.647 26.4607 21.647C26.4698 21.647 26.479 21.6331 26.479 21.6239C26.479 21.6146 26.4881 21.6008 26.4972 21.6008C26.5064 21.6008 26.5155 21.5915 26.5155 21.5823C26.5292 21.5453 26.5521 21.5083 26.5749 21.4759C26.6434 21.3696 26.9175 20.875 26.9541 20.7918C27.2145 20.1955 27.379 19.6639 27.4566 19.1323C27.484 18.8781 27.5069 18.4112 27.4886 18.3003ZM16.0674 23.9397C15.9806 23.9906 15.9212 24.0137 15.9075 24.0045C15.8938 23.9998 15.8299 23.9444 15.7613 23.8935L15.638 23.7918L15.5101 23.9305C15.2314 24.2356 15.2223 24.2494 15.14 24.2541C15.0121 24.2679 14.9847 24.2448 14.8294 24.0091C14.7472 23.8889 14.6832 23.7872 14.6832 23.7872C14.6832 23.7872 14.6238 23.778 14.5553 23.7733L14.4274 23.7595L14.368 23.8843L14.3086 24.0091L14.2035 23.9767C14.1213 23.949 14.039 23.9166 13.9614 23.8796L13.8243 23.8103V23.5468L15.0395 23.5515L16.2547 23.5561L16.2593 23.6809C16.2639 23.8288 16.2685 23.8242 16.0674 23.9397ZM18.3517 23.1077C18.2831 23.3712 18.2283 23.5838 18.2283 23.5931C18.1781 23.5977 18.1324 23.6023 18.0821 23.5977H17.9359L17.7395 24.083C17.6299 24.3465 17.5293 24.5915 17.5156 24.6285L17.4882 24.6932L17.3923 24.536L17.2964 24.3789V23.0984L17.2598 23.1077C17.1821 23.1262 16.6294 23.2001 16.3872 23.2233C15.3867 23.325 14.3817 23.3018 13.3857 23.1585C13.2259 23.1354 13.0888 23.1169 13.0842 23.1216C13.0797 23.1262 13.0842 23.422 13.0934 23.7872L13.1071 24.4436L13.0294 24.5638C12.9883 24.6285 12.9472 24.684 12.9472 24.6886C12.9335 24.7025 12.8878 24.6285 12.7827 24.4159C12.6685 24.194 12.5863 23.9582 12.5269 23.7132L12.4949 23.5792L12.3533 23.5884L12.2117 23.6023L12.1751 23.4313C12.1568 23.3388 12.134 23.1955 12.1249 23.1169L12.1112 22.969L11.9924 22.8627C11.9238 22.8026 11.8553 22.7425 11.8416 22.7333C11.8188 22.7148 11.8096 22.6824 11.8096 22.6547V22.5992L12.3807 22.6038L12.9517 22.6085L12.97 22.6686L12.9883 22.7286L13.1847 22.7379C13.2944 22.7425 13.6416 22.7518 13.9522 22.761L14.5233 22.7749L14.6695 22.5437L14.8202 22.3126H15.0121L15.0076 21.8319L15.003 21.3511L14.7517 21.2402C13.9431 20.8796 13.468 20.4682 13.2898 19.969C13.2533 19.8673 13.2533 19.8303 13.2441 19.3681C13.2396 18.9105 13.2396 18.8689 13.2715 18.7672C13.3355 18.536 13.5137 18.3558 13.7421 18.2957C13.8198 18.2726 14.0253 18.2726 15.1035 18.2726L16.3735 18.2772L16.5151 18.3465C16.6842 18.4297 16.7618 18.4898 16.8578 18.6192C16.9674 18.7672 16.9994 18.8827 16.9994 19.1647C16.9994 19.5669 16.972 19.9135 16.9309 20.0522C16.8715 20.2417 16.7801 20.422 16.6659 20.5838C16.4375 20.8796 16.0218 21.1755 15.6426 21.3095L15.5329 21.3511L15.5375 21.8365L15.5421 22.3219L15.6426 22.3311L15.7431 22.3404L15.8801 22.5484L16.0126 22.7564H16.6248C16.9629 22.7564 17.2598 22.761 17.2872 22.7656C17.3329 22.7749 17.342 22.7703 17.3877 22.6917L17.4425 22.6085H17.9679C18.3745 22.6085 18.4933 22.6131 18.4933 22.627C18.4796 22.6223 18.4202 22.8488 18.3517 23.1077Z" fill="white"/>
<path d="M27.452 17.8288C27.4428 17.6208 27.4246 17.3296 27.4108 17.1863C27.2144 15.0877 26.6845 13.3727 25.6794 11.5561C25.6383 11.4867 25.6017 11.4174 25.5789 11.3619C25.5698 11.3481 25.5652 11.3342 25.5606 11.325C25.7022 10.8951 26.2824 9.09691 26.7439 7.0399C27.3697 4.24791 27.7672 0.98443 26.552 0.00446034C26.552 0.00446034 24.4505 -0.152705 21.6363 2.63928C20.8734 3.41124 20.1744 4.24791 19.5531 5.14005L19.3566 5.07534C18.2237 4.70092 17.0496 4.46979 15.8663 4.39121C15.51 4.36347 14.1806 4.36347 13.7466 4.39121C12.4354 4.47904 11.4304 4.6778 10.2882 5.07996C10.2426 5.09845 10.2014 5.11232 10.1603 5.12619C9.51617 4.23867 8.79893 3.40662 8.00858 2.64391C5.0802 -0.161949 2.90104 -0.000162435 2.90104 -0.000162435C1.61273 1.01216 2.05131 4.42357 2.7183 7.308C3.15688 9.2171 3.69595 10.8951 3.89697 11.5006C3.88326 11.533 3.86499 11.5699 3.84671 11.6023C2.78226 13.7841 2.20663 15.8874 2.06958 18.1246C3.26195 17.949 6.54668 17.7502 9.00908 20.4313C9.00908 20.4313 10.6354 16.0861 15.0212 16.0861C19.4069 16.0861 20.3434 20.4313 20.3434 20.4313C23.249 18.0045 26.3784 18.083 27.4748 18.1986C27.4702 18.1062 27.4611 17.9675 27.452 17.8288ZM4.76041 9.75793C4.76041 9.75793 3.0518 5.43589 3.49037 2.96748C3.56347 2.55146 3.70052 2.18628 3.91524 1.90893C3.91524 1.90893 5.85227 2.10307 8.97709 5.61617C8.97709 5.61617 8.3832 5.90739 7.58829 6.5268C7.58829 6.5268 7.58371 6.53142 7.57915 6.53142C6.71571 7.20169 5.61014 8.26486 4.76041 9.75793ZM12.0106 16.1786C11.9831 16.234 11.8461 16.2941 11.6908 16.3172C11.5354 16.3404 11.0603 16.3265 10.7908 16.2941C9.82226 16.1647 8.79436 15.8642 8.04513 15.4944C7.62483 15.2864 7.32331 15.0784 7.09946 14.8519L6.97154 14.7179L6.95784 14.5422C6.93499 14.2371 6.93956 13.7564 6.97611 13.5854C6.99895 13.4421 7.04921 13.3034 7.11773 13.1786C7.15428 13.1323 7.15428 13.1323 7.31875 13.1323C7.51976 13.1323 7.68879 13.1647 7.9629 13.2525C8.52482 13.4282 9.36085 13.8535 10.3796 14.4729C11.2202 14.9813 11.5354 15.231 11.7776 15.573C11.942 15.7857 12.0517 16.0861 12.0106 16.1786ZM22.7739 14.6485C22.7601 14.7225 22.5454 14.9444 22.3307 15.1062C21.7003 15.573 20.5719 16.0075 19.4252 16.2156C18.7719 16.3357 18.1186 16.3542 17.9221 16.2572C17.7942 16.1924 17.776 16.1416 17.8216 15.9752C17.9176 15.6285 18.2282 15.2495 18.7125 14.8935C18.9592 14.7132 19.9597 14.0985 20.4257 13.8396C21.1932 13.4143 21.8145 13.1601 22.2348 13.1C22.3673 13.0815 22.5272 13.0769 22.5774 13.1C22.6596 13.1324 22.751 13.3773 22.7876 13.6732C22.8058 13.8303 22.7967 14.5237 22.7739 14.6485ZM22.0155 6.5268L22.0064 6.52218C21.2389 5.90277 20.6632 5.61155 20.6632 5.61155C23.683 2.09845 25.5515 1.90431 25.5515 1.90431C25.7571 2.18628 25.8895 2.54683 25.9626 2.96286C26.3875 5.43127 24.7383 9.75793 24.7383 9.75793C24.0485 8.51448 23.1211 7.41432 22.0155 6.5268Z" fill="#FFA409"/>
<path d="M25.9673 2.96285C25.611 2.91662 23.9252 2.90738 22.0156 6.52679L22.0065 6.52217C21.239 5.90276 20.6633 5.61154 20.6633 5.61154C23.6831 2.09844 25.5516 1.9043 25.5516 1.9043C25.7617 2.18627 25.8942 2.54682 25.9673 2.96285Z" fill="#FF9300"/>
<path d="M24.743 9.75793C24.0486 8.50985 23.1258 7.41432 22.0156 6.5268C23.9252 2.90739 25.6064 2.91663 25.9673 2.96286C26.3922 5.43589 24.743 9.75793 24.743 9.75793Z" fill="#FF8300"/>
<path d="M26.0358 2.9767C26.013 2.97207 25.9901 2.96745 25.9673 2.96283L26.0358 2.9767Z" fill="#FF8300"/>
<path d="M8.97713 5.61154C8.97713 5.61154 8.38323 5.90276 7.58832 6.52217C7.58832 6.52217 7.58375 6.52679 7.57918 6.52679C5.60104 2.90276 3.86045 2.91662 3.48584 2.96285C3.55894 2.54682 3.69599 2.18165 3.91071 1.9043C3.91528 1.9043 5.8523 2.09844 8.97713 5.61154Z" fill="#FF9300"/>
<path d="M7.58379 6.5268C6.71578 7.20169 5.61022 8.26024 4.76048 9.75793C4.76048 9.75793 3.05187 5.43589 3.49045 2.96286C3.86049 2.91663 5.60564 2.90739 7.58379 6.5268Z" fill="#FF8300"/>
<path d="M3.49033 2.96283C3.46749 2.96745 3.44008 2.97207 3.41724 2.9767L3.49033 2.96283Z" fill="#FF8300"/>
<path d="M20.1197 12.157C20.1197 12.157 18.6578 12.2494 18.8405 11.0938C19.0233 9.9382 20.1654 9.79952 20.4852 9.84575C20.805 9.89197 22.0841 10.3542 21.8557 11.3249C21.6273 12.2957 21.3075 12.1108 21.1247 12.157C20.942 12.2032 20.1197 12.157 20.1197 12.157Z" fill="white"/>
<path d="M9.33819 12.157C9.33819 12.157 7.87628 12.2494 8.05902 11.0938C8.24176 9.9382 9.38388 9.79952 9.70367 9.84575C10.0235 9.89197 11.3026 10.3542 11.0742 11.3249C10.8458 12.2957 10.526 12.1108 10.3433 12.157C10.1605 12.2032 9.33819 12.157 9.33819 12.157Z" fill="white"/>
</g>
<defs>
<clipPath id="clip0_438_1005">
<rect width="29.6493" height="30" fill="white"/>
</clipPath>
</defs>
</svg>
