<svg width="30" height="30" viewBox="0 0 30 30" fill="none" xmlns="http://www.w3.org/2000/svg">
<g clip-path="url(#clip0_438_1042)">
<path d="M12.0479 6.82664C11.7266 6.7802 11.7113 6.76472 11.8643 6.74924C12.155 6.7028 12.8281 6.76472 13.3024 6.87308C14.4039 7.13624 15.3984 7.81735 16.454 9.0093L16.7294 9.33438L17.1271 9.27246C18.8253 8.99382 20.5694 9.21054 22.0228 9.89166C22.4206 10.0774 23.0478 10.4489 23.1243 10.5418C23.1549 10.5728 23.2008 10.774 23.2314 10.9752C23.3385 11.7028 23.2926 12.2446 23.0631 12.6626C22.9407 12.8948 22.9407 12.9567 23.0172 13.1579C23.0784 13.3127 23.262 13.4211 23.4303 13.4211C23.7975 13.4211 24.1799 12.8328 24.3635 12.0124L24.44 11.6873L24.5777 11.8421C25.358 12.7245 25.9699 13.9474 26.0617 14.8143L26.0923 15.0465L25.9546 14.8452C25.7251 14.4892 25.511 14.257 25.2203 14.0557C24.7001 13.6997 24.1493 13.5913 22.696 13.5139C21.3802 13.4365 20.6306 13.3282 19.8962 13.0805C18.6417 12.6626 17.9992 12.1208 16.5152 10.1239C15.8573 9.2415 15.4443 8.76163 15.0312 8.35915C14.1285 7.4768 13.2259 7.0124 12.0479 6.82664Z" fill="#FF007A"/>
<path d="M23.4456 8.79255C23.4762 8.20431 23.5527 7.81732 23.721 7.46128C23.7822 7.32196 23.8434 7.19812 23.8587 7.19812C23.874 7.19812 23.8434 7.30648 23.7975 7.43032C23.6751 7.77088 23.6598 8.25075 23.7363 8.79255C23.8434 9.48914 23.8893 9.58202 24.6237 10.3405C24.9602 10.6966 25.358 11.1455 25.511 11.3312L25.7711 11.6718L25.511 11.4241C25.1897 11.1145 24.4554 10.5263 24.2871 10.4489C24.18 10.387 24.1647 10.387 24.0882 10.4644C24.027 10.5263 24.0117 10.6192 24.0117 11.0681C23.9964 11.7647 23.9046 12.1981 23.6751 12.647C23.5527 12.8792 23.5374 12.8328 23.6445 12.5696C23.721 12.3684 23.7363 12.2755 23.7363 11.6099C23.7363 10.2631 23.5833 9.93806 22.6501 9.39626C22.4206 9.25694 22.0228 9.0557 21.7934 8.94735C21.5486 8.83899 21.365 8.74611 21.3803 8.74611C21.4109 8.71515 22.3135 8.97831 22.6654 9.1331C23.2009 9.34982 23.2927 9.3653 23.3538 9.34982C23.3997 9.30338 23.4303 9.17954 23.4456 8.79255Z" fill="#FF007A"/>
<path d="M12.6751 11.0991C12.0325 10.2012 11.6194 8.80803 11.7112 7.77088L11.7418 7.4458L11.8948 7.47676C12.1702 7.5232 12.6445 7.70896 12.8739 7.84828C13.4859 8.21979 13.7613 8.73063 14.0214 9.99998C14.0979 10.3715 14.2049 10.8049 14.2508 10.9443C14.3273 11.1765 14.618 11.7182 14.8628 12.0588C15.0311 12.3065 14.924 12.4303 14.5415 12.3994C13.9602 12.3374 13.1799 11.7956 12.6751 11.0991Z" fill="#FF007A"/>
<path d="M22.6653 17.8328C19.6361 16.5944 18.5652 15.5263 18.5652 13.7152C18.5652 13.452 18.5805 13.2353 18.5805 13.2353C18.5958 13.2353 18.7029 13.3282 18.8406 13.4365C19.4525 13.9319 20.141 14.1486 22.0533 14.4272C23.1702 14.5975 23.8127 14.7214 24.3941 14.9226C26.2452 15.5418 27.3927 16.8111 27.668 18.5294C27.7445 19.0248 27.6986 19.969 27.5763 20.4644C27.4692 20.8514 27.1632 21.5635 27.0867 21.5789C27.0714 21.5789 27.0408 21.5015 27.0408 21.3777C27.0102 20.7276 26.6889 20.1084 26.1535 19.6285C25.5109 19.0712 24.6848 18.6532 22.6653 17.8328Z" fill="#FF007A"/>
<path d="M20.5235 18.3437C20.4929 18.1115 20.4164 17.8173 20.3705 17.6935L20.294 17.4613L20.4317 17.6316C20.6306 17.8638 20.7836 18.1424 20.9212 18.5294C21.0283 18.8235 21.0283 18.9164 21.0283 19.3963C21.0283 19.8607 21.013 19.969 20.9212 20.2322C20.7683 20.6502 20.5847 20.9443 20.2787 21.2694C19.7279 21.8421 19.0089 22.1517 17.9839 22.291C17.8003 22.3065 17.2801 22.3529 16.8211 22.3839C15.6737 22.4458 14.9088 22.5697 14.2203 22.8173C14.1285 22.8483 14.0367 22.8793 14.0214 22.8638C13.9908 22.8328 14.4651 22.5542 14.8476 22.3684C15.383 22.1053 15.9338 21.9659 17.1424 21.7492C17.7391 21.6563 18.351 21.5325 18.504 21.4706C20.0186 20.9907 20.7683 19.7988 20.5235 18.3437Z" fill="#FF007A"/>
<path d="M21.9157 20.8359C21.5179 19.9536 21.4261 19.1177 21.6403 18.3282C21.6709 18.2508 21.7015 18.1734 21.7321 18.1734C21.7627 18.1734 21.8545 18.2198 21.9463 18.2818C22.1298 18.4056 22.5123 18.6223 23.4915 19.1641C24.7307 19.8452 25.4344 20.3715 25.924 20.9753C26.3523 21.5016 26.6124 22.1053 26.7348 22.8483C26.8113 23.2663 26.7654 24.2725 26.6583 24.6904C26.3218 26.0062 25.5568 27.0589 24.44 27.6626C24.2717 27.7554 24.134 27.8174 24.1187 27.8174C24.1034 27.8174 24.1646 27.6626 24.2564 27.4768C24.6236 26.6873 24.6695 25.9288 24.3941 25.0774C24.2258 24.5511 23.8739 23.9164 23.1702 22.8483C22.3287 21.6099 22.1298 21.2849 21.9157 20.8359Z" fill="#FF007A"/>
<path d="M10.5181 25.5728C11.6502 24.613 13.0424 23.9319 14.3275 23.7152C14.8783 23.6223 15.7962 23.6533 16.3011 23.7926C17.1119 24.0093 17.8462 24.4737 18.2287 25.0465C18.5959 25.6037 18.7642 26.0836 18.9325 27.1517C18.9937 27.5697 19.0702 28.0031 19.0855 28.096C19.2078 28.6533 19.4526 29.0867 19.7586 29.3189C20.2329 29.675 21.059 29.6904 21.8699 29.3808C22.0076 29.3344 22.1299 29.288 22.1299 29.3034C22.1605 29.3344 21.7475 29.613 21.4721 29.7524C21.0896 29.9536 20.7836 30.0155 20.3706 30.0155C19.6362 30.0155 19.009 29.6285 18.5041 28.8545C18.397 28.6997 18.1828 28.2508 17.9992 27.8328C17.4638 26.579 17.1884 26.2075 16.5611 25.7895C16.0104 25.4335 15.3066 25.3561 14.7712 25.6192C14.0674 25.9598 13.8838 26.8731 14.3734 27.4304C14.5723 27.6626 14.9394 27.8483 15.2454 27.8948C15.8115 27.9722 16.3011 27.5233 16.3011 26.9505C16.3011 26.579 16.1634 26.3623 15.7962 26.192C15.3066 25.9753 14.7712 26.2229 14.7865 26.7028C14.7865 26.9041 14.8783 27.0279 15.0771 27.1208C15.1995 27.1827 15.1995 27.1827 15.1077 27.1672C14.6641 27.0743 14.557 26.5171 14.9088 26.161C15.3372 25.7276 16.2399 25.9133 16.5458 26.5171C16.6682 26.7647 16.6835 27.2601 16.5764 27.5697C16.3163 28.2508 15.582 28.6068 14.8324 28.4056C14.3275 28.2663 14.1133 28.127 13.5013 27.4923C12.4304 26.3777 12.0173 26.161 10.4875 25.9288L10.1968 25.8824L10.5181 25.5728Z" fill="#FF007A"/>
<path fill-rule="evenodd" clip-rule="evenodd" d="M2.4708 0.665635C6.03545 5.04644 11.5278 11.8576 11.8031 12.2291C12.0326 12.5387 11.9408 12.8328 11.5584 13.0495C11.3442 13.1734 10.9005 13.2972 10.6863 13.2972C10.4415 13.2972 10.1509 13.1734 9.95197 12.9721C9.81428 12.8328 9.21762 11.9505 7.87132 9.82972C6.84629 8.20433 5.97425 6.85759 5.95895 6.84211C5.89776 6.81115 5.89776 6.81115 7.76423 10.1858C8.94224 12.3065 9.32472 13.065 9.32472 13.1579C9.32472 13.3591 9.26352 13.4675 9.01874 13.7461C8.60567 14.2105 8.42208 14.7368 8.28439 15.8359C8.1314 17.0588 7.71833 17.9257 6.54031 19.3963C5.85186 20.2632 5.74477 20.418 5.57648 20.774C5.36229 21.2074 5.3011 21.4551 5.2705 22.0124C5.2399 22.6006 5.3011 22.9721 5.46939 23.5294C5.62237 24.0248 5.79066 24.3498 6.20373 24.9845C6.55561 25.5418 6.76979 25.9598 6.76979 26.1145C6.76979 26.2384 6.80039 26.2384 7.35115 26.1145C8.66686 25.805 9.75309 25.2786 10.3497 24.6285C10.7169 24.226 10.8087 24.0093 10.8087 23.452C10.8087 23.096 10.7934 23.0186 10.7016 22.8019C10.5486 22.4613 10.258 22.1827 9.63069 21.7492C8.80455 21.1765 8.45268 20.7121 8.36088 20.0929C8.28439 19.5666 8.37618 19.2105 8.83515 18.2353C9.30942 17.2291 9.43181 16.8111 9.5083 15.7895C9.5542 15.1393 9.63069 14.8762 9.81428 14.6749C10.0132 14.4582 10.1815 14.3808 10.6557 14.3189C11.436 14.2105 11.9408 14.0093 12.3386 13.6223C12.6905 13.2972 12.8435 12.9721 12.8588 12.4923L12.8741 12.1362L12.6752 11.9195C11.9561 11.0836 1.99653 0 1.95063 0C1.93533 0 2.18012 0.294118 2.4708 0.665635ZM7.16757 22.678C7.33585 22.3839 7.24406 22.0124 6.96868 21.8266C6.7086 21.6563 6.31083 21.7337 6.31083 21.9659C6.31083 22.0279 6.34142 22.0898 6.43322 22.1207C6.57091 22.1981 6.58621 22.2755 6.47912 22.4458C6.37202 22.6161 6.37202 22.7709 6.50971 22.8793C6.7239 23.0495 7.01458 22.9567 7.16757 22.678Z" fill="#FF007A"/>
<path fill-rule="evenodd" clip-rule="evenodd" d="M13.3637 14.5356C12.9965 14.6439 12.6446 15.0464 12.5375 15.4489C12.4763 15.6966 12.5069 16.1455 12.614 16.2848C12.7823 16.5015 12.9353 16.5634 13.3637 16.5634C14.2051 16.5634 14.9242 16.1919 15.0007 15.743C15.0772 15.3715 14.7559 14.8607 14.3122 14.6285C14.0827 14.5046 13.6085 14.4582 13.3637 14.5356ZM14.3428 15.3096C14.4652 15.1238 14.4193 14.9226 14.1898 14.7833C13.7768 14.5201 13.1495 14.7368 13.1495 15.1393C13.1495 15.3405 13.4708 15.5573 13.7768 15.5573C13.9756 15.5573 14.251 15.4334 14.3428 15.3096Z" fill="#FF007A"/>
</g>
<defs>
<clipPath id="clip0_438_1042">
<rect width="29.6493" height="30" fill="white"/>
</clipPath>
</defs>
</svg>
