<?xml version="1.0" encoding="utf-8"?>
<!-- Generator: Adobe Illustrator 26.0.1, SVG Export Plug-In . SVG Version: 6.00 Build 0)  -->
<svg version="1.1" id="Layer_1_FTM" xmlns="http://www.w3.org/2000/svg"
     x="0px" y="0px"
     viewBox="0 0 493 451.2" style="enable-background:new 0 0 493 451.2;" xml:space="preserve">
<style type="text/css">
	.ftm0{fill:darkblue;}
	.ftm1{fill:#FFFFFF;}
</style>
    <circle class="ftm0" cx="246.5" cy="225.6" r="223"/>
    <path class="ftm1" d="M234.5,90.2c6.7-3.5,16.9-3.5,23.6,0l68.5,36c4,2.1,6.3,5.3,6.7,8.6h0.1v180.9c-0.1,3.6-2.3,7.1-6.7,9.4
	l-68.5,36c-6.7,3.5-16.9,3.5-23.6,0l-68.5-36c-4.4-2.3-6.5-5.9-6.6-9.4c0-0.3,0-0.6,0-0.9l0-178.9c0-0.2,0-0.4,0-0.6l0-0.6l0,0
	c0.3-3.3,2.4-6.4,6.6-8.6L234.5,90.2z M322.6,235.7l-64.4,33.9c-6.7,3.5-16.9,3.5-23.6,0l-64.3-33.8v79.5l64.3,33.6
	c3.6,1.9,7.4,3.8,11.1,4.1l0.7,0c3.8,0,7.6-1.9,11.3-3.8l64.9-34.2V235.7z M148.3,311.7c0,6.9,0.8,11.5,2.4,14.7
	c1.3,2.7,3.3,4.7,7,7.2l0.2,0.1c0.8,0.5,1.7,1.1,2.8,1.8l1.3,0.8l3.9,2.3l-5.6,9.2l-4.4-2.6l-0.7-0.4c-1.3-0.8-2.3-1.4-3.3-2.1
	c-10.4-7-14.3-14.6-14.4-30.4l0-0.5H148.3z M241,187.2c-0.5,0.2-1,0.4-1.4,0.6l-68.5,36c-0.1,0-0.1,0.1-0.2,0.1l-0.1,0l0.1,0.1
	l0.2,0.1l68.5,36c0.4,0.2,0.9,0.4,1.4,0.6V187.2z M251.7,187.2v73.5c0.5-0.2,1-0.4,1.4-0.6l68.5-36c0.1,0,0.1-0.1,0.2-0.1l0.1,0
	l-0.1-0.1l-0.2-0.1l-68.5-36C252.7,187.5,252.2,187.3,251.7,187.2z M322.6,147.6l-61.4,32.3l61.4,32.3V147.6z M170.3,147.6v64.4
	l61.3-32.2L170.3,147.6z M253.1,99.7c-3.6-1.9-10-1.9-13.6,0l-68.5,36c-0.1,0-0.1,0.1-0.2,0.1l-0.1,0l0.1,0.1l0.2,0.1l68.5,36
	c3.6,1.9,10,1.9,13.6,0l68.5-36c0.1,0,0.1-0.1,0.2-0.1l0.1,0l-0.1-0.1l-0.2-0.1L253.1,99.7z M332.7,103.6l4.4,2.6l0.7,0.4
	c1.3,0.8,2.3,1.4,3.3,2.1c10.4,7,14.3,14.6,14.4,30.4l0,0.5h-10.8c0-6.9-0.8-11.5-2.4-14.7c-1.3-2.7-3.3-4.7-7-7.2l-0.2-0.1
	c-0.8-0.5-1.7-1.1-2.8-1.8l-1.3-0.8l-3.9-2.3L332.7,103.6z"/>
</svg>
